<?xml version="1.0" encoding="UTF-8" standalone="no"?>
<!-- Created with Inkscape (http://www.inkscape.org/) -->

<svg
   version="1.1"
   id="svg1"
   width="458.28134"
   height="137.33333"
   viewBox="0 0 458.28134 137.33333"
   sodipodi:docname="ecr.pdf"
   xmlns:inkscape="http://www.inkscape.org/namespaces/inkscape"
   xmlns:sodipodi="http://sodipodi.sourceforge.net/DTD/sodipodi-0.dtd"
   xmlns="http://www.w3.org/2000/svg"
   xmlns:svg="http://www.w3.org/2000/svg">
  <defs
     id="defs1">
    <clipPath
       clipPathUnits="userSpaceOnUse"
       id="clipPath4">
      <path
         d="M 0,0 H 119.718 V 78.121 H 0 Z"
         transform="translate(-53.361999,-67.602001)"
         id="path4" />
    </clipPath>
    <clipPath
       clipPathUnits="userSpaceOnUse"
       id="clipPath5">
      <path
         d="M 0,0 H 119.718 V 78.121 H 0 Z"
         transform="matrix(1,0,0,-1,-51.377004,65.355001)"
         id="path5" />
    </clipPath>
    <clipPath
       clipPathUnits="userSpaceOnUse"
       id="clipPath6">
      <path
         d="M 0,0 H 119.718 V 78.121 H 0 Z"
         transform="translate(-53.361999,-67.602001)"
         id="path6" />
    </clipPath>
    <clipPath
       clipPathUnits="userSpaceOnUse"
       id="clipPath7">
      <path
         d="M 0,0 H 119.718 V 78.121 H 0 Z"
         transform="matrix(1,0,0,-1,-23.030001,44.095001)"
         id="path7" />
    </clipPath>
    <clipPath
       clipPathUnits="userSpaceOnUse"
       id="clipPath8">
      <path
         d="M 0,0 H 119.718 V 78.121 H 0 Z"
         transform="translate(-53.361999,-67.602001)"
         id="path8" />
    </clipPath>
    <clipPath
       clipPathUnits="userSpaceOnUse"
       id="clipPath9">
      <path
         d="M 0,0 H 119.718 V 78.121 H 0 Z"
         transform="matrix(1,0,0,-1,-79.722999,44.095001)"
         id="path9" />
    </clipPath>
    <clipPath
       clipPathUnits="userSpaceOnUse"
       id="clipPath10">
      <path
         d="M 0,0 H 119.718 V 78.121 H 0 Z"
         transform="translate(-53.361999,-67.602001)"
         id="path10" />
    </clipPath>
    <clipPath
       clipPathUnits="userSpaceOnUse"
       id="clipPath11">
      <path
         d="M 0,0 H 119.718 V 78.121 H 0 Z"
         transform="matrix(1,0,0,-1,-5.7990001,16.164)"
         id="path11" />
    </clipPath>
    <clipPath
       clipPathUnits="userSpaceOnUse"
       id="clipPath12">
      <path
         d="M 0,0 H 119.718 V 78.121 H 0 Z"
         transform="translate(-53.361999,-67.602001)"
         id="path12" />
    </clipPath>
    <clipPath
       clipPathUnits="userSpaceOnUse"
       id="clipPath13">
      <path
         d="M 0,0 H 119.718 V 78.121 H 0 Z"
         transform="matrix(1,0,0,-1,-37.203998,15.748003)"
         id="path13" />
    </clipPath>
    <clipPath
       clipPathUnits="userSpaceOnUse"
       id="clipPath14">
      <path
         d="M 0,0 H 119.718 V 78.121 H 0 Z"
         transform="translate(-53.361999,-67.602001)"
         id="path14" />
    </clipPath>
    <clipPath
       clipPathUnits="userSpaceOnUse"
       id="clipPath15">
      <path
         d="M 0,0 H 119.718 V 78.121 H 0 Z"
         transform="matrix(1,0,0,-1,-65.550002,15.748003)"
         id="path15" />
    </clipPath>
    <clipPath
       clipPathUnits="userSpaceOnUse"
       id="clipPath16">
      <path
         d="M 0,0 H 119.718 V 78.121 H 0 Z"
         transform="translate(-53.361999,-67.602001)"
         id="path16" />
    </clipPath>
    <clipPath
       clipPathUnits="userSpaceOnUse"
       id="clipPath17">
      <path
         d="M 0,0 H 119.718 V 78.121 H 0 Z"
         transform="matrix(1,0,0,-1,-90.838,16.164)"
         id="path17" />
    </clipPath>
    <clipPath
       clipPathUnits="userSpaceOnUse"
       id="clipPath18">
      <path
         d="M 0,0 H 119.718 V 78.121 H 0 Z"
         transform="translate(-53.361999,-67.602001)"
         id="path18" />
    </clipPath>
    <clipPath
       clipPathUnits="userSpaceOnUse"
       id="clipPath19">
      <path
         d="M 0,0 H 119.718 V 78.121 H 0 Z"
         transform="matrix(-0.80001799,0.60002598,-0.60002598,-0.80001799,59.294478,22.064572)"
         id="path19" />
    </clipPath>
    <clipPath
       clipPathUnits="userSpaceOnUse"
       id="clipPath20">
      <path
         d="M 0,0 H 119.718 V 78.121 H 0 Z"
         transform="translate(-53.361999,-67.602001)"
         id="path20" />
    </clipPath>
    <clipPath
       clipPathUnits="userSpaceOnUse"
       id="clipPath21">
      <path
         d="M 0,0 H 119.718 V 78.121 H 0 Z"
         transform="matrix(0.80001799,0.60002598,-0.60002598,0.80001799,-26.086644,-86.101746)"
         id="path21" />
    </clipPath>
    <clipPath
       clipPathUnits="userSpaceOnUse"
       id="clipPath22">
      <path
         d="M 0,0 H 119.718 V 78.121 H 0 Z"
         transform="translate(-53.361999,-67.602001)"
         id="path22" />
    </clipPath>
    <clipPath
       clipPathUnits="userSpaceOnUse"
       id="clipPath23">
      <path
         d="M 0,0 H 119.718 V 78.121 H 0 Z"
         transform="matrix(-0.44724317,0.89446637,-0.89446637,-0.44724317,32.744106,-1.649205)"
         id="path23" />
    </clipPath>
    <clipPath
       clipPathUnits="userSpaceOnUse"
       id="clipPath24">
      <path
         d="M 0,0 H 119.718 V 78.121 H 0 Z"
         transform="translate(-53.361999,-67.602001)"
         id="path24" />
    </clipPath>
    <clipPath
       clipPathUnits="userSpaceOnUse"
       id="clipPath25">
      <path
         d="M 0,0 H 119.718 V 78.121 H 0 Z"
         transform="matrix(0.44724317,0.89446637,-0.89446637,0.44724317,10.044397,-43.101258)"
         id="path25" />
    </clipPath>
    <clipPath
       clipPathUnits="userSpaceOnUse"
       id="clipPath26">
      <path
         d="M 0,0 H 119.718 V 78.121 H 0 Z"
         transform="translate(-53.361999,-67.602001)"
         id="path26" />
    </clipPath>
    <clipPath
       clipPathUnits="userSpaceOnUse"
       id="clipPath27">
      <path
         d="M 0,0 H 119.718 V 78.121 H 0 Z"
         transform="matrix(-0.44724317,0.89446637,-0.89446637,-0.44724317,57.775978,-52.359773)"
         id="path27" />
    </clipPath>
    <clipPath
       clipPathUnits="userSpaceOnUse"
       id="clipPath28">
      <path
         d="M 0,0 H 119.718 V 78.121 H 0 Z"
         transform="translate(-53.361999,-67.602001)"
         id="path28" />
    </clipPath>
    <clipPath
       clipPathUnits="userSpaceOnUse"
       id="clipPath29">
      <path
         d="M 0,0 H 119.718 V 78.121 H 0 Z"
         transform="matrix(0.44724317,0.89446637,-0.89446637,0.44724317,-14.987475,-93.811824)"
         id="path29" />
    </clipPath>
    <clipPath
       clipPathUnits="userSpaceOnUse"
       id="clipPath30">
      <path
         d="M 0,0 H 119.718 V 78.121 H 0 Z"
         transform="translate(-53.361999,-67.602001)"
         id="path30" />
    </clipPath>
    <clipPath
       clipPathUnits="userSpaceOnUse"
       id="clipPath31">
      <path
         d="M 0,0 H 119.718 V 78.121 H 0 Z"
         transform="matrix(-0.17169373,-0.9851614,0.9851614,-0.17169373,9.2656425,92.290684)"
         id="path31" />
    </clipPath>
    <clipPath
       clipPathUnits="userSpaceOnUse"
       id="clipPath32">
      <path
         d="M 0,0 H 119.718 V 78.121 H 0 Z"
         transform="translate(-53.361999,-67.602001)"
         id="path32" />
    </clipPath>
    <clipPath
       clipPathUnits="userSpaceOnUse"
       id="clipPath33">
      <path
         d="M 0,0 H 119.718 V 78.121 H 0 Z"
         transform="matrix(-0.24078504,-0.97061064,0.97061064,-0.24078504,8.4428717,63.781977)"
         id="path33" />
    </clipPath>
    <clipPath
       clipPathUnits="userSpaceOnUse"
       id="clipPath34">
      <path
         d="M 0,0 H 119.718 V 78.121 H 0 Z"
         transform="translate(-53.361999,-67.602001)"
         id="path34" />
    </clipPath>
    <clipPath
       clipPathUnits="userSpaceOnUse"
       id="clipPath35">
      <path
         d="M 0,0 H 119.718 V 78.121 H 0 Z"
         transform="matrix(-0.24078504,-0.97061064,0.97061064,-0.24078504,1.6173887,36.268281)"
         id="path35" />
    </clipPath>
    <clipPath
       clipPathUnits="userSpaceOnUse"
       id="clipPath81">
      <path
         d="M 0,0 H 119.718 V 78.121 H 0 Z"
         transform="translate(-53.362004,-67.602001)"
         id="path81" />
    </clipPath>
    <clipPath
       clipPathUnits="userSpaceOnUse"
       id="clipPath82">
      <path
         d="M 0,0 H 119.718 V 78.121 H 0 Z"
         transform="matrix(1,0,0,-1,-51.377001,65.355001)"
         id="path82" />
    </clipPath>
    <clipPath
       clipPathUnits="userSpaceOnUse"
       id="clipPath83">
      <path
         d="M 0,0 H 119.718 V 78.121 H 0 Z"
         transform="translate(-53.362004,-67.602001)"
         id="path83" />
    </clipPath>
    <clipPath
       clipPathUnits="userSpaceOnUse"
       id="clipPath84">
      <path
         d="M 0,0 H 119.718 V 78.121 H 0 Z"
         transform="matrix(1,0,0,-1,-23.030001,44.095001)"
         id="path84" />
    </clipPath>
    <clipPath
       clipPathUnits="userSpaceOnUse"
       id="clipPath85">
      <path
         d="M 0,0 H 119.718 V 78.121 H 0 Z"
         transform="translate(-53.362004,-67.602001)"
         id="path85" />
    </clipPath>
    <clipPath
       clipPathUnits="userSpaceOnUse"
       id="clipPath86">
      <path
         d="M 0,0 H 119.718 V 78.121 H 0 Z"
         transform="matrix(1,0,0,-1,-79.723004,44.095001)"
         id="path86" />
    </clipPath>
    <clipPath
       clipPathUnits="userSpaceOnUse"
       id="clipPath87">
      <path
         d="M 0,0 H 119.718 V 78.121 H 0 Z"
         transform="translate(-53.362004,-67.602001)"
         id="path87" />
    </clipPath>
    <clipPath
       clipPathUnits="userSpaceOnUse"
       id="clipPath88">
      <path
         d="M 0,0 H 119.718 V 78.121 H 0 Z"
         transform="matrix(1,0,0,-1,-5.7989976,16.164)"
         id="path88" />
    </clipPath>
    <clipPath
       clipPathUnits="userSpaceOnUse"
       id="clipPath89">
      <path
         d="M 0,0 H 119.718 V 78.121 H 0 Z"
         transform="translate(-53.362004,-67.602001)"
         id="path89" />
    </clipPath>
    <clipPath
       clipPathUnits="userSpaceOnUse"
       id="clipPath90">
      <path
         d="M 0,0 H 119.718 V 78.121 H 0 Z"
         transform="matrix(1,0,0,-1,-37.204003,15.748003)"
         id="path90" />
    </clipPath>
    <clipPath
       clipPathUnits="userSpaceOnUse"
       id="clipPath91">
      <path
         d="M 0,0 H 119.718 V 78.121 H 0 Z"
         transform="translate(-53.362004,-67.602001)"
         id="path91" />
    </clipPath>
    <clipPath
       clipPathUnits="userSpaceOnUse"
       id="clipPath92">
      <path
         d="M 0,0 H 119.718 V 78.121 H 0 Z"
         transform="matrix(1,0,0,-1,-62.492002,16.164)"
         id="path92" />
    </clipPath>
    <clipPath
       clipPathUnits="userSpaceOnUse"
       id="clipPath93">
      <path
         d="M 0,0 H 119.718 V 78.121 H 0 Z"
         transform="translate(-53.362004,-67.602001)"
         id="path93" />
    </clipPath>
    <clipPath
       clipPathUnits="userSpaceOnUse"
       id="clipPath94">
      <path
         d="M 0,0 H 119.718 V 78.121 H 0 Z"
         transform="matrix(1,0,0,-1,-93.896002,15.748003)"
         id="path94" />
    </clipPath>
    <clipPath
       clipPathUnits="userSpaceOnUse"
       id="clipPath95">
      <path
         d="M 0,0 H 119.718 V 78.121 H 0 Z"
         transform="translate(-53.362004,-67.602001)"
         id="path95" />
    </clipPath>
    <clipPath
       clipPathUnits="userSpaceOnUse"
       id="clipPath96">
      <path
         d="M 0,0 H 119.718 V 78.121 H 0 Z"
         transform="matrix(-0.80001799,0.60002598,-0.60002598,-0.80001799,59.294476,22.064573)"
         id="path96" />
    </clipPath>
    <clipPath
       clipPathUnits="userSpaceOnUse"
       id="clipPath97">
      <path
         d="M 0,0 H 119.718 V 78.121 H 0 Z"
         transform="translate(-53.362004,-67.602001)"
         id="path97" />
    </clipPath>
    <clipPath
       clipPathUnits="userSpaceOnUse"
       id="clipPath98">
      <path
         d="M 0,0 H 119.718 V 78.121 H 0 Z"
         transform="matrix(0.80001799,0.60002598,-0.60002598,0.80001799,-26.086642,-86.101744)"
         id="path98" />
    </clipPath>
    <clipPath
       clipPathUnits="userSpaceOnUse"
       id="clipPath99">
      <path
         d="M 0,0 H 119.718 V 78.121 H 0 Z"
         transform="translate(-53.362004,-67.602001)"
         id="path99" />
    </clipPath>
    <clipPath
       clipPathUnits="userSpaceOnUse"
       id="clipPath100">
      <path
         d="M 0,0 H 119.718 V 78.121 H 0 Z"
         transform="matrix(-0.44724317,0.89446637,-0.89446637,-0.44724317,32.744106,-1.6492048)"
         id="path100" />
    </clipPath>
    <clipPath
       clipPathUnits="userSpaceOnUse"
       id="clipPath101">
      <path
         d="M 0,0 H 119.718 V 78.121 H 0 Z"
         transform="translate(-53.362004,-67.602001)"
         id="path101" />
    </clipPath>
    <clipPath
       clipPathUnits="userSpaceOnUse"
       id="clipPath102">
      <path
         d="M 0,0 H 119.718 V 78.121 H 0 Z"
         transform="matrix(0.44724317,0.89446637,-0.89446637,0.44724317,10.044398,-43.101256)"
         id="path102" />
    </clipPath>
    <clipPath
       clipPathUnits="userSpaceOnUse"
       id="clipPath103">
      <path
         d="M 0,0 H 119.718 V 78.121 H 0 Z"
         transform="translate(-53.362004,-67.602001)"
         id="path103" />
    </clipPath>
    <clipPath
       clipPathUnits="userSpaceOnUse"
       id="clipPath104">
      <path
         d="M 0,0 H 119.718 V 78.121 H 0 Z"
         transform="matrix(-0.44724317,0.89446637,-0.89446637,-0.44724317,58.099774,-52.359788)"
         id="path104" />
    </clipPath>
    <clipPath
       clipPathUnits="userSpaceOnUse"
       id="clipPath105">
      <path
         d="M 0,0 H 119.718 V 78.121 H 0 Z"
         transform="translate(-53.362004,-67.602001)"
         id="path105" />
    </clipPath>
    <clipPath
       clipPathUnits="userSpaceOnUse"
       id="clipPath106">
      <path
         d="M 0,0 H 119.718 V 78.121 H 0 Z"
         transform="matrix(0.44724317,0.89446637,-0.89446637,0.44724317,-15.311292,-93.811837)"
         id="path106" />
    </clipPath>
    <clipPath
       clipPathUnits="userSpaceOnUse"
       id="clipPath107">
      <path
         d="M 0,0 H 119.718 V 78.121 H 0 Z"
         transform="translate(-53.362004,-67.602001)"
         id="path107" />
    </clipPath>
    <clipPath
       clipPathUnits="userSpaceOnUse"
       id="clipPath108">
      <path
         d="M 0,0 H 119.718 V 78.121 H 0 Z"
         transform="matrix(-0.24078504,-0.97061064,0.97061064,-0.24078504,15.268358,91.295686)"
         id="path108" />
    </clipPath>
    <clipPath
       clipPathUnits="userSpaceOnUse"
       id="clipPath109">
      <path
         d="M 0,0 H 119.718 V 78.121 H 0 Z"
         transform="translate(-53.362004,-67.602001)"
         id="path109" />
    </clipPath>
    <clipPath
       clipPathUnits="userSpaceOnUse"
       id="clipPath110">
      <path
         d="M 0,0 H 119.718 V 78.121 H 0 Z"
         transform="matrix(-0.17169373,-0.9851614,0.9851614,-0.17169373,4.3986708,64.364489)"
         id="path110" />
    </clipPath>
    <clipPath
       clipPathUnits="userSpaceOnUse"
       id="clipPath111">
      <path
         d="M 0,0 H 119.718 V 78.121 H 0 Z"
         transform="translate(-53.362004,-67.602001)"
         id="path111" />
    </clipPath>
    <clipPath
       clipPathUnits="userSpaceOnUse"
       id="clipPath112">
      <path
         d="M 0,0 H 119.718 V 78.121 H 0 Z"
         transform="matrix(-0.24078504,-0.97061064,0.97061064,-0.24078504,1.6173881,36.268279)"
         id="path112" />
    </clipPath>
  </defs>
  <sodipodi:namedview
     id="namedview1"
     pagecolor="#ffffff"
     bordercolor="#000000"
     borderopacity="0.25"
     inkscape:showpageshadow="2"
     inkscape:pageopacity="0.0"
     inkscape:pagecheckerboard="0"
     inkscape:deskcolor="#d1d1d1">
    <inkscape:page
       x="0"
       y="0"
       inkscape:label="1"
       id="page1"
       width="458.28134"
       height="137.33333"
       margin="0"
       bleed="0" />
  </sodipodi:namedview>
  <g
     id="g1"
     inkscape:groupmode="layer"
     inkscape:label="1">
    <g
       id="g2"
       aria-label="f&#10;1"
       transform="matrix(1.3333333,0,0,1.3333333,129.57067,9.2253333)">
      <path
         id="path2"
         d="m 3.6559844,-3.9834531 h 0.8554687 c 0.1992188,0 0.3046875,0 0.3046875,-0.1992188 0,-0.1054687 -0.1054687,-0.1054687 -0.2695312,-0.1054687 H 3.7145781 l 0.2109375,-1.1367188 c 0.035156,-0.2109375 0.1757813,-0.9140625 0.234375,-1.0429687 0.09375,-0.1875 0.2578125,-0.3398438 0.46875,-0.3398438 0.046875,0 0.3046875,0 0.4921875,0.1875 -0.4335937,0.035156 -0.5390625,0.3867188 -0.5390625,0.5390625 0,0.2226563 0.1757813,0.3398438 0.3632813,0.3398438 0.2695312,0 0.5507812,-0.2109375 0.5507812,-0.5976563 0,-0.4570312 -0.4570312,-0.6796875 -0.8671875,-0.6796875 -0.3398437,0 -0.9609375,0.1757813 -1.265625,1.1601563 -0.058594,0.2109375 -0.082031,0.3164062 -0.328125,1.5703125 H 2.3552031 c -0.1992187,0 -0.3046875,0 -0.3046875,0.1875 0,0.1171875 0.09375,0.1171875 0.28125,0.1171875 h 0.65625 l -0.75,3.93749998 C 2.0622344,0.91498438 1.8981719,1.8290469 1.3708281,1.8290469 c -0.035156,0 -0.28125,0 -0.46874997,-0.1875 C 1.3591094,1.6181094 1.4411406,1.2548281 1.4411406,1.1024844 c 0,-0.22265627 -0.1757812,-0.33984377 -0.3632812,-0.33984377 -0.25781252,0 -0.55078127,0.2109375 -0.55078127,0.59765627 0,0.4453125 0.43359375,0.6796875 0.84374997,0.6796875 0.5507813,0 0.9492188,-0.5859375 1.125,-0.9609375 0.328125,-0.63281252 0.5507813,-1.83984377 0.5625,-1.91015627 z m 0,0"
         style="fill:#000000;fill-opacity:1;fill-rule:nonzero;stroke:none" />
      <path
         id="path3"
         d="m 7.2096953,-2.934625 c 0,-0.1875 -0.011719,-0.1992187 -0.2109375,-0.1992187 -0.4453125,0.4335937 -1.078125,0.4453125 -1.359375,0.4453125 v 0.2460937 c 0.1640625,0 0.6210938,0 1.0078125,-0.1875 v 3.55078125 c 0,0.23437505 0,0.32812505 -0.6914062,0.32812505 H 5.6862578 v 0.2460937 c 0.1289063,-0.011719 0.984375,-0.023437 1.2421875,-0.023437 0.2109375,0 1.0898438,0.011719 1.2421875,0.023437 V 1.2489688 H 7.9128203 c -0.703125,0 -0.703125,-0.09375 -0.703125,-0.32812505 z m 0,0"
         style="fill:#000000;fill-opacity:1;fill-rule:nonzero;stroke:none" />
    </g>
    <g
       id="g67">
      <path
         d="M 9.92134,0 C 9.92134,5.47948 5.47948,9.92134 0,9.92134 -5.47948,9.92134 -9.92134,5.47948 -9.92134,0 c 0,-5.47948 4.44186,-9.92134 9.92134,-9.92134 5.47948,0 9.92134,4.44186 9.92134,9.92134 z"
         style="fill:none;stroke:#008000;stroke-width:1.19553;stroke-linecap:butt;stroke-linejoin:miter;stroke-miterlimit:10;stroke-dasharray:none;stroke-opacity:1"
         transform="matrix(1.3333333,0,0,-1.3333333,137.02933,31.146667)"
         clip-path="url(#clipPath4)"
         id="path36" />
      <path
         d="m 3.5977656,-2.2251641 c 0,-0.7617187 -0.09375,-1.3125 -0.4101562,-1.8046875 -0.2226563,-0.3164062 -0.6445313,-0.5976562 -1.2070313,-0.5976562 -1.61718748,0 -1.61718748,1.8984375 -1.61718748,2.4023437 0,0.5039063 0,2.36718754 1.61718748,2.36718754 1.6171875,0 1.6171875,-1.86328124 1.6171875,-2.36718754 z m -1.6171875,2.16796879 c -0.3164062,0 -0.75,-0.1875 -0.890625,-0.76171875 -0.09375,-0.41015624 -0.09375,-0.98437504 -0.09375,-1.50000004 0,-0.5039062 0,-1.03125 0.1054688,-1.4179687 0.1523437,-0.5507813 0.5976562,-0.6914063 0.8789062,-0.6914063 0.375,0 0.7382813,0.2226563 0.8671875,0.6328125 0.1054688,0.375 0.1171875,0.8789063 0.1171875,1.4765625 0,0.515625 0,1.0429688 -0.09375,1.47656254 -0.140625,0.6328125 -0.609375,0.78515625 -0.890625,0.78515625 z m 0,0"
         style="fill:#008000;fill-opacity:1;fill-rule:nonzero;stroke:none"
         aria-label="0"
         transform="matrix(1.3333333,0,0,1.3333333,134.38267,34.142667)"
         clip-path="url(#clipPath5)"
         id="path37" />
      <path
         d="m -18.42546,-21.2601 c 0,5.47948 -4.44186,9.92134 -9.92134,9.92134 -5.47948,0 -9.92134,-4.44186 -9.92134,-9.92134 0,-5.47948 4.44186,-9.92134 9.92134,-9.92134 5.47948,0 9.92134,4.44186 9.92134,9.92134 z"
         style="fill:none;stroke:#008000;stroke-width:1.19553;stroke-linecap:butt;stroke-linejoin:miter;stroke-miterlimit:10;stroke-dasharray:none;stroke-opacity:1"
         transform="matrix(1.3333333,0,0,-1.3333333,137.02933,31.146667)"
         clip-path="url(#clipPath6)"
         id="path38" />
      <path
         d="m 3.5971094,-2.2273516 c 0,-0.7617187 -0.09375,-1.3125 -0.4101563,-1.8046875 -0.2226562,-0.3164062 -0.6445312,-0.5976562 -1.2070312,-0.5976562 -1.61718752,0 -1.61718752,1.8984375 -1.61718752,2.4023437 0,0.5039063 0,2.36718754 1.61718752,2.36718754 1.6171875,0 1.6171875,-1.86328124 1.6171875,-2.36718754 z m -1.6171875,2.16796879 c -0.3164063,0 -0.75,-0.1875 -0.890625,-0.76171875 -0.09375,-0.41015624 -0.09375,-0.98437504 -0.09375,-1.50000004 0,-0.5039062 0,-1.03125 0.1054687,-1.4179687 0.1523438,-0.5507813 0.5976563,-0.6914063 0.8789063,-0.6914063 0.375,0 0.7382812,0.2226563 0.8671875,0.6328125 0.1054687,0.375 0.1171875,0.8789063 0.1171875,1.4765625 0,0.515625 0,1.0429688 -0.09375,1.47656254 -0.140625,0.6328125 -0.609375,0.78515625 -0.890625,0.78515625 z m 0,0"
         style="fill:#008000;fill-opacity:1;fill-rule:nonzero;stroke:none"
         aria-label="0"
         transform="matrix(1.3333333,0,0,1.3333333,96.586667,62.489333)"
         clip-path="url(#clipPath7)"
         id="path39" />
      <path
         d="m 38.26814,-21.2601 c 0,5.47948 -4.44186,9.92134 -9.92134,9.92134 -5.47948,0 -9.92134,-4.44186 -9.92134,-9.92134 0,-5.47948 4.44186,-9.92134 9.92134,-9.92134 5.47948,0 9.92134,4.44186 9.92134,9.92134 z"
         style="fill:none;stroke:#f79646;stroke-width:1.19553;stroke-linecap:butt;stroke-linejoin:miter;stroke-miterlimit:10;stroke-dasharray:none;stroke-opacity:1"
         transform="matrix(1.3333333,0,0,-1.3333333,137.02933,31.146667)"
         clip-path="url(#clipPath8)"
         id="path40" />
      <path
         d="m 3.5964922,-2.2273516 c 0,-0.7617187 -0.09375,-1.3125 -0.4101563,-1.8046875 -0.2226562,-0.3164062 -0.6445312,-0.5976562 -1.2070312,-0.5976562 -1.61718751,0 -1.61718751,1.8984375 -1.61718751,2.4023437 0,0.5039063 0,2.36718754 1.61718751,2.36718754 1.6171875,0 1.6171875,-1.86328124 1.6171875,-2.36718754 z m -1.6171875,2.16796879 c -0.3164063,0 -0.75,-0.1875 -0.890625,-0.76171875 -0.09375,-0.41015624 -0.09375,-0.98437504 -0.09375,-1.50000004 0,-0.5039062 0,-1.03125 0.1054687,-1.4179687 0.1523438,-0.5507813 0.5976563,-0.6914063 0.8789063,-0.6914063 0.375,0 0.7382812,0.2226563 0.8671875,0.6328125 0.1054687,0.375 0.1171875,0.8789063 0.1171875,1.4765625 0,0.515625 0,1.0429688 -0.09375,1.47656254 -0.140625,0.6328125 -0.609375,0.78515625 -0.890625,0.78515625 z m 0,0"
         style="fill:#f79646;fill-opacity:1;fill-rule:nonzero;stroke:none"
         aria-label="0"
         transform="matrix(1.3333333,0,0,1.3333333,172.17733,62.489333)"
         clip-path="url(#clipPath9)"
         id="path41" />
      <path
         d="m -32.27504,-49.6069 c 0,5.6583 -4.58686,10.24516 -10.24516,10.24516 -5.65831,0 -10.24517,-4.58686 -10.24517,-10.24516 0,-5.65831 4.58686,-10.24517 10.24517,-10.24517 5.6583,0 10.24516,4.58686 10.24516,10.24517 z"
         style="fill:none;stroke:#008000;stroke-width:1.19553;stroke-linecap:butt;stroke-linejoin:miter;stroke-miterlimit:10;stroke-dasharray:none;stroke-opacity:1"
         transform="matrix(1.3333333,0,0,-1.3333333,137.02933,31.146667)"
         clip-path="url(#clipPath10)"
         id="path42" />
      <path
         d="m 3.2236172,-1.5704609 h 2.1445312 c 0.082031,0 0.2578125,0 0.2578125,-0.1757813 0,-0.1757812 -0.1640625,-0.1757812 -0.2578125,-0.1757812 H 3.2236172 v -2.1328125 c 0,-0.09375 0,-0.2578125 -0.1640625,-0.2578125 -0.1757813,0 -0.1757813,0.1523437 -0.1757813,0.2578125 v 2.1328125 H 0.75096094 c -0.09375,0 -0.2578125,0 -0.2578125,0.1757812 0,0.1757813 0.15234375,0.1757813 0.2578125,0.1757813 H 2.8837734 v 2.13281246 c 0,0.09375 0,0.2578125 0.1757813,0.2578125 0.1640625,0 0.1640625,-0.15234375 0.1640625,-0.2578125 z M 8.44725,-4.4298359 c 0,-0.1875 -0.011719,-0.1992188 -0.2109375,-0.1992188 -0.4453125,0.4335938 -1.078125,0.4453125 -1.359375,0.4453125 v 0.2460938 c 0.1640625,0 0.6210937,0 1.0078125,-0.1875 v 3.55078121 c 0,0.234375 0,0.328125 -0.6914063,0.328125 H 6.9238125 V -1.484375e-4 C 7.0527187,-0.01186719 7.9081875,-0.02358594 8.166,-0.02358594 c 0.2109375,0 1.0898437,0.01171875 1.2421875,0.0234375025 V -0.24624219 H 9.150375 c -0.703125,0 -0.703125,-0.09375 -0.703125,-0.328125 z m 0,0"
         style="fill:#008000;fill-opacity:1;fill-rule:nonzero;stroke:none"
         aria-label="+1"
         transform="matrix(1.3333333,0,0,1.3333333,73.612,99.730667)"
         clip-path="url(#clipPath11)"
         id="path43" />
      <path
         d="m -4.25204,-49.6069 c 0,5.47947 -4.44187,9.92134 -9.92135,9.92134 -5.47947,0 -9.92134,-4.44187 -9.92134,-9.92134 0,-5.47948 4.44187,-9.92134 9.92134,-9.92134 5.47948,0 9.92135,4.44186 9.92135,9.92134 z"
         style="fill:none;stroke:#f96565;stroke-width:1.19553;stroke-linecap:butt;stroke-linejoin:miter;stroke-miterlimit:10;stroke-dasharray:none;stroke-opacity:1"
         transform="matrix(1.3333333,0,0,-1.3333333,137.02933,31.146667)"
         clip-path="url(#clipPath12)"
         id="path44" />
      <path
         d="m 3.5969375,-2.2266953 c 0,-0.7617188 -0.09375,-1.3125 -0.4101563,-1.8046875 C 2.964125,-4.3477891 2.54225,-4.6290391 1.97975,-4.6290391 c -1.6171875,0 -1.6171875,1.8984375 -1.6171875,2.4023438 0,0.5039062 0,2.36718749 1.6171875,2.36718749 1.6171875,0 1.6171875,-1.86328129 1.6171875,-2.36718749 z M 1.97975,-0.05872656 c -0.3164063,0 -0.75,-0.1875 -0.890625,-0.76171875 -0.09375,-0.41015629 -0.09375,-0.98437499 -0.09375,-1.49999999 0,-0.5039063 0,-1.03125 0.1054687,-1.4179688 C 1.2531875,-4.2891953 1.6985,-4.4298203 1.97975,-4.4298203 c 0.375,0 0.7382812,0.2226562 0.8671875,0.6328125 0.1054687,0.375 0.1171875,0.8789062 0.1171875,1.4765625 0,0.515625 0,1.0429687 -0.09375,1.47656249 C 2.72975,-0.21107031 2.261,-0.05872656 1.97975,-0.05872656 Z m 0,0"
         style="fill:#f96565;fill-opacity:1;fill-rule:nonzero;stroke:none"
         aria-label="0"
         transform="matrix(1.3333333,0,0,1.3333333,115.48533,100.28533)"
         clip-path="url(#clipPath13)"
         id="path45" />
      <path
         d="m 24.09473,-49.6069 c 0,5.47947 -4.44187,9.92134 -9.92134,9.92134 -5.47948,0 -9.92135,-4.44187 -9.92135,-9.92134 0,-5.47948 4.44187,-9.92134 9.92135,-9.92134 5.47947,0 9.92134,4.44186 9.92134,9.92134 z"
         style="fill:none;stroke:#f96565;stroke-width:1.19553;stroke-linecap:butt;stroke-linejoin:miter;stroke-miterlimit:10;stroke-dasharray:none;stroke-opacity:1"
         transform="matrix(1.3333333,0,0,-1.3333333,137.02933,31.146667)"
         clip-path="url(#clipPath14)"
         id="path46" />
      <path
         d="m 3.5985937,-2.2266953 c 0,-0.7617188 -0.09375,-1.3125 -0.4101562,-1.8046875 -0.2226563,-0.3164063 -0.6445313,-0.5976563 -1.2070313,-0.5976563 -1.61718745,0 -1.61718745,1.8984375 -1.61718745,2.4023438 0,0.5039062 0,2.36718749 1.61718745,2.36718749 1.6171875,0 1.6171875,-1.86328129 1.6171875,-2.36718749 z m -1.6171875,2.16796874 c -0.3164062,0 -0.75,-0.1875 -0.890625,-0.76171875 C 0.9970313,-1.2306016 0.9970313,-1.8048203 0.9970313,-2.3204453 c 0,-0.5039063 0,-1.03125 0.1054687,-1.4179688 0.1523437,-0.5507812 0.5976562,-0.6914062 0.8789062,-0.6914062 0.3750001,0 0.7382814,0.2226562 0.8671876,0.6328125 0.1054688,0.375 0.1171875,0.8789062 0.1171875,1.4765625 0,0.515625 0,1.0429687 -0.09375,1.47656249 -0.140625,0.6328125 -0.609375,0.78515625 -0.8906251,0.78515625 z m 0,0"
         style="fill:#f96565;fill-opacity:1;fill-rule:nonzero;stroke:none"
         aria-label="0"
         transform="matrix(1.3333333,0,0,1.3333333,153.28,100.28533)"
         clip-path="url(#clipPath15)"
         id="path47" />
      <path
         d="m 52.76537,-49.6069 c 0,5.6583 -4.58686,10.24516 -10.24517,10.24516 -5.6583,0 -10.24516,-4.58686 -10.24516,-10.24516 0,-5.65831 4.58686,-10.24517 10.24516,-10.24517 5.65831,0 10.24517,4.58686 10.24517,10.24517 z"
         style="fill:none;stroke:#f79646;stroke-width:1.19553;stroke-linecap:butt;stroke-linejoin:miter;stroke-miterlimit:10;stroke-dasharray:none;stroke-opacity:1"
         transform="matrix(1.3333333,0,0,-1.3333333,137.02933,31.146667)"
         clip-path="url(#clipPath16)"
         id="path48" />
      <path
         d="m 3.2217266,-1.5704609 h 2.1445312 c 0.082031,0 0.2578125,0 0.2578125,-0.1757813 0,-0.1757812 -0.1640625,-0.1757812 -0.2578125,-0.1757812 H 3.2217266 v -2.1328125 c 0,-0.09375 0,-0.2578125 -0.1640625,-0.2578125 -0.1757813,0 -0.1757813,0.1523437 -0.1757813,0.2578125 v 2.1328125 H 0.74907031 c -0.09375,0 -0.2578125,0 -0.2578125,0.1757812 0,0.1757813 0.15234375,0.1757813 0.2578125,0.1757813 H 2.8818828 v 2.13281246 c 0,0.09375 0,0.2578125 0.1757813,0.2578125 0.1640625,0 0.1640625,-0.15234375 0.1640625,-0.2578125 z m 5.2265625,-2.859375 c 0,-0.1875 -0.011719,-0.1992188 -0.2109375,-0.1992188 -0.4453125,0.4335938 -1.078125,0.4453125 -1.359375,0.4453125 v 0.2460938 c 0.1640625,0 0.6210937,0 1.0078125,-0.1875 v 3.55078121 c 0,0.234375 0,0.328125 -0.6914063,0.328125 H 6.9248516 V -1.484375e-4 C 7.0537578,-0.01186719 7.9092266,-0.02358594 8.1670391,-0.02358594 c 0.2109375,0 1.0898437,0.01171875 1.2421875,0.0234375025 V -0.24624219 H 9.1514141 c -0.703125,0 -0.703125,-0.09375 -0.703125,-0.328125 z m 0,0"
         style="fill:#f79646;fill-opacity:1;fill-rule:nonzero;stroke:none"
         aria-label="+1"
         transform="matrix(1.3333333,0,0,1.3333333,186.99733,99.730667)"
         clip-path="url(#clipPath17)"
         id="path49" />
      <path
         d="m -8.41515,-6.31104 -10.75157,-8.06387"
         style="fill:none;stroke:#008000;stroke-width:1.19553;stroke-linecap:butt;stroke-linejoin:miter;stroke-miterlimit:10;stroke-dasharray:none;stroke-opacity:1"
         transform="matrix(1.3333333,0,0,-1.3333333,137.02933,31.146667)"
         clip-path="url(#clipPath18)"
         id="path50" />
      <path
         d="M -1.91284,2.55046 C -1.75343,1.59402 0,0.15938 0.4782,0 0,-0.15938 -1.75343,-1.59402 -1.91284,-2.55046"
         style="fill:none;stroke:#008000;stroke-width:0.9564;stroke-linecap:round;stroke-linejoin:round;stroke-miterlimit:10;stroke-dasharray:none;stroke-opacity:1"
         transform="matrix(-1.0666267,0.79998667,0.79998667,1.0666267,111.47371,50.313213)"
         clip-path="url(#clipPath19)"
         id="path51" />
      <path
         d="m 8.41515,-6.31104 10.75157,-8.06387"
         style="fill:none;stroke:#f79646;stroke-width:1.19553;stroke-linecap:butt;stroke-linejoin:miter;stroke-miterlimit:10;stroke-dasharray:none;stroke-opacity:1"
         transform="matrix(1.3333333,0,0,-1.3333333,137.02933,31.146667)"
         clip-path="url(#clipPath20)"
         id="path52" />
      <path
         d="M -1.91284,2.55046 C -1.75343,1.59402 0,0.15938 0.4782,0 0,-0.15938 -1.75343,-1.59402 -1.91284,-2.55046"
         style="fill:none;stroke:#f79646;stroke-width:0.9564;stroke-linecap:round;stroke-linejoin:round;stroke-miterlimit:10;stroke-dasharray:none;stroke-opacity:1"
         transform="matrix(1.0666267,0.79998667,0.79998667,-1.0666267,162.58496,50.313213)"
         clip-path="url(#clipPath21)"
         id="path53" />
      <path
         d="m -33.05066,-30.668 -4.19316,-8.38586"
         style="fill:none;stroke:#008000;stroke-width:1.19553;stroke-linecap:butt;stroke-linejoin:miter;stroke-miterlimit:10;stroke-dasharray:none;stroke-opacity:1"
         transform="matrix(1.3333333,0,0,-1.3333333,137.02933,31.146667)"
         clip-path="url(#clipPath22)"
         id="path54" />
      <path
         d="M -1.91284,2.55046 C -1.75343,1.59402 0,0.15938 0.4782,0 0,-0.15938 -1.75343,-1.59402 -1.91284,-2.55046"
         style="fill:none;stroke:#008000;stroke-width:0.9564;stroke-linecap:round;stroke-linejoin:round;stroke-miterlimit:10;stroke-dasharray:none;stroke-opacity:1"
         transform="matrix(-0.59626667,1.1925067,1.1925067,0.59626667,87.370907,83.218467)"
         clip-path="url(#clipPath23)"
         id="path55" />
      <path
         d="m -23.64294,-30.668 4.33799,-8.67563"
         style="fill:none;stroke:#f96565;stroke-width:1.19553;stroke-linecap:butt;stroke-linejoin:miter;stroke-miterlimit:10;stroke-dasharray:none;stroke-opacity:1"
         transform="matrix(1.3333333,0,0,-1.3333333,137.02933,31.146667)"
         clip-path="url(#clipPath24)"
         id="path56" />
      <path
         d="M -1.91284,2.55046 C -1.75343,1.59402 0,0.15938 0.4782,0 0,-0.15938 -1.75343,-1.59402 -1.91284,-2.55046"
         style="fill:none;stroke:#f96565;stroke-width:0.9564;stroke-linecap:round;stroke-linejoin:round;stroke-miterlimit:10;stroke-dasharray:none;stroke-opacity:1"
         transform="matrix(0.59626667,1.1925067,1.1925067,-0.59626667,111.2894,83.604813)"
         clip-path="url(#clipPath25)"
         id="path57" />
      <path
         d="m 23.64294,-30.668 -4.33799,-8.67563"
         style="fill:none;stroke:#f96565;stroke-width:1.19553;stroke-linecap:butt;stroke-linejoin:miter;stroke-miterlimit:10;stroke-dasharray:none;stroke-opacity:1"
         transform="matrix(1.3333333,0,0,-1.3333333,137.02933,31.146667)"
         clip-path="url(#clipPath26)"
         id="path58" />
      <path
         d="M -1.91284,2.55046 C -1.75343,1.59402 0,0.15938 0.4782,0 0,-0.15938 -1.75343,-1.59402 -1.91284,-2.55046"
         style="fill:none;stroke:#f96565;stroke-width:0.9564;stroke-linecap:round;stroke-linejoin:round;stroke-miterlimit:10;stroke-dasharray:none;stroke-opacity:1"
         transform="matrix(-0.59626667,1.1925067,1.1925067,0.59626667,162.76927,83.604813)"
         clip-path="url(#clipPath27)"
         id="path59" />
      <path
         d="m 33.05066,-30.668 4.19316,-8.38586"
         style="fill:none;stroke:#f79646;stroke-width:1.19553;stroke-linecap:butt;stroke-linejoin:miter;stroke-miterlimit:10;stroke-dasharray:none;stroke-opacity:1"
         transform="matrix(1.3333333,0,0,-1.3333333,137.02933,31.146667)"
         clip-path="url(#clipPath28)"
         id="path60" />
      <path
         d="M -1.91284,2.55046 C -1.75343,1.59402 0,0.15938 0.4782,0 0,-0.15938 -1.75343,-1.59402 -1.91284,-2.55046"
         style="fill:none;stroke:#f79646;stroke-width:0.9564;stroke-linecap:round;stroke-linejoin:round;stroke-miterlimit:10;stroke-dasharray:none;stroke-opacity:1"
         transform="matrix(0.59626667,1.1925067,1.1925067,-0.59626667,186.68776,83.218467)"
         clip-path="url(#clipPath29)"
         id="path61" />
      <path
         d="m 52.1958,-54.46997 c 2.3272,-3.31039 1.53015,-7.88051 -1.78024,-10.2077 -3.3104,-2.3272 -7.88051,-1.53015 -10.2077,1.78024 -0.6204,0.88249 -1.0387,1.89235 -1.05982,2.01288"
         style="fill:none;stroke:#f79646;stroke-width:1.19553;stroke-linecap:butt;stroke-linejoin:miter;stroke-miterlimit:10;stroke-dasharray:none;stroke-opacity:1"
         transform="matrix(1.3333333,0,0,-1.3333333,137.02933,31.146667)"
         clip-path="url(#clipPath30)"
         id="path62" />
      <path
         d="M -1.91284,2.55046 C -1.75343,1.59402 0,0.15938 0.4782,0 0,-0.15938 -1.75343,-1.59402 -1.91284,-2.55046"
         style="fill:none;stroke:#f79646;stroke-width:0.9564;stroke-linecap:round;stroke-linejoin:round;stroke-miterlimit:10;stroke-dasharray:none;stroke-opacity:1"
         transform="matrix(-0.22892,-1.31352,-1.31352,0.22892,189.22675,112.32609)"
         clip-path="url(#clipPath31)"
         id="path63" />
      <path
         d="m 23.73178,-53.96599 c 2.08783,-3.4664 0.97028,-7.96889 -2.49612,-10.05671 -2.24208,-1.35041 -5.03516,-1.4021 -7.32569,-0.13561 -1.78274,0.98572 -3.07517,2.66998 -3.3356,3.71887"
         style="fill:none;stroke:#f96565;stroke-width:1.19553;stroke-linecap:butt;stroke-linejoin:miter;stroke-miterlimit:10;stroke-dasharray:none;stroke-opacity:1"
         transform="matrix(1.3333333,0,0,-1.3333333,137.02933,31.146667)"
         clip-path="url(#clipPath32)"
         id="path64" />
      <path
         d="M -1.91284,2.55046 C -1.75343,1.59402 0,0.15938 0.4782,0 0,-0.15938 -1.75343,-1.59402 -1.91284,-2.55046"
         style="fill:none;stroke:#f96565;stroke-width:0.9564;stroke-linecap:round;stroke-linejoin:round;stroke-miterlimit:10;stroke-dasharray:none;stroke-opacity:1"
         transform="matrix(-0.32102667,-1.2940667,-1.2940667,0.32102667,151.12852,111.73259)"
         clip-path="url(#clipPath33)"
         id="path65" />
      <path
         d="m -4.61499,-53.96599 c 2.08781,-3.4664 0.97026,-7.96889 -2.49614,-10.05671 -2.24208,-1.35041 -5.03516,-1.4021 -7.32568,-0.13561 -1.78273,0.98572 -3.07519,2.66998 -3.33561,3.71887"
         style="fill:none;stroke:#f96565;stroke-width:1.19553;stroke-linecap:butt;stroke-linejoin:miter;stroke-miterlimit:10;stroke-dasharray:none;stroke-opacity:1"
         transform="matrix(1.3333333,0,0,-1.3333333,137.02933,31.146667)"
         clip-path="url(#clipPath34)"
         id="path66" />
      <path
         d="M -1.91284,2.55046 C -1.75343,1.59402 0,0.15938 0.4782,0 0,-0.15938 -1.75343,-1.59402 -1.91284,-2.55046"
         style="fill:none;stroke:#f96565;stroke-width:0.9564;stroke-linecap:round;stroke-linejoin:round;stroke-miterlimit:10;stroke-dasharray:none;stroke-opacity:1"
         transform="matrix(-0.32102667,-1.2940667,-1.2940667,0.32102667,113.3328,111.73259)"
         clip-path="url(#clipPath35)"
         id="path67" />
    </g>
    <g
       id="g68"
       aria-label="π&#10;1"
       transform="matrix(1.3333333,0,0,1.3333333,73.365333,133.90133)">
      <path
         id="path68"
         d="m 2.2631094,-2.9054922 h 0.9140625 c -0.1640625,0.7265625 -0.3046875,1.3125 -0.3046875,1.8984375 0,0.0585938 0,0.39843751 0.082031,0.69140626 0.1054688,0.328125 0.1875,0.3984375 0.328125,0.3984375 0.1757813,0 0.3632813,-0.15234375 0.3632813,-0.33984375 0,-0.0585938 -0.011719,-0.0820313 -0.046875,-0.15234375 -0.1640625,-0.36328125 -0.28125,-0.74999996 -0.28125,-1.39453126 0,-0.1875 0,-0.5273437 0.1171875,-1.1015625 h 0.9609375 c 0.1289062,0 0.2226562,0 0.3046875,-0.070312 0.09375,-0.082031 0.1171875,-0.1875 0.1171875,-0.234375 0,-0.2226562 -0.1992188,-0.2226562 -0.3398438,-0.2226562 H 1.6068594 c -0.1757813,0 -0.46875,0 -0.86718752,0.3867187 -0.28125,0.28125 -0.50390625,0.6445313 -0.50390625,0.703125 0,0.070312 0.046875,0.09375 0.1171875,0.09375 0.0820313,0 0.09375,-0.023437 0.140625,-0.082031 0.38671875,-0.5742188 0.86718747,-0.5742188 1.04296877,-0.5742188 h 0.46875 c -0.234375,0.84375 -0.65625,1.8046875 -0.9492188,2.39062501 -0.0585937,0.1171875 -0.14062497,0.28125 -0.14062497,0.3515625 0,0.1640625025 0.14062497,0.24609375 0.26953127,0.24609375 0.2929687,0 0.375,-0.3046875 0.5507812,-0.9609375 z m 0,0"
         style="fill:#f79646;fill-opacity:1;fill-rule:nonzero;stroke:none" />
      <path
         id="path69"
         d="m 7.0062734,-2.6886953 c 0,-0.1757813 -0.023437,-0.1757813 -0.1992187,-0.1757813 -0.3984375,0.375 -1.0078125,0.375 -1.21875,0.375 v 0.234375 c 0.1523437,0 0.5507812,0 0.9023437,-0.1640625 v 3.02343754 c 0,0.1875 0,0.26953125 -0.609375,0.26953125 H 5.6234609 V 1.1081797 c 0.328125,-0.023437 0.796875,-0.023437 1.125,-0.023437 0.3398438,0 0.796875,0 1.1367188,0.023437 V 0.87380469 H 7.6273672 c -0.6210938,0 -0.6210938,-0.0820313 -0.6210938,-0.26953125 z m 0,0"
         style="fill:#f79646;fill-opacity:1;fill-rule:nonzero;stroke:none" />
    </g>
    <g
       id="g69"
       aria-label="=argmax&#10;π∈Π&#10;J(π,f&#10;1&#10;)&#10;f&#10;2"
       transform="matrix(1.3333333,0,0,1.3333333,88.52,133.90133)">
      <path
         id="path70"
         d="m 5.8238672,-2.6476797 c 0.1171875,0 0.28125,0 0.28125,-0.1875 0,-0.1875 -0.1875,-0.1875 -0.3164063,-0.1875 H 0.78480469 c -0.12890625,0 -0.31640625,0 -0.31640625,0.1875 0,0.1875 0.1640625,0.1875 0.28125,0.1875 z m -0.035156,1.68750001 c 0.1289063,0 0.3164063,0 0.3164063,-0.18750001 0,-0.1875 -0.1640625,-0.1875 -0.28125,-0.1875 H 0.74964844 c -0.1171875,0 -0.28125,0 -0.28125,0.1875 0,0.18750001 0.1875,0.18750001 0.31640625,0.18750001 z M 12.289687,-2.3781484 c 0,-0.7734375 -0.761718,-1.171875 -1.488281,-1.171875 -0.65625,0 -1.253906,0.2460937 -1.253906,0.7734375 0,0.2460937 0.1757813,0.3867187 0.375,0.3867187 0.222656,0 0.375,-0.1640625 0.375,-0.375 0,-0.1875 -0.117188,-0.328125 -0.292969,-0.3632812 0.292969,-0.1992188 0.726563,-0.1992188 0.785156,-0.1992188 0.445313,0 0.890625,0.3046875 0.890625,0.9609375 v 0.2460938 c -0.46875,0.023437 -0.996093,0.046875 -1.558593,0.28125 -0.7031252,0.3046875 -0.8320315,0.7617187 -0.8320315,1.03124996 0,0.6796875 0.8085935,0.890625 1.3593745,0.890625 0.574219,0 0.9375,-0.328125 1.113282,-0.64453125 0.03516,0.3046875 0.246093,0.59765625 0.597656,0.59765625 0.08203,0 0.75,-0.0234375 0.75,-0.75 V -1.1593984 h -0.246094 v 0.44531246 c 0,0.328125 -0.117187,0.45703125 -0.28125,0.45703125 -0.292969,0 -0.292969,-0.375 -0.292969,-0.45703125 z m -0.609375,1.2539062 c 0,0.77343751 -0.65625,0.98437501 -0.972656,0.98437501 -0.410156,0 -0.7617185,-0.28125 -0.7617185,-0.66796875 0,-0.52734376 0.4921875,-1.06640626 1.7343745,-1.10156246 z m 2.956055,-0.6914062 c 0,-0.5976563 0.246094,-1.453125 1.007813,-1.4765625 -0.04687,0.035156 -0.117188,0.09375 -0.117188,0.28125 0,0.2460937 0.1875,0.3632812 0.351563,0.3632812 0.1875,0 0.351562,-0.1289062 0.351562,-0.3632812 0,-0.28125 -0.257812,-0.5039063 -0.609375,-0.5039063 -0.515625,0 -0.867187,0.3867188 -1.03125,0.84375 h -0.01172 v -0.84375 l -1.125,0.09375 v 0.2578125 c 0.539063,0 0.597657,0.058594 0.597657,0.4453125 v 2.09765626 c 0,0.36328125 -0.09375,0.36328125 -0.597657,0.36328125 V 7.578125e-4 c 0.304688,-0.0234375025 0.75,-0.0234375025 0.9375,-0.0234375025 0.46875,0 0.492188,0 1.007813,0.0234375025 V -0.25705469 h -0.164063 c -0.585937,0 -0.597656,-0.09375 -0.597656,-0.375 z m 3.219727,1.26562496 c -0.246094,-0.0234375 -0.445313,-0.234375 -0.445313,-0.52734376 0,-0.1875 0.04687,-0.2578125 0.09375,-0.328125 0.339844,0.1992188 0.644531,0.234375 0.84375,0.234375 0.785156,0 1.371094,-0.5507812 1.371094,-1.171875 0,-0.3046875 -0.140625,-0.5625 -0.328125,-0.7617187 0.105469,-0.09375 0.375,-0.2695313 0.761719,-0.2695313 -0.03516,0.023437 -0.07031,0.058594 -0.07031,0.1875 0,0.140625 0.105469,0.2460938 0.246094,0.2460938 0.117187,0 0.246094,-0.070312 0.246094,-0.2578125 0,-0.1289063 -0.105469,-0.3984375 -0.457032,-0.3984375 -0.128906,0 -0.515625,0.023437 -0.878906,0.3632812 -0.199219,-0.140625 -0.515625,-0.28125 -0.890625,-0.28125 -0.785156,0 -1.359375,0.5507813 -1.359375,1.171875 0,0.375 0.199219,0.65625 0.363281,0.8085938 -0.164062,0.1992187 -0.234375,0.4570312 -0.234375,0.65624996 0,0.31640625 0.164063,0.5625 0.339844,0.703125 -0.421875,0.1171875 -0.75,0.421875 -0.75,0.78515625 0,0.57421879 0.820313,1.01953129 1.875,1.01953129 0.996094,0 1.875,-0.3984375 1.875,-1.03125004 0,-0.43359375 -0.257812,-0.76171875 -0.515625,-0.90234375 -0.46875,-0.24609375 -0.867187,-0.24609375 -1.640625,-0.24609375 z m 0.492187,-0.85546876 c -0.738281,0 -0.738281,-0.7617187 -0.738281,-0.9375 0,-0.2929687 0.04687,-0.5039062 0.164062,-0.65625 0.128907,-0.1875 0.351563,-0.28125 0.574219,-0.28125 0.738281,0 0.738281,0.7617188 0.738281,0.9375 0,0.2929688 -0.03516,0.5039063 -0.164062,0.6679688 -0.175781,0.2226562 -0.421875,0.2695312 -0.574219,0.2695312 z m 0.375,1.37109376 c 0.222656,0 1.265625,0 1.265625,0.64453125 0,0.42187499 -0.609375,0.79687499 -1.40625,0.79687499 -0.796875,0 -1.394531,-0.375 -1.394531,-0.79687499 0,-0.17578125 0.117187,-0.64453125 0.773437,-0.64453125 z m 8.326172,-2.37890626 c 0,-0.6445312 -0.28125,-1.1015625 -1.148437,-1.1015625 -0.726563,0 -1.101563,0.5039063 -1.230469,0.7382813 -0.140625,-0.5742188 -0.597656,-0.7382813 -1.113281,-0.7382813 -0.773438,0 -1.136719,0.5507813 -1.242188,0.7617188 h -0.01172 v -0.7617188 l -1.148437,0.09375 v 0.2578125 c 0.539062,0 0.609375,0.058594 0.609375,0.4453125 v 2.09765626 c 0,0.36328125 -0.105469,0.36328125 -0.609375,0.36328125 V 7.578125e-4 C 21.494766,-0.02267969 21.846328,-0.02267969 22.057266,-0.02267969 c 0.234375,0 0.574218,0 0.914062,0.0234375025 V -0.25705469 c -0.515625,0 -0.609375,0 -0.609375,-0.36328125 V -2.0617422 c 0,-0.84375 0.632813,-1.2304687 1.136719,-1.2304687 0.515625,0 0.597656,0.4101562 0.597656,0.84375 v 1.82812496 c 0,0.36328125 -0.09375,0.36328125 -0.597656,0.36328125 V 7.578125e-4 C 23.838516,-0.02267969 24.190078,-0.02267969 24.401016,-0.02267969 c 0.234375,0 0.574218,0 0.914062,0.0234375025 V -0.25705469 c -0.515625,0 -0.609375,0 -0.609375,-0.36328125 V -2.0617422 c 0,-0.84375 0.632813,-1.2304687 1.136719,-1.2304687 0.515625,0 0.597656,0.4101562 0.597656,0.84375 v 1.82812496 c 0,0.36328125 -0.09375,0.36328125 -0.597656,0.36328125 V 7.578125e-4 C 26.182266,-0.02267969 26.533828,-0.02267969 26.744766,-0.02267969 c 0.234375,0 0.574218,0 0.914062,0.0234375025 V -0.25705469 c -0.515625,0 -0.609375,0 -0.609375,-0.36328125 z m 4.186524,0.035156 c 0,-0.7734375 -0.761719,-1.171875 -1.488282,-1.171875 -0.65625,0 -1.253906,0.2460937 -1.253906,0.7734375 0,0.2460937 0.175781,0.3867187 0.375,0.3867187 0.222656,0 0.375,-0.1640625 0.375,-0.375 0,-0.1875 -0.117187,-0.328125 -0.292969,-0.3632812 0.292969,-0.1992188 0.726563,-0.1992188 0.785157,-0.1992188 0.445312,0 0.890625,0.3046875 0.890625,0.9609375 v 0.2460938 c -0.46875,0.023437 -0.996094,0.046875 -1.558594,0.28125 -0.703125,0.3046875 -0.832031,0.7617187 -0.832031,1.03124996 0,0.6796875 0.808593,0.890625 1.359375,0.890625 0.574218,0 0.9375,-0.328125 1.113281,-0.64453125 0.03516,0.3046875 0.246094,0.59765625 0.597656,0.59765625 0.08203,0 0.75,-0.0234375 0.75,-0.75 V -1.1593984 h -0.246094 v 0.44531246 c 0,0.328125 -0.117187,0.45703125 -0.28125,0.45703125 -0.292968,0 -0.292968,-0.375 -0.292968,-0.45703125 z m -0.609375,1.2539062 c 0,0.77343751 -0.65625,0.98437501 -0.972657,0.98437501 -0.410156,0 -0.761718,-0.28125 -0.761718,-0.66796875 0,-0.52734376 0.492187,-1.06640626 1.734375,-1.10156246 z m 3.940429,-0.7382812 c 0.222656,-0.28125 0.457031,-0.5507813 0.703125,-0.8085938 0.257813,-0.28125 0.539063,-0.4921875 1.042969,-0.5039062 v -0.2578125 c -0.316406,0.023437 -0.328125,0.023437 -0.691406,0.023437 -0.03516,0 -0.503907,0 -0.75,-0.023437 v 0.2578125 c 0.152343,0.023437 0.175781,0.1171875 0.175781,0.2226562 0,0.1054688 -0.03516,0.1992188 -0.128906,0.3046875 l -0.503907,0.5976563 -0.632812,-0.75 c -0.09375,-0.1171875 -0.09375,-0.1757813 -0.09375,-0.1875 0,-0.058594 0.04687,-0.1757813 0.246094,-0.1875 v -0.2578125 c -0.316407,0.023437 -0.761719,0.023437 -0.855469,0.023437 -0.140625,0 -0.550781,0 -0.785156,-0.023437 v 0.2578125 c 0.539062,0 0.550781,0.011719 0.960937,0.5039062 l 0.820313,0.9960938 -0.726563,0.84374996 c -0.199219,0.22265625 -0.492187,0.55078125 -1.089844,0.57421875 V 7.578125e-4 C 32.551406,-0.02267969 32.598281,-0.02267969 32.938125,-0.02267969 c 0.01172,0 0.503906,0 0.761719,0.0234375025 V -0.25705469 c -0.105469,-0.0234375 -0.199219,-0.0820313 -0.199219,-0.22265625 0,-0.140625 0.09375,-0.2578125 0.128906,-0.29296875 0.199219,-0.23437501 0.410156,-0.48046871 0.621094,-0.70312501 l 0.644531,0.77343751 c 0.164063,0.1875 0.164063,0.19921875 0.164063,0.2578125 0,0.0585938 -0.05859,0.17578125 -0.246094,0.1875 V 7.578125e-4 C 35.152969,-0.02267969 35.51625,-0.02267969 35.668594,-0.02267969 c 0.140625,0 0.550781,0 0.785156,0.0234375025 V -0.25705469 c -0.492188,0 -0.574219,-0.046875 -0.785156,-0.29296875 z m 0,0"
         style="fill:#000000;fill-opacity:1;fill-rule:nonzero;stroke:none" />
      <path
         id="path71"
         d="m 38.61293,-0.10764062 h 0.738281 c -0.128906,0.52734375 -0.199219,0.9140625 -0.199219,1.31250002 0,0.3046875 0.08203,0.9023437 0.363281,0.9023437 0.152344,0 0.292969,-0.140625 0.292969,-0.2695312 0,-0.058594 -0.03516,-0.1054688 -0.04687,-0.140625 C 39.538716,1.3103281 39.50356,0.92360938 39.50356,0.61892188 c 0,-0.09375 0,-0.3515625 0.08203,-0.7265625 h 0.785156 c 0.07031,0 0.328125,0 0.328125,-0.24609375 0,-0.17578125 -0.164062,-0.17578125 -0.269531,-0.17578125 h -2.37891 c -0.117188,0 -0.386719,0 -0.703125,0.3046875 -0.1875,0.1640625 -0.398438,0.45703125 -0.398438,0.515625 0,0.0820313 0.08203,0.0820313 0.105469,0.0820313 0.05859,0 0.07031,-0.0117188 0.117187,-0.0585938 0.105469,-0.15234375 0.339844,-0.421875 0.820313,-0.421875 h 0.398437 c -0.210937,0.75 -0.621093,1.54687502 -0.691406,1.71093752 -0.05859,0.09375 -0.128906,0.2460937 -0.128906,0.3046875 0,0.1171875 0.09375,0.1992187 0.210937,0.1992187 0.210938,0 0.28125,-0.2109375 0.351563,-0.3984375 0.117187,-0.375 0.117187,-0.3867187 0.199219,-0.71484372 z m 0,0"
         style="fill:#000000;fill-opacity:1;fill-rule:nonzero;stroke:none" />
      <path
         id="path72"
         d="m 45.128555,0.71267188 c 0.09375,0 0.246093,0 0.246093,-0.15234375 0,-0.1640625 -0.152343,-0.1640625 -0.246093,-0.1640625 h -2.917969 c 0.08203,-0.87890625 0.855469,-1.55859373 1.816406,-1.55859373 h 1.101563 c 0.09375,0 0.246093,0 0.246093,-0.1523438 0,-0.1523437 -0.152343,-0.1523437 -0.246093,-0.1523437 h -1.113282 c -1.148437,0 -2.121093,0.87890623 -2.121093,2.02734373 0,1.13671877 0.972656,2.01562497 2.121093,2.01562497 h 1.113282 c 0.09375,0 0.246093,0 0.246093,-0.1523437 0,-0.1523438 -0.152343,-0.1523438 -0.246093,-0.1523438 h -1.101563 c -0.960937,0 -1.734375,-0.6796875 -1.816406,-1.55859372 z m 0,0"
         style="fill:#000000;fill-opacity:1;fill-rule:nonzero;stroke:none" />
      <path
         id="path73"
         d="m 50.448867,-1.5021719 c 0,-0.1992187 0,-0.2695312 0.480469,-0.2695312 h 0.152344 v -0.234375 h -4.570313 v 0.234375 h 0.152344 c 0.480469,0 0.480469,0.070312 0.480469,0.2695312 v 3.046875 c 0,0.1992188 0,0.2695313 -0.480469,0.2695313 h -0.152344 v 0.234375 c 0.08203,-0.011719 0.679688,-0.023437 0.9375,-0.023437 0.246094,0 0.832031,0.011719 0.925781,0.023437 v -0.234375 h -0.152343 c -0.480469,0 -0.480469,-0.070312 -0.480469,-0.2695313 v -3.3164062 h 2.109375 v 3.3164062 c 0,0.1992188 0,0.2695313 -0.480469,0.2695313 h -0.152344 v 0.234375 c 0.08203,-0.011719 0.679688,-0.023437 0.9375,-0.023437 0.246094,0 0.832032,0.011719 0.925782,0.023437 v -0.234375 h -0.152344 c -0.480469,0 -0.480469,-0.070312 -0.480469,-0.2695313 z m 0,0"
         style="fill:#000000;fill-opacity:1;fill-rule:nonzero;stroke:none" />
      <path
         id="path74"
         d="m 57.893203,-4.8390859 c 0.07031,-0.28125 0.08203,-0.3398438 0.492188,-0.3398438 0.117187,0 0.222656,0 0.222656,-0.1523437 0,-0.011719 -0.01172,-0.1054688 -0.117188,-0.1054688 -0.05859,0 -0.152343,0.023437 -0.925781,0.023437 -0.175781,0 -0.503906,0 -0.550781,-0.011719 -0.09375,-0.011719 -0.46875,-0.011719 -0.574219,-0.011719 -0.04687,0 -0.164062,0 -0.164062,0.140625 0,0.1171875 0.09375,0.1171875 0.28125,0.1171875 0.01172,0 0.210937,0 0.410156,0.011719 0.222656,0.023437 0.269531,0.046875 0.269531,0.1523437 0,0.023437 -0.01172,0.035156 -0.03516,0.140625 l -0.925781,3.703125 c -0.152344,0.65625001 -0.679688,1.11328126 -1.148438,1.11328126 -0.175781,0 -0.621094,-0.046875 -0.785156,-0.421875 0.5625,0 0.585937,-0.46875 0.585937,-0.50390625 0,-0.22265621 -0.175781,-0.35156251 -0.363281,-0.35156251 -0.1875,0 -0.527344,0.1523438 -0.527344,0.62109376 0,0.50390625 0.433594,0.87890625 1.113282,0.87890625 0.75,0 1.617187,-0.50390625 1.816406,-1.30078121 z m 0,0"
         style="fill:#000000;fill-opacity:1;fill-rule:nonzero;stroke:none" />
      <path
         id="path75"
         d="m 61.414687,1.9929453 c 0.07031,0 0.164063,0 0.164063,-0.09375 0,-0.035156 -0.01172,-0.046875 -0.105469,-0.140625 -1.101562,-1.03124999 -1.371094,-2.51953124 -1.371094,-3.75 0,-2.296875 0.949219,-3.375 1.359375,-3.7382812 0.105469,-0.1054688 0.117188,-0.1054688 0.117188,-0.1523438 0,-0.035156 -0.03516,-0.09375 -0.105469,-0.09375 -0.128906,0 -0.527344,0.4101563 -0.597656,0.4804688 -1.066406,1.1132812 -1.289063,2.5429687 -1.289063,3.5039062 0,1.78125001 0.75,3.2226563 1.828125,3.984375 z m 0,0"
         style="fill:#000000;fill-opacity:1;fill-rule:nonzero;stroke:none" />
      <path
         id="path76"
         d="M 64.320937,-2.9054922 H 65.235 c -0.164063,0.7265625 -0.304688,1.3125 -0.304688,1.8984375 0,0.0585938 0,0.39843751 0.08203,0.69140626 0.105468,0.328125 0.1875,0.3984375 0.328125,0.3984375 0.175781,0 0.363281,-0.15234375 0.363281,-0.33984375 0,-0.0585938 -0.01172,-0.0820313 -0.04687,-0.15234375 -0.164063,-0.36328125 -0.28125,-0.74999996 -0.28125,-1.39453126 0,-0.1875 0,-0.5273437 0.117187,-1.1015625 h 0.960938 c 0.128906,0 0.222656,0 0.304687,-0.070312 0.09375,-0.082031 0.117188,-0.1875 0.117188,-0.234375 0,-0.2226562 -0.199219,-0.2226562 -0.339844,-0.2226562 H 63.66469 c -0.175781,0 -0.46875,0 -0.867187,0.3867187 -0.28125,0.28125 -0.503906,0.6445313 -0.503906,0.703125 0,0.070312 0.04687,0.09375 0.117187,0.09375 0.08203,0 0.09375,-0.023437 0.140625,-0.082031 0.386719,-0.5742188 0.867188,-0.5742188 1.042969,-0.5742188 h 0.46875 c -0.234375,0.84375 -0.65625,1.8046875 -0.949219,2.39062501 -0.05859,0.1171875 -0.140625,0.28125 -0.140625,0.3515625 0,0.1640625025 0.140625,0.24609375 0.269531,0.24609375 0.292969,0 0.375,-0.3046875 0.550782,-0.9609375 z m 4.376954,2.78906251 c 0,0.515625 -0.105469,0.97265625 -0.609375,1.46484379 -0.02344,0.023437 -0.04687,0.035156 -0.04687,0.082031 0,0.058594 0.07031,0.1054688 0.128906,0.1054688 0.09375,0 0.75,-0.62109379 0.75,-1.55859379 0,-0.515625 -0.1875,-0.85546875 -0.539063,-0.85546875 -0.28125,0 -0.433593,0.22265625 -0.433593,0.43359375 0,0.22265625 0.140625,0.4453125025 0.445312,0.4453125025 0.1875,0 0.304688,-0.1171875025 0.304688,-0.1171875025 z m 5.320312,-3.05859371 h 0.75 c 0.152344,0 0.246094,0 0.246094,-0.1523438 0,-0.1054687 -0.09375,-0.1054687 -0.234375,-0.1054687 h -0.703125 c 0.117187,-0.7148438 0.199219,-1.171875 0.28125,-1.5351563 0.03516,-0.1289062 0.05859,-0.2226562 0.175781,-0.3164062 0.105469,-0.082031 0.164063,-0.1054688 0.257813,-0.1054688 0.117187,0 0.246093,0.023437 0.351562,0.09375 -0.04687,0.011719 -0.09375,0.035156 -0.128906,0.058594 -0.140625,0.070312 -0.234375,0.2226562 -0.234375,0.375 0,0.1875 0.140625,0.2929687 0.316406,0.2929687 0.234375,0 0.445313,-0.1992187 0.445313,-0.46875 0,-0.375 -0.375,-0.5742187 -0.761719,-0.5742187 -0.269531,0 -0.773438,0.1289062 -1.03125,0.8671875 -0.07031,0.1757812 -0.07031,0.1992187 -0.28125,1.3125 h -0.597656 c -0.164063,0 -0.257813,0 -0.257813,0.1523437 0,0.1054688 0.105469,0.1054688 0.234375,0.1054688 h 0.574219 l -0.574219,3.09374996 C 72.693984,0.72732051 72.576797,1.407008 72.154922,1.407008 c -0.02344,0 -0.199219,0 -0.351563,-0.09375 0.375,-0.09375 0.375,-0.43359374 0.375,-0.43359374 0,-0.1875 -0.152343,-0.29296875 -0.328125,-0.29296875 -0.210937,0 -0.445312,0.17578125 -0.445312,0.48046879 0,0.3398437 0.351562,0.5625 0.75,0.5625 0.480469,0 0.820312,-0.515625 0.925781,-0.71484379 0.28125,-0.52734375 0.46875,-1.5234375 0.480469,-1.59375 z m 0,0"
         style="fill:#000000;fill-opacity:1;fill-rule:nonzero;stroke:none" />
      <path
         id="path77"
         d="m 77.185195,-2.6886953 c 0,-0.1757813 -0.02344,-0.1757813 -0.199218,-0.1757813 -0.398438,0.375 -1.007813,0.375 -1.21875,0.375 v 0.234375 c 0.152343,0 0.550781,0 0.902343,-0.1640625 v 3.02343754 c 0,0.1875 0,0.26953125 -0.609375,0.26953125 H 75.802383 V 1.1081797 c 0.328125,-0.023437 0.796875,-0.023437 1.125,-0.023437 0.339844,0 0.796875,0 1.136719,0.023437 V 0.87380469 h -0.257813 c -0.621094,0 -0.621094,-0.0820313 -0.621094,-0.26953125 z m 0,0"
         style="fill:#000000;fill-opacity:1;fill-rule:nonzero;stroke:none" />
      <path
         id="path78"
         d="m 81.652969,-1.9914297 c 0,-0.7617187 -0.128907,-1.6640625 -0.621094,-2.6015625 -0.386719,-0.7382812 -1.113281,-1.3828125 -1.253906,-1.3828125 -0.08203,0 -0.105469,0.058594 -0.105469,0.09375 0,0.035156 0,0.046875 0.09375,0.140625 1.113281,1.0664063 1.371094,2.5195313 1.371094,3.75 0,2.28515626 -0.949219,3.375 -1.359375,3.7382813 C 79.6725,1.8523203 79.6725,1.8523203 79.6725,1.8991953 c 0,0.035156 0.02344,0.09375 0.105469,0.09375 0.128906,0 0.527343,-0.4101562 0.585937,-0.4804687 1.066406,-1.11328129 1.289063,-2.5429688 1.289063,-3.5039063 z m 0,0"
         style="fill:#000000;fill-opacity:1;fill-rule:nonzero;stroke:none" />
      <path
         id="path79"
         d="m 174.94887,-97.490453 h 0.85547 c 0.19921,0 0.30468,0 0.30468,-0.199219 0,-0.105469 -0.10547,-0.105469 -0.26953,-0.105469 h -0.83203 l 0.21094,-1.136718 c 0.0351,-0.210938 0.17578,-0.914063 0.23437,-1.042969 0.0937,-0.187502 0.25782,-0.339842 0.46875,-0.339842 0.0469,0 0.30469,0 0.49219,0.1875 -0.43359,0.0352 -0.53906,0.386717 -0.53906,0.539061 0,0.222656 0.17578,0.339843 0.36328,0.339843 0.26953,0 0.55078,-0.210937 0.55078,-0.597656 0,-0.457028 -0.45703,-0.679688 -0.86719,-0.679688 -0.33984,0 -0.96093,0.17578 -1.26562,1.160157 -0.0586,0.210937 -0.082,0.316406 -0.32813,1.570312 h -0.67968 c -0.19922,0 -0.30469,0 -0.30469,0.1875 0,0.117188 0.0937,0.117188 0.28125,0.117188 h 0.65625 l -0.75,3.9375 c -0.17578,0.960937 -0.33985,1.875 -0.86719,1.875 -0.0352,0 -0.28125,0 -0.46875,-0.1875 0.45703,-0.02344 0.53906,-0.386719 0.53906,-0.539063 0,-0.222656 -0.17578,-0.339843 -0.36328,-0.339843 -0.25781,0 -0.55078,0.210937 -0.55078,0.597656 0,0.445312 0.43359,0.679687 0.84375,0.679687 0.55078,0 0.94922,-0.585937 1.125,-0.960937 0.32813,-0.632813 0.55078,-1.839844 0.5625,-1.910156 z m 0,0"
         style="fill:#000000;fill-opacity:1;fill-rule:nonzero;stroke:none" />
      <path
         id="path80"
         d="m 179.68617,-93.277562 h -0.23437 c -0.0234,0.152343 -0.082,0.5625 -0.17578,0.632812 -0.0586,0.03516 -0.59766,0.03516 -0.69141,0.03516 h -1.28906 c 0.73828,-0.644531 0.98437,-0.84375 1.39453,-1.171875 0.51562,-0.410156 0.99609,-0.84375 0.99609,-1.5 0,-0.84375 -0.73828,-1.359375 -1.6289,-1.359375 -0.86719,0 -1.45313,0.609375 -1.45313,1.242188 0,0.363281 0.30469,0.398437 0.375,0.398437 0.16406,0 0.375,-0.117187 0.375,-0.375 0,-0.128906 -0.0586,-0.363281 -0.42187,-0.363281 0.22265,-0.503906 0.6914,-0.65625 1.01953,-0.65625 0.70312,0 1.0664,0.550781 1.0664,1.113281 0,0.609375 -0.43359,1.089844 -0.65625,1.335938 l -1.6875,1.664062 c -0.0703,0.05859 -0.0703,0.07031 -0.0703,0.269532 h 2.88281 z m 0,0"
         style="fill:#000000;fill-opacity:1;fill-rule:nonzero;stroke:none" />
    </g>
    <g
       id="g144">
      <path
         d="M 9.92134,0 C 9.92134,5.47948 5.47948,9.92134 0,9.92134 -5.47948,9.92134 -9.92134,5.47948 -9.92134,0 c 0,-5.47948 4.44186,-9.92134 9.92134,-9.92134 5.47948,0 9.92134,4.44186 9.92134,9.92134 z"
         style="fill:none;stroke:#008000;stroke-width:1.19553;stroke-linecap:butt;stroke-linejoin:miter;stroke-miterlimit:10;stroke-dasharray:none;stroke-opacity:1"
         transform="matrix(1.3333333,0,0,-1.3333333,324.76667,31.146667)"
         clip-path="url(#clipPath81)"
         id="path113" />
      <path
         d="m 3.5984766,-2.2251641 c 0,-0.7617187 -0.09375,-1.3125 -0.4101563,-1.8046875 -0.2226562,-0.3164062 -0.6445312,-0.5976562 -1.2070312,-0.5976562 -1.61718754,0 -1.61718754,1.8984375 -1.61718754,2.4023437 0,0.5039063 0,2.36718754 1.61718754,2.36718754 1.6171875,0 1.6171875,-1.86328124 1.6171875,-2.36718754 z m -1.6171875,2.16796879 c -0.3164063,0 -0.75,-0.1875 -0.890625,-0.76171875 -0.09375,-0.41015624 -0.09375,-0.98437504 -0.09375,-1.50000004 0,-0.5039062 0,-1.03125 0.1054687,-1.4179687 0.1523438,-0.5507813 0.5976563,-0.6914063 0.8789063,-0.6914063 0.375,0 0.7382812,0.2226563 0.8671875,0.6328125 0.1054687,0.375 0.1171875,0.8789063 0.1171875,1.4765625 0,0.515625 0,1.0429688 -0.09375,1.47656254 -0.140625,0.6328125 -0.609375,0.78515625 -0.890625,0.78515625 z m 0,0"
         style="fill:#008000;fill-opacity:1;fill-rule:nonzero;stroke:none"
         aria-label="0"
         transform="matrix(1.3333333,0,0,1.3333333,322.12,34.142667)"
         clip-path="url(#clipPath82)"
         id="path114" />
      <path
         d="m -18.42546,-21.2601 c 0,5.47948 -4.44186,9.92134 -9.92134,9.92134 -5.47948,0 -9.92134,-4.44186 -9.92134,-9.92134 0,-5.47948 4.44186,-9.92134 9.92134,-9.92134 5.47948,0 9.92134,4.44186 9.92134,9.92134 z"
         style="fill:none;stroke:#008000;stroke-width:1.19553;stroke-linecap:butt;stroke-linejoin:miter;stroke-miterlimit:10;stroke-dasharray:none;stroke-opacity:1"
         transform="matrix(1.3333333,0,0,-1.3333333,324.76667,31.146667)"
         clip-path="url(#clipPath83)"
         id="path115" />
      <path
         d="m 3.5978203,-2.2273516 c 0,-0.7617187 -0.09375,-1.3125 -0.4101562,-1.8046875 -0.2226563,-0.3164062 -0.6445313,-0.5976562 -1.2070313,-0.5976562 -1.61718749,0 -1.61718749,1.8984375 -1.61718749,2.4023437 0,0.5039063 0,2.36718754 1.61718749,2.36718754 1.6171875,0 1.6171875,-1.86328124 1.6171875,-2.36718754 z m -1.6171875,2.16796879 c -0.3164062,0 -0.75,-0.1875 -0.890625,-0.76171875 -0.09375,-0.41015624 -0.09375,-0.98437504 -0.09375,-1.50000004 0,-0.5039062 0,-1.03125 0.1054688,-1.4179687 0.1523437,-0.5507813 0.5976562,-0.6914063 0.8789062,-0.6914063 0.375,0 0.7382813,0.2226563 0.8671875,0.6328125 0.1054688,0.375 0.1171875,0.8789063 0.1171875,1.4765625 0,0.515625 0,1.0429688 -0.09375,1.47656254 -0.140625,0.6328125 -0.609375,0.78515625 -0.890625,0.78515625 z m 0,0"
         style="fill:#008000;fill-opacity:1;fill-rule:nonzero;stroke:none"
         aria-label="0"
         transform="matrix(1.3333333,0,0,1.3333333,284.324,62.489333)"
         clip-path="url(#clipPath84)"
         id="path116" />
      <path
         d="m 38.26814,-21.2601 c 0,5.47948 -4.44186,9.92134 -9.92134,9.92134 -5.47948,0 -9.92134,-4.44186 -9.92134,-9.92134 0,-5.47948 4.44186,-9.92134 9.92134,-9.92134 5.47948,0 9.92134,4.44186 9.92134,9.92134 z"
         style="fill:none;stroke:#f79646;stroke-width:1.19553;stroke-linecap:butt;stroke-linejoin:miter;stroke-miterlimit:10;stroke-dasharray:none;stroke-opacity:1"
         transform="matrix(1.3333333,0,0,-1.3333333,324.76667,31.146667)"
         clip-path="url(#clipPath85)"
         id="path117" />
      <path
         d="m 3.5972031,-2.2273516 c 0,-0.7617187 -0.09375,-1.3125 -0.4101562,-1.8046875 -0.2226563,-0.3164062 -0.6445313,-0.5976562 -1.2070313,-0.5976562 -1.61718747,0 -1.61718747,1.8984375 -1.61718747,2.4023437 0,0.5039063 0,2.36718754 1.61718747,2.36718754 1.6171875,0 1.6171875,-1.86328124 1.6171875,-2.36718754 z m -1.6171875,2.16796879 c -0.3164062,0 -0.75,-0.1875 -0.890625,-0.76171875 -0.09375,-0.41015624 -0.09375,-0.98437504 -0.09375,-1.50000004 0,-0.5039062 0,-1.03125 0.1054688,-1.4179687 0.1523437,-0.5507813 0.5976562,-0.6914063 0.8789062,-0.6914063 0.375,0 0.7382813,0.2226563 0.8671875,0.6328125 0.1054688,0.375 0.1171875,0.8789063 0.1171875,1.4765625 0,0.515625 0,1.0429688 -0.09375,1.47656254 -0.140625,0.6328125 -0.609375,0.78515625 -0.890625,0.78515625 z m 0,0"
         style="fill:#f79646;fill-opacity:1;fill-rule:nonzero;stroke:none"
         aria-label="0"
         transform="matrix(1.3333333,0,0,1.3333333,359.91467,62.489333)"
         clip-path="url(#clipPath86)"
         id="path118" />
      <path
         d="m -32.27504,-49.6069 c 0,5.6583 -4.58686,10.24516 -10.24516,10.24516 -5.65831,0 -10.24517,-4.58686 -10.24517,-10.24516 0,-5.65831 4.58686,-10.24517 10.24517,-10.24517 5.6583,0 10.24516,4.58686 10.24516,10.24517 z"
         style="fill:none;stroke:#008000;stroke-width:1.19553;stroke-linecap:butt;stroke-linejoin:miter;stroke-miterlimit:10;stroke-dasharray:none;stroke-opacity:1"
         transform="matrix(1.3333333,0,0,-1.3333333,324.76667,31.146667)"
         clip-path="url(#clipPath87)"
         id="path119" />
      <path
         d="m 3.2213984,-1.5704609 h 2.1445313 c 0.082031,0 0.2578125,0 0.2578125,-0.1757813 0,-0.1757812 -0.1640625,-0.1757812 -0.2578125,-0.1757812 H 3.2213984 v -2.1328125 c 0,-0.09375 0,-0.2578125 -0.1640625,-0.2578125 -0.1757812,0 -0.1757812,0.1523437 -0.1757812,0.2578125 v 2.1328125 H 0.74874219 c -0.09375,0 -0.2578125,0 -0.2578125,0.1757812 0,0.1757813 0.15234375,0.1757813 0.2578125,0.1757813 H 2.8815547 v 2.13281246 c 0,0.09375 0,0.2578125 0.1757812,0.2578125 0.1640625,0 0.1640625,-0.15234375 0.1640625,-0.2578125 z m 5.2265625,-2.859375 c 0,-0.1875 -0.011719,-0.1992188 -0.2109375,-0.1992188 -0.4453125,0.4335938 -1.078125,0.4453125 -1.359375,0.4453125 v 0.2460938 c 0.1640625,0 0.6210938,0 1.0078125,-0.1875 v 3.55078121 c 0,0.234375 0,0.328125 -0.6914062,0.328125 H 6.9245234 V -1.484375e-4 C 7.0534297,-0.01186719 7.9088984,-0.02358594 8.1667109,-0.02358594 c 0.2109375,0 1.0898438,0.01171875 1.2421875,0.0234375025 V -0.24624219 H 9.1510859 c -0.703125,0 -0.703125,-0.09375 -0.703125,-0.328125 z m 0,0"
         style="fill:#008000;fill-opacity:1;fill-rule:nonzero;stroke:none"
         aria-label="+1"
         transform="matrix(1.3333333,0,0,1.3333333,261.34933,99.730667)"
         clip-path="url(#clipPath88)"
         id="path120" />
      <path
         d="m -4.25204,-49.6069 c 0,5.47947 -4.44187,9.92134 -9.92135,9.92134 -5.47947,0 -9.92134,-4.44187 -9.92134,-9.92134 0,-5.47948 4.44187,-9.92134 9.92134,-9.92134 5.47948,0 9.92135,4.44186 9.92135,9.92134 z"
         style="fill:none;stroke:#f96565;stroke-width:1.19553;stroke-linecap:butt;stroke-linejoin:miter;stroke-miterlimit:10;stroke-dasharray:none;stroke-opacity:1"
         transform="matrix(1.3333333,0,0,-1.3333333,324.76667,31.146667)"
         clip-path="url(#clipPath89)"
         id="path121" />
      <path
         d="m 3.5976484,-2.2266953 c 0,-0.7617188 -0.09375,-1.3125 -0.4101562,-1.8046875 -0.2226563,-0.3164063 -0.6445313,-0.5976563 -1.2070313,-0.5976563 -1.61718746,0 -1.61718746,1.8984375 -1.61718746,2.4023438 0,0.5039062 0,2.36718749 1.61718746,2.36718749 1.6171875,0 1.6171875,-1.86328129 1.6171875,-2.36718749 z m -1.6171875,2.16796874 c -0.3164062,0 -0.75,-0.1875 -0.890625,-0.76171875 -0.09375,-0.41015629 -0.09375,-0.98437499 -0.09375,-1.49999999 0,-0.5039063 0,-1.03125 0.1054688,-1.4179688 0.1523437,-0.5507812 0.5976562,-0.6914062 0.8789062,-0.6914062 0.375,0 0.7382813,0.2226562 0.8671875,0.6328125 0.1054688,0.375 0.1171875,0.8789062 0.1171875,1.4765625 0,0.515625 0,1.0429687 -0.09375,1.47656249 -0.140625,0.6328125 -0.609375,0.78515625 -0.890625,0.78515625 z m 0,0"
         style="fill:#f96565;fill-opacity:1;fill-rule:nonzero;stroke:none"
         aria-label="0"
         transform="matrix(1.3333333,0,0,1.3333333,303.22267,100.28533)"
         clip-path="url(#clipPath90)"
         id="path122" />
      <path
         d="m 24.41855,-49.6069 c 0,5.6583 -4.58685,10.24516 -10.24516,10.24516 -5.65831,0 -10.24517,-4.58686 -10.24517,-10.24516 0,-5.65831 4.58686,-10.24517 10.24517,-10.24517 5.65831,0 10.24516,4.58686 10.24516,10.24517 z"
         style="fill:none;stroke:#f79646;stroke-width:1.19553;stroke-linecap:butt;stroke-linejoin:miter;stroke-miterlimit:10;stroke-dasharray:none;stroke-opacity:1"
         transform="matrix(1.3333333,0,0,-1.3333333,324.76667,31.146667)"
         clip-path="url(#clipPath91)"
         id="path123" />
      <path
         d="m 3.2237109,-1.5704609 h 2.1445313 c 0.082031,0 0.2578125,0 0.2578125,-0.1757813 0,-0.1757812 -0.1640625,-0.1757812 -0.2578125,-0.1757812 H 3.2237109 v -2.1328125 c 0,-0.09375 0,-0.2578125 -0.1640625,-0.2578125 -0.1757812,0 -0.1757812,0.1523437 -0.1757812,0.2578125 v 2.1328125 H 0.75105469 c -0.09375,0 -0.2578125,0 -0.2578125,0.1757812 0,0.1757813 0.15234375,0.1757813 0.2578125,0.1757813 H 2.8838672 v 2.13281246 c 0,0.09375 0,0.2578125 0.1757812,0.2578125 0.1640625,0 0.1640625,-0.15234375 0.1640625,-0.2578125 z m 5.2236329,-2.859375 c 0,-0.1875 -0.011719,-0.1992188 -0.2109375,-0.1992188 -0.4453125,0.4335938 -1.078125,0.4453125 -1.359375,0.4453125 v 0.2460938 c 0.1640625,0 0.6210937,0 1.0078125,-0.1875 v 3.55078121 c 0,0.234375 0,0.328125 -0.6914063,0.328125 H 6.9239063 V -1.484375e-4 C 7.0528125,-0.01186719 7.9082813,-0.02358594 8.1660938,-0.02358594 c 0.2109375,0 1.0898437,0.01171875 1.2421875,0.0234375025 V -0.24624219 H 9.1504688 c -0.703125,0 -0.703125,-0.09375 -0.703125,-0.328125 z m 0,0"
         style="fill:#f79646;fill-opacity:1;fill-rule:nonzero;stroke:none"
         aria-label="+1"
         transform="matrix(1.3333333,0,0,1.3333333,336.94,99.730667)"
         clip-path="url(#clipPath92)"
         id="path124" />
      <path
         d="m 52.44154,-49.6069 c 0,5.47947 -4.44186,9.92134 -9.92134,9.92134 -5.47947,0 -9.92134,-4.44187 -9.92134,-9.92134 0,-5.47948 4.44187,-9.92134 9.92134,-9.92134 5.47948,0 9.92134,4.44186 9.92134,9.92134 z"
         style="fill:none;stroke:#f96565;stroke-width:1.19553;stroke-linecap:butt;stroke-linejoin:miter;stroke-miterlimit:10;stroke-dasharray:none;stroke-opacity:1"
         transform="matrix(1.3333333,0,0,-1.3333333,324.76667,31.146667)"
         clip-path="url(#clipPath93)"
         id="path125" />
      <path
         d="m 3.5980313,-2.2266953 c 0,-0.7617188 -0.09375,-1.3125 -0.4101563,-1.8046875 -0.2226562,-0.3164063 -0.6445312,-0.5976563 -1.2070312,-0.5976563 -1.61718755,0 -1.61718755,1.8984375 -1.61718755,2.4023438 0,0.5039062 0,2.36718749 1.61718755,2.36718749 1.6171875,0 1.6171875,-1.86328129 1.6171875,-2.36718749 z m -1.6171875,2.16796874 c -0.3164063,0 -0.75,-0.1875 -0.890625,-0.76171875 -0.09375,-0.41015629 -0.09375,-0.98437499 -0.09375,-1.49999999 0,-0.5039063 0,-1.03125 0.1054688,-1.4179688 0.1523437,-0.5507812 0.5976563,-0.6914062 0.8789063,-0.6914062 0.375,0 0.7382812,0.2226562 0.8671875,0.6328125 0.1054687,0.375 0.1171875,0.8789062 0.1171875,1.4765625 0,0.515625 0,1.0429687 -0.09375,1.47656249 -0.140625,0.6328125 -0.609375,0.78515625 -0.8906251,0.78515625 z m 0,0"
         style="fill:#f96565;fill-opacity:1;fill-rule:nonzero;stroke:none"
         aria-label="0"
         transform="matrix(1.3333333,0,0,1.3333333,378.812,100.28533)"
         clip-path="url(#clipPath94)"
         id="path126" />
      <path
         d="m -8.41515,-6.31104 -10.75157,-8.06387"
         style="fill:none;stroke:#008000;stroke-width:1.19553;stroke-linecap:butt;stroke-linejoin:miter;stroke-miterlimit:10;stroke-dasharray:none;stroke-opacity:1"
         transform="matrix(1.3333333,0,0,-1.3333333,324.76667,31.146667)"
         clip-path="url(#clipPath95)"
         id="path127" />
      <path
         d="M -1.91284,2.55046 C -1.75343,1.59402 0,0.15938 0.4782,0 0,-0.15938 -1.75343,-1.59402 -1.91284,-2.55046"
         style="fill:none;stroke:#008000;stroke-width:0.9564;stroke-linecap:round;stroke-linejoin:round;stroke-miterlimit:10;stroke-dasharray:none;stroke-opacity:1"
         transform="matrix(-1.0666267,0.79998667,0.79998667,1.0666267,299.21104,50.313213)"
         clip-path="url(#clipPath96)"
         id="path128" />
      <path
         d="m 8.41515,-6.31104 10.75157,-8.06387"
         style="fill:none;stroke:#f79646;stroke-width:1.19553;stroke-linecap:butt;stroke-linejoin:miter;stroke-miterlimit:10;stroke-dasharray:none;stroke-opacity:1"
         transform="matrix(1.3333333,0,0,-1.3333333,324.76667,31.146667)"
         clip-path="url(#clipPath97)"
         id="path129" />
      <path
         d="M -1.91284,2.55046 C -1.75343,1.59402 0,0.15938 0.4782,0 0,-0.15938 -1.75343,-1.59402 -1.91284,-2.55046"
         style="fill:none;stroke:#f79646;stroke-width:0.9564;stroke-linecap:round;stroke-linejoin:round;stroke-miterlimit:10;stroke-dasharray:none;stroke-opacity:1"
         transform="matrix(1.0666267,0.79998667,0.79998667,-1.0666267,350.32229,50.313213)"
         clip-path="url(#clipPath98)"
         id="path130" />
      <path
         d="m -33.05066,-30.668 -4.19316,-8.38586"
         style="fill:none;stroke:#008000;stroke-width:1.19553;stroke-linecap:butt;stroke-linejoin:miter;stroke-miterlimit:10;stroke-dasharray:none;stroke-opacity:1"
         transform="matrix(1.3333333,0,0,-1.3333333,324.76667,31.146667)"
         clip-path="url(#clipPath99)"
         id="path131" />
      <path
         d="M -1.91284,2.55046 C -1.75343,1.59402 0,0.15938 0.4782,0 0,-0.15938 -1.75343,-1.59402 -1.91284,-2.55046"
         style="fill:none;stroke:#008000;stroke-width:0.9564;stroke-linecap:round;stroke-linejoin:round;stroke-miterlimit:10;stroke-dasharray:none;stroke-opacity:1"
         transform="matrix(-0.59626667,1.1925067,1.1925067,0.59626667,275.10824,83.218467)"
         clip-path="url(#clipPath100)"
         id="path132" />
      <path
         d="m -23.64294,-30.668 4.33799,-8.67563"
         style="fill:none;stroke:#f96565;stroke-width:1.19553;stroke-linecap:butt;stroke-linejoin:miter;stroke-miterlimit:10;stroke-dasharray:none;stroke-opacity:1"
         transform="matrix(1.3333333,0,0,-1.3333333,324.76667,31.146667)"
         clip-path="url(#clipPath101)"
         id="path133" />
      <path
         d="M -1.91284,2.55046 C -1.75343,1.59402 0,0.15938 0.4782,0 0,-0.15938 -1.75343,-1.59402 -1.91284,-2.55046"
         style="fill:none;stroke:#f96565;stroke-width:0.9564;stroke-linecap:round;stroke-linejoin:round;stroke-miterlimit:10;stroke-dasharray:none;stroke-opacity:1"
         transform="matrix(0.59626667,1.1925067,1.1925067,-0.59626667,299.02673,83.604813)"
         clip-path="url(#clipPath102)"
         id="path134" />
      <path
         d="m 23.64294,-30.668 -4.19317,-8.38603"
         style="fill:none;stroke:#f79646;stroke-width:1.19553;stroke-linecap:butt;stroke-linejoin:miter;stroke-miterlimit:10;stroke-dasharray:none;stroke-opacity:1"
         transform="matrix(1.3333333,0,0,-1.3333333,324.76667,31.146667)"
         clip-path="url(#clipPath103)"
         id="path135" />
      <path
         d="M -1.91284,2.55046 C -1.75343,1.59402 0,0.15938 0.4782,0 0,-0.15938 -1.75343,-1.59402 -1.91284,-2.55046"
         style="fill:none;stroke:#f79646;stroke-width:0.9564;stroke-linecap:round;stroke-linejoin:round;stroke-miterlimit:10;stroke-dasharray:none;stroke-opacity:1"
         transform="matrix(-0.59626667,1.1925067,1.1925067,0.59626667,350.69969,83.218693)"
         clip-path="url(#clipPath104)"
         id="path136" />
      <path
         d="m 33.05066,-30.668 4.33798,-8.67548"
         style="fill:none;stroke:#f96565;stroke-width:1.19553;stroke-linecap:butt;stroke-linejoin:miter;stroke-miterlimit:10;stroke-dasharray:none;stroke-opacity:1"
         transform="matrix(1.3333333,0,0,-1.3333333,324.76667,31.146667)"
         clip-path="url(#clipPath105)"
         id="path137" />
      <path
         d="M -1.91284,2.55046 C -1.75343,1.59402 0,0.15938 0.4782,0 0,-0.15938 -1.75343,-1.59402 -1.91284,-2.55046"
         style="fill:none;stroke:#f96565;stroke-width:0.9564;stroke-linecap:round;stroke-linejoin:round;stroke-miterlimit:10;stroke-dasharray:none;stroke-opacity:1"
         transform="matrix(0.59626667,1.1925067,1.1925067,-0.59626667,374.61819,83.604613)"
         clip-path="url(#clipPath106)"
         id="path138" />
      <path
         d="m 52.0786,-53.96599 c 2.08783,-3.4664 0.97026,-7.96889 -2.49614,-10.05671 -2.24208,-1.35041 -5.03516,-1.4021 -7.32569,-0.13561 -1.78273,0.98572 -3.07517,2.66998 -3.3356,3.71887"
         style="fill:none;stroke:#f96565;stroke-width:1.19553;stroke-linecap:butt;stroke-linejoin:miter;stroke-miterlimit:10;stroke-dasharray:none;stroke-opacity:1"
         transform="matrix(1.3333333,0,0,-1.3333333,324.76667,31.146667)"
         clip-path="url(#clipPath107)"
         id="path139" />
      <path
         d="M -1.91284,2.55046 C -1.75343,1.59402 0,0.15938 0.4782,0 0,-0.15938 -1.75343,-1.59402 -1.91284,-2.55046"
         style="fill:none;stroke:#f96565;stroke-width:0.9564;stroke-linecap:round;stroke-linejoin:round;stroke-miterlimit:10;stroke-dasharray:none;stroke-opacity:1"
         transform="matrix(-0.32102667,-1.2940667,-1.2940667,0.32102667,376.66159,111.73259)"
         clip-path="url(#clipPath108)"
         id="path140" />
      <path
         d="m 23.849,-54.46997 c 2.3272,-3.31039 1.53015,-7.88051 -1.78024,-10.2077 -3.31041,-2.3272 -7.88051,-1.53015 -10.20771,1.78024 -0.62039,0.88249 -1.03871,1.89235 -1.05983,2.01288"
         style="fill:none;stroke:#f79646;stroke-width:1.19553;stroke-linecap:butt;stroke-linejoin:miter;stroke-miterlimit:10;stroke-dasharray:none;stroke-opacity:1"
         transform="matrix(1.3333333,0,0,-1.3333333,324.76667,31.146667)"
         clip-path="url(#clipPath109)"
         id="path141" />
      <path
         d="M -1.91284,2.55046 C -1.75343,1.59402 0,0.15938 0.4782,0 0,-0.15938 -1.75343,-1.59402 -1.91284,-2.55046"
         style="fill:none;stroke:#f79646;stroke-width:0.9564;stroke-linecap:round;stroke-linejoin:round;stroke-miterlimit:10;stroke-dasharray:none;stroke-opacity:1"
         transform="matrix(-0.22892,-1.31352,-1.31352,0.22892,339.16832,112.32609)"
         clip-path="url(#clipPath110)"
         id="path142" />
      <path
         d="m -4.61499,-53.96599 c 2.08781,-3.4664 0.97026,-7.96889 -2.49614,-10.05671 -2.24208,-1.35041 -5.03516,-1.4021 -7.32568,-0.13561 -1.78273,0.98572 -3.07519,2.66998 -3.33561,3.71887"
         style="fill:none;stroke:#f96565;stroke-width:1.19553;stroke-linecap:butt;stroke-linejoin:miter;stroke-miterlimit:10;stroke-dasharray:none;stroke-opacity:1"
         transform="matrix(1.3333333,0,0,-1.3333333,324.76667,31.146667)"
         clip-path="url(#clipPath111)"
         id="path143" />
      <path
         d="M -1.91284,2.55046 C -1.75343,1.59402 0,0.15938 0.4782,0 0,-0.15938 -1.75343,-1.59402 -1.91284,-2.55046"
         style="fill:none;stroke:#f96565;stroke-width:0.9564;stroke-linecap:round;stroke-linejoin:round;stroke-miterlimit:10;stroke-dasharray:none;stroke-opacity:1"
         transform="matrix(-0.32102667,-1.2940667,-1.2940667,0.32102667,301.07013,111.73259)"
         clip-path="url(#clipPath112)"
         id="path144" />
    </g>
    <g
       id="g145"
       aria-label="π&#10;2"
       transform="matrix(1.3333333,0,0,1.3333333,261.10133,133.90133)">
      <path
         id="path145"
         d="m 2.2618906,-2.9054922 h 0.9140625 c -0.1640625,0.7265625 -0.3046875,1.3125 -0.3046875,1.8984375 0,0.0585938 0,0.39843751 0.082031,0.69140626 0.1054687,0.328125 0.1875,0.3984375 0.328125,0.3984375 0.1757812,0 0.3632812,-0.15234375 0.3632812,-0.33984375 0,-0.0585938 -0.011719,-0.0820313 -0.046875,-0.15234375 -0.1640625,-0.36328125 -0.28125,-0.74999996 -0.28125,-1.39453126 0,-0.1875 0,-0.5273437 0.1171875,-1.1015625 h 0.9609375 c 0.1289063,0 0.2226563,0 0.3046875,-0.070312 0.09375,-0.082031 0.1171875,-0.1875 0.1171875,-0.234375 0,-0.2226562 -0.1992187,-0.2226562 -0.3398437,-0.2226562 H 1.6056406 c -0.1757812,0 -0.46875,0 -0.86718748,0.3867187 -0.28125,0.28125 -0.50390625,0.6445313 -0.50390625,0.703125 0,0.070312 0.046875,0.09375 0.1171875,0.09375 0.0820313,0 0.09375,-0.023437 0.140625,-0.082031 0.38671875,-0.5742188 0.86718753,-0.5742188 1.04296873,-0.5742188 h 0.46875 c -0.234375,0.84375 -0.65625,1.8046875 -0.9492187,2.39062501 -0.0585938,0.1171875 -0.14062503,0.28125 -0.14062503,0.3515625 0,0.1640625025 0.14062503,0.24609375 0.26953123,0.24609375 0.2929688,0 0.375,-0.3046875 0.5507813,-0.9609375 z m 0,0"
         style="fill:#f79646;fill-opacity:1;fill-rule:nonzero;stroke:none" />
      <path
         id="path146"
         d="M 8.0743906,-0.00510156 H 7.8634531 c -0.023437,0.08203125 -0.082031,0.46875 -0.1640625,0.5390625 -0.046875,0.0351563 -0.5273437,0.0351563 -0.609375,0.0351563 h -1.125 l 0.7734375,-0.62109375 c 0.1992188,-0.1640625 0.7265625,-0.5390625 0.9140625,-0.7265625 0.1757813,-0.17578125 0.421875,-0.48046869 0.421875,-0.90234369 0,-0.7500001 -0.6679687,-1.1835939 -1.4765625,-1.1835939 -0.7617187,0 -1.3007812,0.5039063 -1.3007812,1.0664063 0,0.3046875 0.2578125,0.3398438 0.3164062,0.3398438 0.1523438,0 0.328125,-0.1054688 0.328125,-0.3164063 0,-0.140625 -0.082031,-0.328125 -0.3398437,-0.328125 0.1289062,-0.3046875 0.5039062,-0.5273438 0.9140625,-0.5273438 0.6210937,0 0.9609375,0.46875 0.9609375,0.9492188 0,0.421875 -0.28125,0.85546879 -0.703125,1.24218754 l -1.4179688,1.3007812 c -0.058594,0.0585938 -0.058594,0.0585938 -0.058594,0.24609376 h 2.6015625 z m 0,0"
         style="fill:#f79646;fill-opacity:1;fill-rule:nonzero;stroke:none" />
    </g>
    <g
       id="g146"
       aria-label="=argmax&#10;π∈Π&#10;J(π,f&#10;2&#10;)"
       transform="matrix(1.3333333,0,0,1.3333333,276.25733,133.90133)">
      <path
         id="path147"
         d="m 5.8245781,-2.6476797 c 0.1171875,0 0.28125,0 0.28125,-0.1875 0,-0.1875 -0.1875,-0.1875 -0.3164062,-0.1875 H 0.78551562 c -0.12890625,0 -0.31640625,0 -0.31640625,0.1875 0,0.1875 0.1640625,0.1875 0.28125,0.1875 z m -0.035156,1.68750001 c 0.1289062,0 0.3164062,0 0.3164062,-0.18750001 0,-0.1875 -0.1640625,-0.1875 -0.28125,-0.1875 H 0.75035937 c -0.1171875,0 -0.28125,0 -0.28125,0.1875 0,0.18750001 0.1875,0.18750001 0.31640625,0.18750001 z M 12.290398,-2.3781484 c 0,-0.7734375 -0.761718,-1.171875 -1.488281,-1.171875 -0.65625,0 -1.2539061,0.2460937 -1.2539061,0.7734375 0,0.2460937 0.1757813,0.3867187 0.375,0.3867187 0.2226561,0 0.3750001,-0.1640625 0.3750001,-0.375 0,-0.1875 -0.117188,-0.328125 -0.292969,-0.3632812 0.292969,-0.1992188 0.726563,-0.1992188 0.785156,-0.1992188 0.445313,0 0.890625,0.3046875 0.890625,0.9609375 v 0.2460938 c -0.46875,0.023437 -0.996093,0.046875 -1.558593,0.28125 -0.7031253,0.3046875 -0.8320316,0.7617187 -0.8320316,1.03124996 0,0.6796875 0.8085936,0.890625 1.3593746,0.890625 0.574219,0 0.9375,-0.328125 1.113282,-0.64453125 0.03516,0.3046875 0.246093,0.59765625 0.597656,0.59765625 0.08203,0 0.75,-0.0234375 0.75,-0.75 V -1.1593984 h -0.246094 v 0.44531246 c 0,0.328125 -0.117187,0.45703125 -0.28125,0.45703125 -0.292969,0 -0.292969,-0.375 -0.292969,-0.45703125 z m -0.609375,1.2539062 c 0,0.77343751 -0.65625,0.98437501 -0.972656,0.98437501 -0.410156,0 -0.7617186,-0.28125 -0.7617186,-0.66796875 0,-0.52734376 0.4921876,-1.06640626 1.7343746,-1.10156246 z m 2.956055,-0.6914062 c 0,-0.5976563 0.246094,-1.453125 1.007813,-1.4765625 -0.04687,0.035156 -0.117188,0.09375 -0.117188,0.28125 0,0.2460937 0.1875,0.3632812 0.351563,0.3632812 0.1875,0 0.351562,-0.1289062 0.351562,-0.3632812 0,-0.28125 -0.257812,-0.5039063 -0.609375,-0.5039063 -0.515625,0 -0.867187,0.3867188 -1.03125,0.84375 h -0.01172 v -0.84375 l -1.125,0.09375 v 0.2578125 c 0.539063,0 0.597657,0.058594 0.597657,0.4453125 v 2.09765626 c 0,0.36328125 -0.09375,0.36328125 -0.597657,0.36328125 V 7.578125e-4 c 0.304688,-0.0234375025 0.75,-0.0234375025 0.9375,-0.0234375025 0.46875,0 0.492188,0 1.007813,0.0234375025 V -0.25705469 h -0.164063 c -0.585937,0 -0.597656,-0.09375 -0.597656,-0.375 z m 3.219727,1.26562496 c -0.246094,-0.0234375 -0.445313,-0.234375 -0.445313,-0.52734376 0,-0.1875 0.04687,-0.2578125 0.09375,-0.328125 0.339844,0.1992188 0.644531,0.234375 0.84375,0.234375 0.785156,0 1.371094,-0.5507812 1.371094,-1.171875 0,-0.3046875 -0.140625,-0.5625 -0.328125,-0.7617187 0.105469,-0.09375 0.375,-0.2695313 0.761719,-0.2695313 -0.03516,0.023437 -0.07031,0.058594 -0.07031,0.1875 0,0.140625 0.105469,0.2460938 0.246094,0.2460938 0.117187,0 0.246094,-0.070312 0.246094,-0.2578125 0,-0.1289063 -0.105469,-0.3984375 -0.457032,-0.3984375 -0.128906,0 -0.515625,0.023437 -0.878906,0.3632812 -0.199219,-0.140625 -0.515625,-0.28125 -0.890625,-0.28125 -0.785156,0 -1.359375,0.5507813 -1.359375,1.171875 0,0.375 0.199219,0.65625 0.363281,0.8085938 -0.164062,0.1992187 -0.234375,0.4570312 -0.234375,0.65624996 0,0.31640625 0.164063,0.5625 0.339844,0.703125 -0.421875,0.1171875 -0.75,0.421875 -0.75,0.78515625 0,0.57421879 0.820313,1.01953129 1.875,1.01953129 0.996094,0 1.875,-0.3984375 1.875,-1.03125004 0,-0.43359375 -0.257812,-0.76171875 -0.515625,-0.90234375 -0.46875,-0.24609375 -0.867187,-0.24609375 -1.640625,-0.24609375 z m 0.492187,-0.85546876 c -0.738281,0 -0.738281,-0.7617187 -0.738281,-0.9375 0,-0.2929687 0.04687,-0.5039062 0.164062,-0.65625 0.128907,-0.1875 0.351563,-0.28125 0.574219,-0.28125 0.738281,0 0.738281,0.7617188 0.738281,0.9375 0,0.2929688 -0.03516,0.5039063 -0.164062,0.6679688 -0.175781,0.2226562 -0.421875,0.2695312 -0.574219,0.2695312 z m 0.375,1.37109376 c 0.222656,0 1.265625,0 1.265625,0.64453125 0,0.42187499 -0.609375,0.79687499 -1.40625,0.79687499 -0.796875,0 -1.394531,-0.375 -1.394531,-0.79687499 0,-0.17578125 0.117187,-0.64453125 0.773437,-0.64453125 z m 8.326172,-2.37890626 c 0,-0.6445312 -0.28125,-1.1015625 -1.148437,-1.1015625 -0.726563,0 -1.101563,0.5039063 -1.230469,0.7382813 -0.140625,-0.5742188 -0.597656,-0.7382813 -1.113281,-0.7382813 -0.773438,0 -1.136719,0.5507813 -1.242188,0.7617188 h -0.01172 v -0.7617188 l -1.148437,0.09375 v 0.2578125 c 0.539062,0 0.609375,0.058594 0.609375,0.4453125 v 2.09765626 c 0,0.36328125 -0.105469,0.36328125 -0.609375,0.36328125 V 7.578125e-4 C 21.495477,-0.02267969 21.847039,-0.02267969 22.057977,-0.02267969 c 0.234375,0 0.574218,0 0.914062,0.0234375025 V -0.25705469 c -0.515625,0 -0.609375,0 -0.609375,-0.36328125 V -2.0617422 c 0,-0.84375 0.632813,-1.2304687 1.136719,-1.2304687 0.515625,0 0.597656,0.4101562 0.597656,0.84375 v 1.82812496 c 0,0.36328125 -0.09375,0.36328125 -0.597656,0.36328125 V 7.578125e-4 C 23.839227,-0.02267969 24.190789,-0.02267969 24.401727,-0.02267969 c 0.234375,0 0.574218,0 0.914062,0.0234375025 V -0.25705469 c -0.515625,0 -0.609375,0 -0.609375,-0.36328125 V -2.0617422 c 0,-0.84375 0.632813,-1.2304687 1.136719,-1.2304687 0.515625,0 0.597656,0.4101562 0.597656,0.84375 v 1.82812496 c 0,0.36328125 -0.09375,0.36328125 -0.597656,0.36328125 V 7.578125e-4 C 26.182977,-0.02267969 26.534539,-0.02267969 26.745477,-0.02267969 c 0.234375,0 0.574218,0 0.914062,0.0234375025 V -0.25705469 c -0.515625,0 -0.609375,0 -0.609375,-0.36328125 z m 4.183594,0.035156 c 0,-0.7734375 -0.761719,-1.171875 -1.488281,-1.171875 -0.65625,0 -1.253907,0.2460937 -1.253907,0.7734375 0,0.2460937 0.175782,0.3867187 0.375,0.3867187 0.222657,0 0.375,-0.1640625 0.375,-0.375 0,-0.1875 -0.117187,-0.328125 -0.292968,-0.3632812 0.292968,-0.1992188 0.726562,-0.1992188 0.785156,-0.1992188 0.445312,0 0.890625,0.3046875 0.890625,0.9609375 v 0.2460938 c -0.46875,0.023437 -0.996094,0.046875 -1.558594,0.28125 -0.703125,0.3046875 -0.832031,0.7617187 -0.832031,1.03124996 0,0.6796875 0.808594,0.890625 1.359375,0.890625 0.574219,0 0.9375,-0.328125 1.113281,-0.64453125 0.03516,0.3046875 0.246094,0.59765625 0.597656,0.59765625 0.08203,0 0.75,-0.0234375 0.75,-0.75 V -1.1593984 h -0.246093 v 0.44531246 c 0,0.328125 -0.117188,0.45703125 -0.28125,0.45703125 -0.292969,0 -0.292969,-0.375 -0.292969,-0.45703125 z m -0.609375,1.2539062 c 0,0.77343751 -0.65625,0.98437501 -0.972656,0.98437501 -0.410157,0 -0.761719,-0.28125 -0.761719,-0.66796875 0,-0.52734376 0.492187,-1.06640626 1.734375,-1.10156246 z m 3.943359,-0.7382812 c 0.222656,-0.28125 0.457031,-0.5507813 0.703125,-0.8085938 0.257813,-0.28125 0.539063,-0.4921875 1.042969,-0.5039062 v -0.2578125 c -0.316406,0.023437 -0.328125,0.023437 -0.691406,0.023437 -0.03516,0 -0.503907,0 -0.75,-0.023437 v 0.2578125 c 0.152343,0.023437 0.175781,0.1171875 0.175781,0.2226562 0,0.1054688 -0.03516,0.1992188 -0.128906,0.3046875 l -0.503907,0.5976563 -0.632812,-0.75 c -0.09375,-0.1171875 -0.09375,-0.1757813 -0.09375,-0.1875 0,-0.058594 0.04687,-0.1757813 0.246094,-0.1875 v -0.2578125 c -0.316407,0.023437 -0.761719,0.023437 -0.855469,0.023437 -0.140625,0 -0.550781,0 -0.785156,-0.023437 v 0.2578125 c 0.539062,0 0.550781,0.011719 0.960937,0.5039062 l 0.820313,0.9960938 -0.726563,0.84374996 c -0.199219,0.22265625 -0.492187,0.55078125 -1.089844,0.57421875 V 7.578125e-4 C 32.552117,-0.02267969 32.598992,-0.02267969 32.938836,-0.02267969 c 0.01172,0 0.503906,0 0.761719,0.0234375025 V -0.25705469 c -0.105469,-0.0234375 -0.199219,-0.0820313 -0.199219,-0.22265625 0,-0.140625 0.09375,-0.2578125 0.128906,-0.29296875 0.199219,-0.23437501 0.410156,-0.48046871 0.621094,-0.70312501 l 0.644531,0.77343751 c 0.164063,0.1875 0.164063,0.19921875 0.164063,0.2578125 0,0.0585938 -0.05859,0.17578125 -0.246094,0.1875 V 7.578125e-4 C 35.15368,-0.02267969 35.516961,-0.02267969 35.669305,-0.02267969 c 0.140625,0 0.550781,0 0.785156,0.0234375025 V -0.25705469 c -0.492188,0 -0.574219,-0.046875 -0.785156,-0.29296875 z m 0,0"
         style="fill:#000000;fill-opacity:1;fill-rule:nonzero;stroke:none" />
      <path
         id="path148"
         d="m 38.613641,-0.10764062 h 0.738281 c -0.128906,0.52734375 -0.199219,0.9140625 -0.199219,1.31250002 0,0.3046875 0.08203,0.9023437 0.363281,0.9023437 0.152344,0 0.292969,-0.140625 0.292969,-0.2695312 0,-0.058594 -0.03516,-0.1054688 -0.04687,-0.140625 -0.222656,-0.3867188 -0.257812,-0.77343752 -0.257812,-1.07812502 0,-0.09375 0,-0.3515625 0.08203,-0.7265625 h 0.785156 c 0.07031,0 0.328125,0 0.328125,-0.24609375 0,-0.17578125 -0.164062,-0.17578125 -0.269531,-0.17578125 h -2.378906 c -0.117188,0 -0.386719,0 -0.703125,0.3046875 -0.1875,0.1640625 -0.398438,0.45703125 -0.398438,0.515625 0,0.0820313 0.08203,0.0820313 0.105469,0.0820313 0.05859,0 0.07031,-0.0117188 0.117187,-0.0585938 0.105469,-0.15234375 0.339844,-0.421875 0.820313,-0.421875 h 0.398437 c -0.210937,0.75 -0.621093,1.54687502 -0.691406,1.71093752 -0.05859,0.09375 -0.128906,0.2460937 -0.128906,0.3046875 0,0.1171875 0.09375,0.1992187 0.210937,0.1992187 0.210938,0 0.28125,-0.2109375 0.351563,-0.3984375 0.117187,-0.375 0.117187,-0.3867187 0.199219,-0.71484372 z m 0,0"
         style="fill:#000000;fill-opacity:1;fill-rule:nonzero;stroke:none" />
      <path
         id="path149"
         d="m 45.129266,0.71267188 c 0.09375,0 0.246093,0 0.246093,-0.15234375 0,-0.1640625 -0.152343,-0.1640625 -0.246093,-0.1640625 h -2.917969 c 0.08203,-0.87890625 0.855469,-1.55859373 1.816406,-1.55859373 h 1.101563 c 0.09375,0 0.246093,0 0.246093,-0.1523438 0,-0.1523437 -0.152343,-0.1523437 -0.246093,-0.1523437 h -1.113282 c -1.148437,0 -2.121093,0.87890623 -2.121093,2.02734373 0,1.13671877 0.972656,2.01562497 2.121093,2.01562497 h 1.113282 c 0.09375,0 0.246093,0 0.246093,-0.1523437 0,-0.1523438 -0.152343,-0.1523438 -0.246093,-0.1523438 h -1.101563 c -0.960937,0 -1.734375,-0.6796875 -1.816406,-1.55859372 z m 0,0"
         style="fill:#000000;fill-opacity:1;fill-rule:nonzero;stroke:none" />
      <path
         id="path150"
         d="m 50.449578,-1.5021719 c 0,-0.1992187 0,-0.2695312 0.480469,-0.2695312 h 0.152344 v -0.234375 h -4.570313 v 0.234375 h 0.152344 c 0.480469,0 0.480469,0.070312 0.480469,0.2695312 v 3.046875 c 0,0.1992188 0,0.2695313 -0.480469,0.2695313 h -0.152344 v 0.234375 c 0.08203,-0.011719 0.679688,-0.023437 0.9375,-0.023437 0.246094,0 0.832031,0.011719 0.925781,0.023437 v -0.234375 h -0.152343 c -0.480469,0 -0.480469,-0.070312 -0.480469,-0.2695313 v -3.3164062 h 2.109375 v 3.3164062 c 0,0.1992188 0,0.2695313 -0.480469,0.2695313 h -0.152344 v 0.234375 c 0.08203,-0.011719 0.679688,-0.023437 0.9375,-0.023437 0.246094,0 0.832032,0.011719 0.925782,0.023437 v -0.234375 h -0.152344 c -0.480469,0 -0.480469,-0.070312 -0.480469,-0.2695313 z m 0,0"
         style="fill:#000000;fill-opacity:1;fill-rule:nonzero;stroke:none" />
      <path
         id="path151"
         d="m 57.890984,-4.8390859 c 0.07031,-0.28125 0.08203,-0.3398438 0.492188,-0.3398438 0.117187,0 0.222656,0 0.222656,-0.1523437 0,-0.011719 -0.01172,-0.1054688 -0.117187,-0.1054688 -0.05859,0 -0.152344,0.023437 -0.925782,0.023437 -0.175781,0 -0.503906,0 -0.550781,-0.011719 -0.09375,-0.011719 -0.46875,-0.011719 -0.574219,-0.011719 -0.04687,0 -0.164062,0 -0.164062,0.140625 0,0.1171875 0.09375,0.1171875 0.28125,0.1171875 0.01172,0 0.210937,0 0.410156,0.011719 0.222656,0.023437 0.269531,0.046875 0.269531,0.1523437 0,0.023437 -0.01172,0.035156 -0.03516,0.140625 l -0.925781,3.703125 c -0.152344,0.65625001 -0.679688,1.11328126 -1.148438,1.11328126 -0.175781,0 -0.621093,-0.046875 -0.785156,-0.421875 0.5625,0 0.585938,-0.46875 0.585938,-0.50390625 0,-0.22265621 -0.175782,-0.35156251 -0.363282,-0.35156251 -0.1875,0 -0.527343,0.1523438 -0.527343,0.62109376 0,0.50390625 0.433593,0.87890625 1.113281,0.87890625 0.75,0 1.617187,-0.50390625 1.816406,-1.30078121 z m 0,0"
         style="fill:#000000;fill-opacity:1;fill-rule:nonzero;stroke:none" />
      <path
         id="path152"
         d="m 61.415398,1.9929453 c 0.07031,0 0.164063,0 0.164063,-0.09375 0,-0.035156 -0.01172,-0.046875 -0.105469,-0.140625 -1.101562,-1.03124999 -1.371094,-2.51953124 -1.371094,-3.75 0,-2.296875 0.949219,-3.375 1.359375,-3.7382812 0.105469,-0.1054688 0.117188,-0.1054688 0.117188,-0.1523438 0,-0.035156 -0.03516,-0.09375 -0.105469,-0.09375 -0.128906,0 -0.527344,0.4101563 -0.597656,0.4804688 -1.066406,1.1132812 -1.289063,2.5429687 -1.289063,3.5039062 0,1.78125001 0.75,3.2226563 1.828125,3.984375 z m 0,0"
         style="fill:#000000;fill-opacity:1;fill-rule:nonzero;stroke:none" />
      <path
         id="path153"
         d="m 64.321648,-2.9054922 h 0.914063 c -0.164063,0.7265625 -0.304688,1.3125 -0.304688,1.8984375 0,0.0585938 0,0.39843751 0.08203,0.69140626 0.105468,0.328125 0.1875,0.3984375 0.328125,0.3984375 0.175781,0 0.363281,-0.15234375 0.363281,-0.33984375 0,-0.0585938 -0.01172,-0.0820313 -0.04687,-0.15234375 -0.164063,-0.36328125 -0.28125,-0.74999996 -0.28125,-1.39453126 0,-0.1875 0,-0.5273437 0.117187,-1.1015625 h 0.960938 c 0.128906,0 0.222656,0 0.304687,-0.070312 0.09375,-0.082031 0.117188,-0.1875 0.117188,-0.234375 0,-0.2226562 -0.199219,-0.2226562 -0.339844,-0.2226562 h -2.871094 c -0.175781,0 -0.46875,0 -0.867187,0.3867187 -0.28125,0.28125 -0.503906,0.6445313 -0.503906,0.703125 0,0.070312 0.04687,0.09375 0.117187,0.09375 0.08203,0 0.09375,-0.023437 0.140625,-0.082031 0.386719,-0.5742188 0.867188,-0.5742188 1.042969,-0.5742188 h 0.46875 c -0.234375,0.84375 -0.65625,1.8046875 -0.949219,2.39062501 -0.05859,0.1171875 -0.140625,0.28125 -0.140625,0.3515625 0,0.1640625025 0.140625,0.24609375 0.269531,0.24609375 0.292969,0 0.375,-0.3046875 0.550782,-0.9609375 z m 4.376954,2.78906251 c 0,0.515625 -0.105469,0.97265625 -0.609375,1.46484379 -0.02344,0.023437 -0.04687,0.035156 -0.04687,0.082031 0,0.058594 0.07031,0.1054688 0.128906,0.1054688 0.09375,0 0.75,-0.62109379 0.75,-1.55859379 0,-0.515625 -0.1875,-0.85546875 -0.539063,-0.85546875 -0.28125,0 -0.433593,0.22265625 -0.433593,0.43359375 0,0.22265625 0.140625,0.4453125025 0.445312,0.4453125025 0.1875,0 0.304688,-0.1171875025 0.304688,-0.1171875025 z m 5.320312,-3.05859371 h 0.75 c 0.152344,0 0.246094,0 0.246094,-0.1523438 0,-0.1054687 -0.09375,-0.1054687 -0.234375,-0.1054687 h -0.703125 c 0.117187,-0.7148438 0.199219,-1.171875 0.28125,-1.5351563 0.03516,-0.1289062 0.05859,-0.2226562 0.175781,-0.3164062 0.105469,-0.082031 0.164063,-0.1054688 0.257813,-0.1054688 0.117187,0 0.246093,0.023437 0.351562,0.09375 -0.04687,0.011719 -0.09375,0.035156 -0.128906,0.058594 -0.140625,0.070312 -0.234375,0.2226562 -0.234375,0.375 0,0.1875 0.140625,0.2929687 0.316406,0.2929687 0.234375,0 0.445313,-0.1992187 0.445313,-0.46875 0,-0.375 -0.375,-0.5742187 -0.761719,-0.5742187 -0.269531,0 -0.773438,0.1289062 -1.03125,0.8671875 -0.07031,0.1757812 -0.07031,0.1992187 -0.28125,1.3125 h -0.597656 c -0.164063,0 -0.257813,0 -0.257813,0.1523437 0,0.1054688 0.105469,0.1054688 0.234375,0.1054688 h 0.574219 l -0.574219,3.09374996 C 72.694695,0.72732051 72.577508,1.407008 72.155633,1.407008 c -0.02344,0 -0.199219,0 -0.351563,-0.09375 0.375,-0.09375 0.375,-0.43359374 0.375,-0.43359374 0,-0.1875 -0.152343,-0.29296875 -0.328125,-0.29296875 -0.210937,0 -0.445312,0.17578125 -0.445312,0.48046879 0,0.3398437 0.351562,0.5625 0.75,0.5625 0.480469,0 0.820312,-0.515625 0.925781,-0.71484379 0.28125,-0.52734375 0.46875,-1.5234375 0.480469,-1.59375 z m 0,0"
         style="fill:#000000;fill-opacity:1;fill-rule:nonzero;stroke:none" />
      <path
         id="path154"
         d="m 78.252312,-0.00510156 h -0.210937 c -0.02344,0.08203125 -0.08203,0.46875 -0.164063,0.5390625 -0.04687,0.0351563 -0.527343,0.0351563 -0.609375,0.0351563 h -1.125 l 0.773438,-0.62109375 c 0.199219,-0.1640625 0.726562,-0.5390625 0.914062,-0.7265625 0.175782,-0.17578125 0.421875,-0.48046869 0.421875,-0.90234369 0,-0.7500001 -0.667968,-1.1835939 -1.476562,-1.1835939 -0.761719,0 -1.300781,0.5039063 -1.300781,1.0664063 0,0.3046875 0.257812,0.3398438 0.316406,0.3398438 0.152344,0 0.328125,-0.1054688 0.328125,-0.3164063 0,-0.140625 -0.08203,-0.328125 -0.339844,-0.328125 0.128906,-0.3046875 0.503906,-0.5273438 0.914063,-0.5273438 0.621093,0 0.960937,0.46875 0.960937,0.9492188 0,0.421875 -0.28125,0.85546879 -0.703125,1.24218754 l -1.417969,1.30078125 c -0.05859,0.0585938 -0.05859,0.0585938 -0.05859,0.24609371 h 2.601562 z m 0,0"
         style="fill:#000000;fill-opacity:1;fill-rule:nonzero;stroke:none" />
      <path
         id="path155"
         d="m 81.65368,-1.9914297 c 0,-0.7617187 -0.128907,-1.6640625 -0.621094,-2.6015625 -0.386719,-0.7382812 -1.113281,-1.3828125 -1.253906,-1.3828125 -0.08203,0 -0.105469,0.058594 -0.105469,0.09375 0,0.035156 0,0.046875 0.09375,0.140625 1.113281,1.0664063 1.371094,2.5195313 1.371094,3.75 0,2.28515626 -0.949219,3.375 -1.359375,3.7382813 -0.105469,0.1054687 -0.105469,0.1054687 -0.105469,0.1523437 0,0.035156 0.02344,0.09375 0.105469,0.09375 0.128906,0 0.527343,-0.4101562 0.585937,-0.4804687 1.066406,-1.11328129 1.289063,-2.5429688 1.289063,-3.5039063 z m 0,0"
         style="fill:#000000;fill-opacity:1;fill-rule:nonzero;stroke:none" />
    </g>
  </g>
</svg>
