<?xml version="1.0" encoding="UTF-8" standalone="no"?>
<svg
   xmlns:dc="http://purl.org/dc/elements/1.1/"
   xmlns:cc="http://creativecommons.org/ns#"
   xmlns:rdf="http://www.w3.org/1999/02/22-rdf-syntax-ns#"
   xmlns:svg="http://www.w3.org/2000/svg"
   xmlns="http://www.w3.org/2000/svg"
   viewBox="0 0 3644 2269.3333"
   height="2269.3333"
   width="3644"
   xml:space="preserve"
   id="svg2"
   version="1.1"><metadata
     id="metadata8"><rdf:RDF><cc:Work
         rdf:about=""><dc:format>image/svg+xml</dc:format><dc:type
           rdf:resource="http://purl.org/dc/dcmitype/StillImage" /></cc:Work></rdf:RDF></metadata><defs
     id="defs6"><clipPath
       id="clipPath20"
       clipPathUnits="userSpaceOnUse"><path
         id="path18"
         d="m 1064.008,553.9907 h 21.89 c -5.231,-21.6797 -8.524,-35.8102 -8.524,-51.2958 0,-2.7099 0,-23.6154 7.943,-23.6154 4.068,0 7.554,3.6778 7.554,6.9685 0,0.9678 0,1.355 -1.356,4.2585 -5.23,13.3563 -5.23,30.0032 -5.23,31.3582 0,1.1614 0,14.9048 4.068,32.326 h 21.696 c 2.518,0 8.911,0 8.911,6.1942 0,4.2586 -3.681,4.2586 -7.168,4.2586 h -63.731 c -4.456,0 -11.042,0 -19.953,-9.4849 -5.036,-5.6135 -11.235,-15.8727 -11.235,-17.0341 0,-1.1614 0.968,-1.5486 2.131,-1.5486 1.356,0 1.549,0.5808 2.518,1.7422 10.073,15.8726 20.146,15.8726 24.989,15.8726 h 11.042 c -4.262,-14.5176 -9.105,-31.3582 -24.989,-65.2327 -1.55,-3.0971 -1.55,-3.4843 -1.55,-4.6457 0,-4.0649 3.487,-5.0328 5.23,-5.0328 5.618,0 7.168,5.0328 9.492,13.1627 3.1,9.872 3.1,10.2592 5.037,18.0019 z" /></clipPath><clipPath
       id="clipPath30"
       clipPathUnits="userSpaceOnUse"><path
         id="path28"
         d="m 1134.274,471.9427 h 9.86 c 1.912,0 3.119,0 3.119,1.9102 0,1.4075 -1.308,1.4075 -3.018,1.4075 h -9.156 l 3.622,14.2761 c 0.403,1.508 0.403,2.0107 0.403,2.1113 0,2.1112 -1.61,3.1166 -3.32,3.1166 -3.421,0 -4.126,-2.7145 -5.232,-7.2386 l -3.119,-12.2654 h -9.659 c -1.911,0 -3.219,0 -3.219,-1.9102 0,-1.4075 1.308,-1.4075 3.018,-1.4075 h 9.055 l -6.037,-24.1286 c -0.603,-2.5134 -1.509,-6.0321 -1.509,-7.4396 0,-6.0322 4.93,-9.4504 10.262,-9.4504 10.766,0 16.903,14.1756 16.903,15.382 0,1.1059 -0.905,1.3069 -1.509,1.3069 -1.107,0 -1.207,-0.4021 -1.912,-1.9101 -2.012,-4.8257 -7.042,-11.9638 -13.18,-11.9638 -2.113,0 -3.32,1.4075 -3.32,4.7252 0,1.9102 0.302,3.0161 0.604,4.323 z" /></clipPath><clipPath
       id="clipPath40"
       clipPathUnits="userSpaceOnUse"><path
         id="path38"
         d="m 1193.106,460.839 h 22.494 c 1.071,0 2.755,0 2.755,1.7585 0,1.7584 -1.684,1.7584 -2.755,1.7584 h -22.494 V 486.91 c 0,1.0704 0,2.7524 -1.76,2.7524 -1.76,0 -1.76,-1.682 -1.76,-2.7524 v -22.5541 h -22.571 c -1.071,0 -2.754,0 -2.754,-1.7584 0,-1.7585 1.683,-1.7585 2.754,-1.7585 h 22.571 v -22.5541 c 0,-1.0703 0,-2.7523 1.76,-2.7523 1.76,0 1.76,1.682 1.76,2.7523 z" /></clipPath><clipPath
       id="clipPath50"
       clipPathUnits="userSpaceOnUse"><path
         id="path48"
         d="m 1253.223,492.2513 c 0,2.4587 -0.183,2.5498 -2.645,2.5498 -3.74,-3.6426 -8.574,-5.8281 -17.238,-5.8281 v -3.0051 c 2.462,0 7.387,0 12.677,2.4587 v -46.7157 c 0,-3.3694 -0.273,-4.4621 -8.938,-4.4621 h -3.192 v -3.0051 c 3.739,0.2732 11.583,0.2732 15.687,0.2732 4.105,0 12.04,0 15.779,-0.2732 v 3.0051 h -3.192 c -8.665,0 -8.938,1.0927 -8.938,4.4621 z" /></clipPath><clipPath
       id="clipPath60"
       clipPathUnits="userSpaceOnUse"><path
         id="path58"
         d="m 1545.008,553.9907 h 21.89 c -5.231,-21.6797 -8.524,-35.8102 -8.524,-51.2958 0,-2.7099 0,-23.6154 7.943,-23.6154 4.068,0 7.554,3.6778 7.554,6.9685 0,0.9678 0,1.355 -1.356,4.2585 -5.23,13.3563 -5.23,30.0032 -5.23,31.3582 0,1.1614 0,14.9048 4.068,32.326 h 21.696 c 2.518,0 8.911,0 8.911,6.1942 0,4.2586 -3.681,4.2586 -7.168,4.2586 h -63.731 c -4.456,0 -11.042,0 -19.953,-9.4849 -5.036,-5.6135 -11.235,-15.8727 -11.235,-17.0341 0,-1.1614 0.968,-1.5486 2.131,-1.5486 1.356,0 1.549,0.5808 2.518,1.7422 10.073,15.8726 20.146,15.8726 24.989,15.8726 h 11.042 c -4.262,-14.5176 -9.105,-31.3582 -24.989,-65.2327 -1.55,-3.0971 -1.55,-3.4843 -1.55,-4.6457 0,-4.0649 3.487,-5.0328 5.23,-5.0328 5.618,0 7.168,5.0328 9.492,13.1627 3.1,9.872 3.1,10.2592 5.037,18.0019 z" /></clipPath><clipPath
       id="clipPath70"
       clipPathUnits="userSpaceOnUse"><path
         id="path68"
         d="m 1615.274,471.9427 h 9.86 c 1.912,0 3.119,0 3.119,1.9102 0,1.4075 -1.308,1.4075 -3.018,1.4075 h -9.156 l 3.622,14.2761 c 0.403,1.508 0.403,2.0107 0.403,2.1113 0,2.1112 -1.61,3.1166 -3.32,3.1166 -3.421,0 -4.126,-2.7145 -5.232,-7.2386 l -3.119,-12.2654 h -9.659 c -1.911,0 -3.219,0 -3.219,-1.9102 0,-1.4075 1.308,-1.4075 3.018,-1.4075 h 9.055 l -6.037,-24.1286 c -0.603,-2.5134 -1.509,-6.0321 -1.509,-7.4396 0,-6.0322 4.93,-9.4504 10.262,-9.4504 10.766,0 16.903,14.1756 16.903,15.382 0,1.1059 -0.905,1.3069 -1.509,1.3069 -1.107,0 -1.207,-0.4021 -1.912,-1.9101 -2.012,-4.8257 -7.042,-11.9638 -13.18,-11.9638 -2.113,0 -3.32,1.4075 -3.32,4.7252 0,1.9102 0.302,3.0161 0.604,4.323 z" /></clipPath><clipPath
       id="clipPath80"
       clipPathUnits="userSpaceOnUse"><path
         id="path78"
         d="m 1674.106,460.839 h 22.494 c 1.071,0 2.755,0 2.755,1.7585 0,1.7584 -1.684,1.7584 -2.755,1.7584 h -22.494 V 486.91 c 0,1.0704 0,2.7524 -1.76,2.7524 -1.76,0 -1.76,-1.682 -1.76,-2.7524 v -22.5541 h -22.571 c -1.071,0 -2.754,0 -2.754,-1.7584 0,-1.7585 1.683,-1.7585 2.754,-1.7585 h 22.571 v -22.5541 c 0,-1.0703 0,-2.7523 1.76,-2.7523 1.76,0 1.76,1.682 1.76,2.7523 z" /></clipPath><clipPath
       id="clipPath90"
       clipPathUnits="userSpaceOnUse"><path
         id="path88"
         d="m 1734.223,492.2513 c 0,2.4587 -0.183,2.5498 -2.645,2.5498 -3.74,-3.6426 -8.574,-5.8281 -17.238,-5.8281 v -3.0051 c 2.462,0 7.387,0 12.677,2.4587 v -46.7157 c 0,-3.3694 -0.273,-4.4621 -8.938,-4.4621 h -3.192 v -3.0051 c 3.739,0.2732 11.583,0.2732 15.687,0.2732 4.105,0 12.04,0 15.779,-0.2732 v 3.0051 h -3.192 c -8.665,0 -8.938,1.0927 -8.938,4.4621 z" /></clipPath><clipPath
       id="clipPath100"
       clipPathUnits="userSpaceOnUse"><path
         id="path98"
         d="m 1499.316,1399.734 h 4.318 c 0.837,0 1.366,0 1.366,0.843 0,0.621 -0.573,0.621 -1.322,0.621 h -4.009 l 1.586,6.296 c 0.176,0.666 0.176,0.887 0.176,0.932 0,0.931 -0.705,1.374 -1.454,1.374 -1.498,0 -1.806,-1.197 -2.291,-3.192 l -1.366,-5.41 h -4.23 c -0.837,0 -1.409,0 -1.409,-0.843 0,-0.621 0.572,-0.621 1.321,-0.621 h 3.966 l -2.644,-10.642 c -0.264,-1.109 -0.661,-2.661 -0.661,-3.282 0,-2.66 2.159,-4.168 4.494,-4.168 4.715,0 7.402,6.253 7.402,6.785 0,0.487 -0.396,0.576 -0.66,0.576 -0.485,0 -0.529,-0.177 -0.838,-0.842 -0.881,-2.129 -3.084,-5.277 -5.771,-5.277 -0.926,0 -1.454,0.621 -1.454,2.084 0,0.842 0.132,1.33 0.264,1.907 z" /></clipPath><clipPath
       id="clipPath110"
       clipPathUnits="userSpaceOnUse"><path
         id="path108"
         d="m 1681.548,1326.15 h 8.299 c 1.609,0 2.625,0 2.625,1.62 0,1.193 -1.101,1.193 -2.54,1.193 h -7.706 l 3.048,12.102 c 0.339,1.278 0.339,1.704 0.339,1.789 0,1.79 -1.355,2.642 -2.794,2.642 -2.88,0 -3.472,-2.301 -4.404,-6.136 l -2.625,-10.397 h -8.129 c -1.609,0 -2.71,0 -2.71,-1.62 0,-1.193 1.101,-1.193 2.541,-1.193 h 7.621 l -5.081,-20.454 c -0.508,-2.13 -1.27,-5.113 -1.27,-6.306 0,-5.114 4.149,-8.011 8.637,-8.011 9.061,0 14.226,12.016 14.226,13.039 0,0.938 -0.762,1.108 -1.27,1.108 -0.931,0 -1.016,-0.341 -1.609,-1.619 -1.693,-4.091 -5.927,-10.142 -11.093,-10.142 -1.778,0 -2.794,1.193 -2.794,4.006 0,1.619 0.254,2.556 0.508,3.664 z" /></clipPath><clipPath
       id="clipPath126"
       clipPathUnits="userSpaceOnUse"><path
         style="clip-rule:evenodd"
         id="path124"
         d="M 608.769,583.5037 614.6975,535.258 568,557.0334 Z" /></clipPath><clipPath
       id="clipPath142"
       clipPathUnits="userSpaceOnUse"><path
         style="clip-rule:evenodd"
         id="path140"
         d="m 545.859,644.624 18.2133,-45.0673 -50.7421,8.9472 z" /></clipPath><clipPath
       id="clipPath158"
       clipPathUnits="userSpaceOnUse"><path
         style="clip-rule:evenodd"
         id="path156"
         d="m 545.859,119.8704 18.2133,45.0673 -50.7421,-8.9472 z" /></clipPath><clipPath
       id="clipPath174"
       clipPathUnits="userSpaceOnUse"><path
         style="clip-rule:evenodd"
         id="path172"
         d="m 656.0366,509.4034 -6.7605,-48.1361 -39.4704,33.1196 z" /></clipPath><clipPath
       id="clipPath190"
       clipPathUnits="userSpaceOnUse"><path
         style="clip-rule:evenodd"
         id="path188"
         d="m 655.0366,255.0909 -6.7605,48.1361 -39.4704,-33.1196 z" /></clipPath><clipPath
       id="clipPath206"
       clipPathUnits="userSpaceOnUse"><path
         style="clip-rule:evenodd"
         id="path204"
         d="m 602.0114,171.5183 7.6086,48.0094 -47.429,-20.1324 z" /></clipPath><clipPath
       id="clipPath224"
       clipPathUnits="userSpaceOnUse"><path
         style="clip-rule:evenodd"
         id="path222"
         d="M 0,800.9992 C 0,856.2281 44.77725,901 100.009,901 H 872.991 C 928.2245,901 973,856.223 973,800.9992 V 100.0008 C 973,44.77187 928.2228,0 872.991,0 H 100.009 C 44.77555,0 0,44.77696 0,100.0008 Z" /></clipPath><clipPath
       id="clipPath236"
       clipPathUnits="userSpaceOnUse"><path
         id="path234"
         d="m 272.4464,452 h -16.9285 c -1.1226,0 -2.1989,-0.4455 -2.9924,-1.2399 -0.7943,-0.7935 -1.2399,-1.8697 -1.2399,-2.9923 v -4.2322 h 25.3929 v 4.2322 c 0,1.1225 -0.4456,2.1988 -1.2399,2.9923 -0.7935,0.7944 -1.8697,1.2399 -2.9923,1.2399 z" /></clipPath><clipPath
       id="clipPath246"
       clipPathUnits="userSpaceOnUse"><path
         id="path244"
         d="m 302.0714,321.1506 c 7.8386,4.5487 13.5329,12.0426 15.8151,20.8135 h -3.1186 c -3.3676,0 -6.5971,-1.3374 -8.9777,-3.7188 -2.3814,-2.3806 -3.7188,-5.6101 -3.7188,-8.9777 z" /></clipPath><clipPath
       id="clipPath256"
       clipPathUnits="userSpaceOnUse"><path
         id="path254"
         d="m 145.4821,299.6429 c 1.1226,0 2.1989,0.4455 2.9924,1.2398 0.7943,0.7936 1.2399,1.8698 1.2399,2.9924 v 4.2321 h -25.3929 v -4.2321 c 0,-1.1225 0.4456,-2.1988 1.2399,-2.9924 0.7935,-0.7943 1.8697,-1.2398 2.9923,-1.2398 z" /></clipPath><clipPath
       id="clipPath266"
       clipPathUnits="userSpaceOnUse"><path
         id="path264"
         d="m 272.4464,299.6429 c 1.1225,0 2.1988,0.4455 2.9924,1.2398 0.7943,0.7936 1.2399,1.8698 1.2399,2.9924 v 4.2321 h -25.3929 v -4.2321 c 0,-1.1225 0.4455,-2.1988 1.2399,-2.9924 0.7935,-0.7943 1.8697,-1.2398 2.9923,-1.2398 z" /></clipPath><clipPath
       id="clipPath276"
       clipPathUnits="userSpaceOnUse"><path
         id="path274"
         d="m 314.7679,409.6786 h 3.1186 c -2.2822,8.7709 -7.9765,16.2647 -15.8151,20.8134 v -8.117 c 0,-3.3675 1.3374,-6.5971 3.7188,-8.9776 2.3806,-2.3815 5.6101,-3.7188 8.9777,-3.7188 z" /></clipPath><clipPath
       id="clipPath286"
       clipPathUnits="userSpaceOnUse"><path
         id="path284"
         d="m 124.3214,443.5357 h 25.3929 v 4.2322 c 0,1.1225 -0.4456,2.1988 -1.2399,2.9923 -0.7935,0.7943 -1.8697,1.2399 -2.9923,1.2399 h -16.9286 c -1.1225,0 -2.1988,-0.4456 -2.9923,-1.2399 -0.7944,-0.7935 -1.2399,-1.8697 -1.2399,-2.9923 z" /></clipPath><clipPath
       id="clipPath296"
       clipPathUnits="userSpaceOnUse"><path
         id="path294"
         d="m 141.25,401.2143 h -16.4211 c -6.3243,-16.3524 -6.3243,-34.4751 0,-50.8281 l 16.4211,0.0422 z" /></clipPath><clipPath
       id="clipPath306"
       clipPathUnits="userSpaceOnUse"><path
         id="path304"
         d="M 285.1429,435.0714 H 120.0893 c -10.0985,-0.0115 -19.7804,-4.0279 -26.92068,-11.168 -7.14004,-7.1409 -11.15656,-16.8227 -11.16799,-26.9206 v -42.3215 c 0.01158,-10.0985 4.02795,-19.7804 11.16799,-26.9206 7.14088,-7.1401 16.82278,-11.1566 26.92068,-11.168 h 165.0536 c 2.8575,0.01 5.7017,0.3844 8.4642,1.1134 v 11.583 c 0.007,5.6101 2.2384,10.9887 6.2052,14.9555 3.9668,3.9668 9.3454,6.1986 14.9556,6.2052 H 319 v 50.7857 h -4.2321 c -5.6102,0.007 -10.9888,2.2384 -14.9556,6.2052 -3.9668,3.9667 -6.1986,9.3454 -6.2052,14.9555 v 11.583 c -2.7625,0.729 -5.6067,1.1034 -8.4642,1.1134 v -0.001 z M 153.9464,418.1429 c -1.5118,0 -2.9087,0.8067 -3.665,2.116 -0.7563,1.3093 -0.7563,2.9227 0,4.2322 0.7563,1.3093 2.1533,2.116 3.665,2.116 h 33.8572 c 1.5118,0 2.9087,-0.8067 3.665,-2.116 0.7563,-1.3093 0.7563,-2.9227 0,-4.2322 -0.7563,-1.3093 -2.1533,-2.116 -3.665,-2.116 z m -29.1171,-76.1786 c -1.7069,0 -3.3741,0.5133 -4.7851,1.4738 -1.411,0.9597 -2.5012,2.322 -3.1286,3.9099 -7.0649,18.3262 -7.0649,38.6246 0,56.9519 0.6282,1.5871 1.7185,2.9485 3.1295,3.9073 1.411,0.9597 3.0782,1.4722 4.7842,1.4722 h 16.4211 c 2.245,0 4.3974,-0.8919 5.9853,-2.479 1.5871,-1.5879 2.479,-3.7404 2.479,-5.9853 v -50.7857 c 0,-2.245 -0.8919,-4.3974 -2.479,-5.9853 -1.5878,-1.5871 -3.7403,-2.479 -5.9853,-2.479 z m 29.1171,-16.9286 c -1.5118,0 -2.9087,0.8068 -3.665,2.1161 -0.7563,1.3093 -0.7563,2.9227 0,4.2321 0.7563,1.3093 2.1533,2.1161 3.665,2.1161 h 33.8572 c 1.5118,0 2.9087,-0.8068 3.665,-2.1161 0.7563,-1.3093 0.7563,-2.9227 0,-4.2321 -0.7563,-1.3093 -2.1533,-2.1161 -3.665,-2.1161 z m 152.2725,38.9357 c 0.234,-1.101 0.0166,-2.25 -0.6042,-3.1889 -0.6208,-0.9389 -1.5928,-1.5887 -2.6972,-1.8053 l -42.3214,-8.4642 c -1.1002,-0.224 -2.2441,-0.002 -3.1807,0.6166 -0.9365,0.6191 -1.5887,1.5846 -1.8135,2.6849 -0.0579,0.2785 -0.086,0.562 -0.0843,0.8464 8e-4,0.9746 0.3381,1.9193 0.9547,2.6749 0.6175,0.7547 1.4755,1.2738 2.4309,1.4681 l 42.3215,8.4642 c 1.0993,0.2249 2.2434,0.004 3.1798,-0.6141 0.9365,-0.6183 1.5887,-1.5829 1.8144,-2.6823 z m -3.3015,28.694 c 1.4375,-0.3398 2.5948,-1.4044 3.0518,-2.8087 0.458,-1.4052 0.1496,-2.9468 -0.8133,-4.0677 -0.9622,-1.1209 -2.4392,-1.659 -3.8974,-1.4193 l -42.3215,8.4643 c -0.9621,0.1885 -1.8292,0.7051 -2.4525,1.4614 -0.6241,0.7563 -0.9654,1.7061 -0.9671,2.6864 -0.002,0.2843 0.0265,0.5678 0.0843,0.8464 0.2249,1.1002 0.877,2.0656 1.8136,2.6849 0.9365,0.6192 2.0805,0.8406 3.1806,0.6166 z m -66.0214,33.0107 c 2.2913,-1.0903 3.9841,-3.136 4.6255,-5.5911 7.398,-29.0537 7.398,-59.4997 0,-88.5534 -0.6414,-2.4542 -2.3342,-4.5009 -4.6255,-5.5902 -2.4235,-1.1804 -5.2447,-1.2283 -7.7072,-0.1314 L 197.27,339.9538 c -1.5424,0.6596 -2.8592,1.7548 -3.789,3.1519 -0.9291,1.3961 -1.4317,3.0336 -1.4457,4.7116 v 56.0082 c 0.0132,1.6714 0.5108,3.303 1.4333,4.6966 0.9225,1.3936 2.2301,2.4889 3.7634,3.1542 l 31.9188,14.1439 c 2.4625,1.096 5.2837,1.0481 7.7072,-0.1315 z" /></clipPath><clipPath
       id="clipPath316"
       clipPathUnits="userSpaceOnUse"><path
         id="path314"
         d="m 200.6608,403.9398 -0.1612,-56.1225 32.0797,-14.2578 c 0.2347,-0.105 0.5083,-0.067 0.7067,0.0967 7.0698,27.6718 7.0698,56.6789 0,84.3508 -0.2033,0.1463 -0.4687,0.1752 -0.6985,0.0761 z" /></clipPath><clipPath
       id="clipPath332"
       clipPathUnits="userSpaceOnUse"><path
         style="clip-rule:evenodd"
         id="path330"
         d="M 2359.22,242.2375 2318,216.475 V 268 Z" /></clipPath><clipPath
       id="clipPath350"
       clipPathUnits="userSpaceOnUse"><path
         style="clip-rule:evenodd"
         id="path348"
         d="M 1760,800.9992 C 1760,856.2281 1804.777,901 1860.009,901 h 772.982 C 2688.224,901 2733,856.223 2733,800.9992 V 100.0008 C 2733,44.77187 2688.223,0 2632.991,0 H 1860.009 C 1804.776,0 1760,44.77696 1760,100.0008 Z" /></clipPath><clipPath
       id="clipPath362"
       clipPathUnits="userSpaceOnUse"><path
         id="path360"
         d="m 2035.446,595 h -16.928 c -1.123,0 -2.199,-0.4455 -2.992,-1.2399 -0.795,-0.7935 -1.24,-1.8697 -1.24,-2.9923 v -4.2322 h 25.392 v 4.2322 c 0,1.1225 -0.445,2.1988 -1.239,2.9923 -0.794,0.7944 -1.87,1.2399 -2.993,1.2399 z" /></clipPath><clipPath
       id="clipPath372"
       clipPathUnits="userSpaceOnUse"><path
         id="path370"
         d="m 2065.071,464.1506 c 7.839,4.5487 13.533,12.0426 15.816,20.8135 h -3.119 c -3.368,0 -6.597,-1.3374 -8.978,-3.7188 -2.381,-2.3806 -3.719,-5.6101 -3.719,-8.9777 z" /></clipPath><clipPath
       id="clipPath382"
       clipPathUnits="userSpaceOnUse"><path
         id="path380"
         d="m 1908.482,442.6429 c 1.123,0 2.199,0.4455 2.992,1.2398 0.795,0.7936 1.24,1.8698 1.24,2.9924 v 4.2321 h -25.392 v -4.2321 c 0,-1.1225 0.445,-2.1988 1.239,-2.9924 0.794,-0.7943 1.87,-1.2398 2.993,-1.2398 z" /></clipPath><clipPath
       id="clipPath392"
       clipPathUnits="userSpaceOnUse"><path
         id="path390"
         d="m 2035.446,442.6429 c 1.123,0 2.199,0.4455 2.993,1.2398 0.794,0.7936 1.24,1.8698 1.24,2.9924 v 4.2321 h -25.393 v -4.2321 c 0,-1.1225 0.445,-2.1988 1.24,-2.9924 0.793,-0.7943 1.869,-1.2398 2.992,-1.2398 z" /></clipPath><clipPath
       id="clipPath402"
       clipPathUnits="userSpaceOnUse"><path
         id="path400"
         d="m 2077.768,552.6786 h 3.119 c -2.283,8.7709 -7.977,16.2647 -15.816,20.8134 v -8.117 c 0,-3.3675 1.338,-6.5971 3.719,-8.9776 2.381,-2.3815 5.61,-3.7188 8.978,-3.7188 z" /></clipPath><clipPath
       id="clipPath412"
       clipPathUnits="userSpaceOnUse"><path
         id="path410"
         d="m 1887.321,586.5357 h 25.393 v 4.2322 c 0,1.1225 -0.445,2.1988 -1.24,2.9923 -0.793,0.7943 -1.869,1.2399 -2.992,1.2399 h -16.929 c -1.122,0 -2.198,-0.4456 -2.992,-1.2399 -0.794,-0.7935 -1.24,-1.8697 -1.24,-2.9923 z" /></clipPath><clipPath
       id="clipPath422"
       clipPathUnits="userSpaceOnUse"><path
         id="path420"
         d="m 1904.25,544.2143 h -16.421 c -6.324,-16.3524 -6.324,-34.4751 0,-50.8281 l 16.421,0.0422 z" /></clipPath><clipPath
       id="clipPath432"
       clipPathUnits="userSpaceOnUse"><path
         id="path430"
         d="m 2048.143,578.0714 h -165.054 c -10.098,-0.0115 -19.78,-4.0279 -26.92,-11.168 -7.14,-7.1409 -11.157,-16.8227 -11.168,-26.9206 v -42.3215 c 0.011,-10.0985 4.028,-19.7804 11.168,-26.9206 7.141,-7.1401 16.822,-11.1566 26.92,-11.168 h 165.054 c 2.857,0.01 5.702,0.3844 8.464,1.1134 v 11.583 c 0.01,5.6101 2.239,10.9887 6.205,14.9555 3.967,3.9668 9.346,6.1986 14.956,6.2052 H 2082 v 50.7857 h -4.232 c -5.61,0.007 -10.989,2.2384 -14.956,6.2052 -3.966,3.9667 -6.198,9.3454 -6.205,14.9555 v 11.583 c -2.762,0.729 -5.607,1.1034 -8.464,1.1134 v -10e-4 z m -131.197,-16.9285 c -1.511,0 -2.908,0.8067 -3.665,2.116 -0.756,1.3093 -0.756,2.9227 0,4.2322 0.757,1.3093 2.154,2.116 3.665,2.116 h 33.858 c 1.511,0 2.908,-0.8067 3.665,-2.116 0.756,-1.3093 0.756,-2.9227 0,-4.2322 -0.757,-1.3093 -2.154,-2.116 -3.665,-2.116 z m -29.117,-76.1786 c -1.707,0 -3.374,0.5133 -4.785,1.4738 -1.411,0.9597 -2.501,2.322 -3.128,3.9099 -7.065,18.3262 -7.065,38.6246 0,56.9519 0.628,1.5871 1.718,2.9485 3.129,3.9073 1.411,0.9597 3.078,1.4722 4.784,1.4722 h 16.421 c 2.245,0 4.398,-0.8919 5.986,-2.479 1.587,-1.5879 2.479,-3.7404 2.479,-5.9853 v -50.7857 c 0,-2.245 -0.892,-4.3974 -2.479,-5.9853 -1.588,-1.5871 -3.741,-2.479 -5.986,-2.479 z m 29.117,-16.9286 c -1.511,0 -2.908,0.8068 -3.665,2.1161 -0.756,1.3093 -0.756,2.9227 0,4.2321 0.757,1.3093 2.154,2.1161 3.665,2.1161 h 33.858 c 1.511,0 2.908,-0.8068 3.665,-2.1161 0.756,-1.3093 0.756,-2.9227 0,-4.2321 -0.757,-1.3093 -2.154,-2.1161 -3.665,-2.1161 z m 152.273,38.9357 c 0.234,-1.101 0.016,-2.25 -0.604,-3.1889 -0.621,-0.9389 -1.593,-1.5887 -2.697,-1.8053 l -42.322,-8.4642 c -1.1,-0.224 -2.244,-0.002 -3.181,0.6166 -0.936,0.6191 -1.588,1.5846 -1.813,2.6849 -0.058,0.2785 -0.086,0.562 -0.084,0.8464 0,0.9746 0.338,1.9193 0.954,2.6749 0.618,0.7547 1.476,1.2738 2.431,1.4681 l 42.322,8.4642 c 1.099,0.2249 2.243,0.004 3.179,-0.6141 0.937,-0.6183 1.589,-1.5829 1.815,-2.6823 z m -3.302,28.694 c 1.438,-0.3398 2.595,-1.4044 3.052,-2.8087 0.458,-1.4052 0.15,-2.9468 -0.813,-4.0677 -0.962,-1.1209 -2.439,-1.659 -3.898,-1.4193 l -42.321,8.4643 c -0.962,0.1885 -1.829,0.7051 -2.452,1.4614 -0.625,0.7563 -0.966,1.7061 -0.968,2.6864 -10e-4,0.2843 0.027,0.5678 0.085,0.8464 0.225,1.1002 0.877,2.0656 1.813,2.6849 0.937,0.6192 2.081,0.8406 3.181,0.6166 z m -66.021,33.0107 c 2.291,-1.0903 3.984,-3.136 4.626,-5.5911 7.398,-29.0537 7.398,-59.4997 0,-88.5534 -0.642,-2.4542 -2.335,-4.5009 -4.626,-5.5902 -2.424,-1.1804 -5.245,-1.2283 -7.707,-0.1314 l -31.919,14.1438 c -1.542,0.6596 -2.859,1.7548 -3.789,3.1519 -0.929,1.3961 -1.432,3.0336 -1.446,4.7116 v 56.0082 c 0.014,1.6714 0.511,3.303 1.434,4.6966 0.922,1.3936 2.23,2.4889 3.763,3.1542 l 31.919,14.1439 c 2.462,1.096 5.283,1.0481 7.707,-0.1315 z" /></clipPath><clipPath
       id="clipPath442"
       clipPathUnits="userSpaceOnUse"><path
         id="path440"
         d="m 1963.661,546.9398 -0.161,-56.1225 32.079,-14.2578 c 0.235,-0.105 0.509,-0.067 0.707,0.0967 7.07,27.6718 7.07,56.6789 0,84.3508 -0.203,0.1463 -0.469,0.1752 -0.698,0.0761 z" /></clipPath><clipPath
       id="clipPath452"
       clipPathUnits="userSpaceOnUse"><path
         id="path450"
         d="m 2433.963,290.7437 c -5.171,-1.0039 -7.84,-4.685 -7.84,-8.366 0,-4.0157 3.17,-5.3543 5.505,-5.3543 4.67,0 8.507,4.0157 8.507,9.0353 0,5.3543 -5.171,10.0393 -13.511,10.0393 -6.672,0 -14.345,-3.0118 -21.351,-13.2184 -1.167,8.8681 -7.839,13.2184 -14.511,13.2184 -6.506,0 -9.842,-5.0196 -11.843,-8.7007 -2.836,-6.0236 -5.338,-16.0628 -5.338,-16.8994 0,-0.6693 0.667,-1.5059 1.835,-1.5059 1.334,0 1.501,0.1673 2.502,4.0157 2.502,10.0393 5.671,19.7439 12.343,19.7439 4.003,0 5.171,-2.8445 5.171,-7.6968 0,-3.6811 -1.668,-10.2066 -2.836,-15.3935 l -4.67,-18.0707 c -0.667,-3.1791 -2.502,-10.7086 -3.336,-13.7204 -1.168,-4.3503 -3.003,-12.2144 -3.003,-13.051 0,-2.3425 1.835,-4.183 4.337,-4.183 1.835,0 5.004,1.1712 6.005,4.5176 0.501,1.3386 6.672,26.6041 7.673,30.4525 0.834,3.6811 1.835,7.1948 2.669,10.8759 0.667,2.3425 1.334,5.0196 1.835,7.1948 0.5,1.5059 5.004,9.7046 9.174,13.3857 2.001,1.8405 6.338,5.6889 13.177,5.6889 2.669,0 5.338,-0.502 7.506,-2.0079 z" /></clipPath><clipPath
       id="clipPath462"
       clipPathUnits="userSpaceOnUse"><path
         id="path460"
         d="m 2441.969,224.9027 h 8.718 c 1.691,0 2.758,0 2.758,1.6957 0,1.2494 -1.156,1.2494 -2.669,1.2494 h -8.096 l 3.203,12.6727 c 0.356,1.3387 0.356,1.7849 0.356,1.8741 0,1.8742 -1.424,2.7666 -2.936,2.7666 -3.025,0 -3.648,-2.4096 -4.626,-6.4256 l -2.758,-10.8878 h -8.541 c -1.69,0 -2.847,0 -2.847,-1.6957 0,-1.2494 1.157,-1.2494 2.669,-1.2494 h 8.007 l -5.338,-21.4186 c -0.534,-2.2311 -1.334,-5.3547 -1.334,-6.6041 0,-5.3547 4.359,-8.389 9.074,-8.389 9.52,0 14.947,12.5835 14.947,13.6544 0,0.9817 -0.801,1.1602 -1.335,1.1602 -0.979,0 -1.067,-0.357 -1.69,-1.6957 -1.78,-4.2837 -6.228,-10.6201 -11.655,-10.6201 -1.868,0 -2.936,1.2495 -2.936,4.1945 0,1.6957 0.267,2.6774 0.534,3.8375 z" /></clipPath><clipPath
       id="clipPath480"
       clipPathUnits="userSpaceOnUse"><path
         id="path478"
         d="m 686.963,429.7437 c -5.1708,-1.0039 -7.8396,-4.685 -7.8396,-8.366 0,-4.0157 3.1692,-5.3543 5.5044,-5.3543 4.6704,0 8.5069,4.0157 8.5069,9.0353 0,5.3543 -5.1709,10.0393 -13.5109,10.0393 -6.6721,0 -14.3449,-3.0118 -21.3506,-13.2184 -1.1676,8.8681 -7.8396,13.2184 -14.5117,13.2184 -6.5053,0 -9.8413,-5.0196 -11.8429,-8.7007 -2.8356,-6.0236 -5.3376,-16.0628 -5.3376,-16.8994 0,-0.6693 0.6672,-1.5059 1.8348,-1.5059 1.3344,0 1.5012,0.1673 2.502,4.0157 2.502,10.0393 5.6712,19.7439 12.3433,19.7439 4.0032,0 5.1708,-2.8445 5.1708,-7.6968 0,-3.6811 -1.668,-10.2066 -2.8356,-15.3935 l -4.6704,-18.0707 c -0.6672,-3.1791 -2.502,-10.7086 -3.336,-13.7204 -1.1677,-4.3503 -3.0025,-12.2144 -3.0025,-13.051 0,-2.3425 1.8348,-4.183 4.3369,-4.183 1.8348,0 5.004,1.1712 6.0048,4.5176 0.5004,1.3386 6.6721,26.6041 7.6729,30.4525 0.834,3.6811 1.8348,7.1948 2.6688,10.8759 0.6672,2.3425 1.3344,5.0196 1.8348,7.1948 0.5004,1.5059 5.004,9.7046 9.1741,13.3857 2.0016,1.8405 6.3384,5.6889 13.1773,5.6889 2.6688,0 5.3376,-0.502 7.506,-2.0079 z" /></clipPath><clipPath
       id="clipPath490"
       clipPathUnits="userSpaceOnUse"><path
         id="path488"
         d="m 694.9685,363.9027 h 8.7188 c 1.6904,0 2.758,0 2.758,1.6957 0,1.2494 -1.1566,1.2494 -2.669,1.2494 h -8.096 l 3.2028,12.6727 c 0.3559,1.3387 0.3559,1.7849 0.3559,1.8741 0,1.8742 -1.4235,2.7666 -2.936,2.7666 -3.0248,0 -3.6476,-2.4096 -4.6262,-6.4256 l -2.758,-10.8878 h -8.5409 c -1.6904,0 -2.8469,0 -2.8469,-1.6957 0,-1.2494 1.1565,-1.2494 2.669,-1.2494 h 8.007 l -5.338,-21.4186 c -0.5338,-2.2311 -1.3345,-5.3547 -1.3345,-6.6041 0,-5.3547 4.3594,-8.389 9.0746,-8.389 9.5195,0 14.9465,12.5835 14.9465,13.6544 0,0.9817 -0.8007,1.1602 -1.3345,1.1602 -0.9786,0 -1.0676,-0.357 -1.6904,-1.6957 -1.7793,-4.2837 -6.2277,-10.6201 -11.6547,-10.6201 -1.8683,0 -2.9359,1.2495 -2.9359,4.1945 0,1.6957 0.2669,2.6774 0.5338,3.8375 z" /></clipPath><clipPath
       id="clipPath512"
       clipPathUnits="userSpaceOnUse"><path
         style="clip-rule:evenodd"
         id="path510"
         d="M 762.8563,904.63 712,986 h 101.7125 z" /></clipPath><clipPath
       id="clipPath522"
       clipPathUnits="userSpaceOnUse"><path
         id="path520"
         d="m 902.9287,1179.026 c -4.9217,-0.959 -7.4619,-4.474 -7.4619,-7.99 0,-3.834 3.0165,-5.113 5.2392,-5.113 4.4453,0 8.0969,3.835 8.0969,8.629 0,5.113 -4.9217,9.587 -12.8598,9.587 -6.3505,0 -13.6536,-2.876 -20.3216,-12.623 -1.1114,8.468 -7.4619,12.623 -13.8124,12.623 -6.1917,0 -9.367,-4.794 -11.2721,-8.309 -2.699,-5.752 -5.0804,-15.339 -5.0804,-16.138 0,-0.639 0.635,-1.438 1.7464,-1.438 1.2701,0 1.4288,0.159 2.3814,3.834 2.3814,9.587 5.3979,18.855 11.7484,18.855 3.8103,0 4.9217,-2.716 4.9217,-7.35 0,-3.515 -1.5876,-9.747 -2.699,-14.7 l -4.4453,-17.257 c -0.6351,-3.036 -2.3815,-10.226 -3.1753,-13.102 -1.1113,-4.155 -2.8577,-11.665 -2.8577,-12.463 0,-2.237 1.7464,-3.995 4.1278,-3.995 1.7464,0 4.7629,1.118 5.7155,4.314 0.4763,1.278 6.3505,25.406 7.3031,29.081 0.7938,3.515 1.7464,6.871 2.5402,10.386 0.635,2.237 1.2701,4.793 1.7463,6.871 0.4763,1.438 4.7629,9.267 8.732,12.782 1.9052,1.758 6.033,5.433 12.5422,5.433 2.5403,0 5.0804,-0.479 7.1444,-1.917 z" /></clipPath><clipPath
       id="clipPath532"
       clipPathUnits="userSpaceOnUse"><path
         id="path530"
         d="m 910.5484,1116.15 h 8.2986 c 1.6089,0 2.625,0 2.625,1.62 0,1.193 -1.1008,1.193 -2.5404,1.193 h -7.7058 l 3.0485,12.102 c 0.3387,1.278 0.3387,1.704 0.3387,1.789 0,1.79 -1.3549,2.642 -2.7945,2.642 -2.879,0 -3.4718,-2.301 -4.4033,-6.136 l -2.625,-10.397 h -8.1293 c -1.6089,0 -2.7097,0 -2.7097,-1.62 0,-1.193 1.1008,-1.193 2.5404,-1.193 h 7.6211 l -5.0808,-20.454 c -0.508,-2.13 -1.2701,-5.113 -1.2701,-6.306 0,-5.114 4.1492,-8.011 8.6373,-8.011 9.0607,0 14.2261,12.016 14.2261,13.039 0,0.938 -0.7621,1.108 -1.2702,1.108 -0.9314,0 -1.0161,-0.341 -1.6089,-1.619 -1.6936,-4.091 -5.9276,-10.142 -11.093,-10.142 -1.7783,0 -2.7944,1.193 -2.7944,4.006 0,1.619 0.254,2.556 0.5081,3.664 z" /></clipPath><clipPath
       id="clipPath542"
       clipPathUnits="userSpaceOnUse"><path
         id="path540"
         d="m 1903.929,1150.026 c -4.922,-0.959 -7.462,-4.474 -7.462,-7.99 0,-3.834 3.016,-5.113 5.239,-5.113 4.445,0 8.097,3.835 8.097,8.629 0,5.113 -4.922,9.587 -12.86,9.587 -6.35,0 -13.653,-2.876 -20.322,-12.623 -1.111,8.468 -7.461,12.623 -13.812,12.623 -6.192,0 -9.367,-4.794 -11.272,-8.309 -2.699,-5.752 -5.08,-15.339 -5.08,-16.138 0,-0.639 0.635,-1.438 1.746,-1.438 1.27,0 1.429,0.159 2.381,3.834 2.382,9.587 5.398,18.855 11.749,18.855 3.81,0 4.921,-2.716 4.921,-7.35 0,-3.515 -1.587,-9.747 -2.698,-14.7 l -4.446,-17.257 c -0.635,-3.036 -2.381,-10.226 -3.175,-13.102 -1.111,-4.155 -2.858,-11.665 -2.858,-12.463 0,-2.237 1.747,-3.995 4.128,-3.995 1.746,0 4.763,1.118 5.715,4.314 0.477,1.278 6.351,25.406 7.304,29.081 0.793,3.515 1.746,6.871 2.54,10.386 0.635,2.237 1.27,4.793 1.746,6.871 0.476,1.438 4.763,9.267 8.732,12.782 1.905,1.758 6.033,5.433 12.542,5.433 2.541,0 5.081,-0.479 7.145,-1.917 z" /></clipPath><clipPath
       id="clipPath552"
       clipPathUnits="userSpaceOnUse"><path
         id="path550"
         d="m 1911.548,1087.15 h 8.299 c 1.609,0 2.625,0 2.625,1.62 0,1.193 -1.101,1.193 -2.54,1.193 h -7.706 l 3.048,12.102 c 0.339,1.278 0.339,1.704 0.339,1.789 0,1.79 -1.355,2.642 -2.794,2.642 -2.88,0 -3.472,-2.301 -4.404,-6.136 l -2.625,-10.397 h -8.129 c -1.609,0 -2.71,0 -2.71,-1.62 0,-1.193 1.101,-1.193 2.541,-1.193 h 7.621 l -5.081,-20.454 c -0.508,-2.13 -1.27,-5.113 -1.27,-6.306 0,-5.114 4.149,-8.011 8.637,-8.011 9.061,0 14.226,12.016 14.226,13.039 0,0.938 -0.762,1.108 -1.27,1.108 -0.931,0 -1.016,-0.341 -1.609,-1.619 -1.693,-4.091 -5.927,-10.142 -11.093,-10.142 -1.778,0 -2.794,1.193 -2.794,4.006 0,1.619 0.254,2.556 0.508,3.664 z" /></clipPath><clipPath
       id="clipPath568"
       clipPathUnits="userSpaceOnUse"><path
         style="clip-rule:evenodd"
         id="path566"
         d="M 1183.144,1039.37 1234,958 h -101.713 z" /></clipPath><clipPath
       id="clipPath584"
       clipPathUnits="userSpaceOnUse"><path
         style="clip-rule:evenodd"
         id="path582"
         d="M 2005.144,901.63 2056,983 h -101.713 z" /></clipPath><clipPath
       id="clipPath594"
       clipPathUnits="userSpaceOnUse"><path
         id="path592"
         d="m 1681.548,1326.15 h 8.299 c 1.609,0 2.625,0 2.625,1.62 0,1.193 -1.101,1.193 -2.54,1.193 h -7.706 l 3.048,12.102 c 0.339,1.278 0.339,1.704 0.339,1.789 0,1.79 -1.355,2.642 -2.794,2.642 -2.88,0 -3.472,-2.301 -4.404,-6.136 l -2.625,-10.397 h -8.129 c -1.609,0 -2.71,0 -2.71,-1.62 0,-1.193 1.101,-1.193 2.541,-1.193 h 7.621 l -5.081,-20.454 c -0.508,-2.13 -1.27,-5.113 -1.27,-6.306 0,-5.114 4.149,-8.011 8.637,-8.011 9.061,0 14.226,12.016 14.226,13.039 0,0.938 -0.762,1.108 -1.27,1.108 -0.931,0 -1.016,-0.341 -1.609,-1.619 -1.693,-4.091 -5.927,-10.142 -11.093,-10.142 -1.778,0 -2.794,1.193 -2.794,4.006 0,1.619 0.254,2.556 0.508,3.664 z" /></clipPath><clipPath
       id="clipPath610"
       clipPathUnits="userSpaceOnUse"><path
         style="clip-rule:evenodd"
         id="path608"
         d="M 1549.856,1039.37 1499,958 h 101.713 z" /></clipPath><clipPath
       id="clipPath640"
       clipPathUnits="userSpaceOnUse"><path
         id="path638"
         d="m 1256.446,1310 h -16.928 c -1.123,0 -2.199,-0.446 -2.992,-1.24 -0.795,-0.793 -1.24,-1.87 -1.24,-2.992 v -4.232 h 25.392 v 4.232 c 0,1.122 -0.445,2.199 -1.239,2.992 -0.794,0.794 -1.87,1.24 -2.993,1.24 z" /></clipPath><clipPath
       id="clipPath650"
       clipPathUnits="userSpaceOnUse"><path
         id="path648"
         d="m 1286.071,1179.151 c 7.839,4.548 13.533,12.042 15.816,20.813 h -3.119 c -3.368,0 -6.597,-1.337 -8.978,-3.719 -2.381,-2.38 -3.719,-5.61 -3.719,-8.977 z" /></clipPath><clipPath
       id="clipPath660"
       clipPathUnits="userSpaceOnUse"><path
         id="path658"
         d="m 1129.482,1157.643 c 1.123,0 2.199,0.445 2.992,1.24 0.795,0.793 1.24,1.869 1.24,2.992 v 4.232 h -25.392 v -4.232 c 0,-1.122 0.445,-2.199 1.239,-2.992 0.794,-0.795 1.87,-1.24 2.993,-1.24 z" /></clipPath><clipPath
       id="clipPath670"
       clipPathUnits="userSpaceOnUse"><path
         id="path668"
         d="m 1256.446,1157.643 c 1.123,0 2.199,0.445 2.993,1.24 0.794,0.793 1.24,1.869 1.24,2.992 v 4.232 h -25.393 v -4.232 c 0,-1.122 0.445,-2.199 1.24,-2.992 0.793,-0.795 1.869,-1.24 2.992,-1.24 z" /></clipPath><clipPath
       id="clipPath680"
       clipPathUnits="userSpaceOnUse"><path
         id="path678"
         d="m 1298.768,1267.679 h 3.119 c -2.283,8.77 -7.977,16.264 -15.816,20.813 v -8.117 c 0,-3.368 1.338,-6.597 3.719,-8.978 2.381,-2.381 5.61,-3.718 8.978,-3.718 z" /></clipPath><clipPath
       id="clipPath690"
       clipPathUnits="userSpaceOnUse"><path
         id="path688"
         d="m 1108.321,1301.536 h 25.393 v 4.232 c 0,1.122 -0.445,2.199 -1.24,2.992 -0.793,0.795 -1.869,1.24 -2.992,1.24 h -16.929 c -1.122,0 -2.198,-0.445 -2.992,-1.24 -0.794,-0.793 -1.24,-1.87 -1.24,-2.992 z" /></clipPath><clipPath
       id="clipPath700"
       clipPathUnits="userSpaceOnUse"><path
         id="path698"
         d="m 1125.25,1259.214 h -16.421 c -6.324,-16.352 -6.324,-34.475 0,-50.828 l 16.421,0.042 z" /></clipPath><clipPath
       id="clipPath710"
       clipPathUnits="userSpaceOnUse"><path
         id="path708"
         d="m 1269.143,1293.071 h -165.054 c -10.098,-0.011 -19.78,-4.028 -26.92,-11.168 -7.14,-7.14 -11.157,-16.822 -11.168,-26.92 v -42.322 c 0.011,-10.098 4.028,-19.78 11.168,-26.92 7.141,-7.14 16.822,-11.157 26.92,-11.168 h 165.054 c 2.857,0.01 5.702,0.384 8.464,1.113 v 11.583 c 0.01,5.61 2.239,10.989 6.205,14.956 3.967,3.966 9.346,6.198 14.956,6.205 H 1303 v 50.785 h -4.232 c -5.61,0.01 -10.989,2.239 -14.956,6.206 -3.966,3.966 -6.198,9.345 -6.205,14.955 v 11.583 c -2.762,0.729 -5.607,1.104 -8.464,1.114 v 0 z m -131.197,-16.928 c -1.511,0 -2.908,0.807 -3.665,2.116 -0.756,1.309 -0.756,2.923 0,4.232 0.757,1.309 2.154,2.116 3.665,2.116 h 33.858 c 1.511,0 2.908,-0.807 3.665,-2.116 0.756,-1.309 0.756,-2.923 0,-4.232 -0.757,-1.309 -2.154,-2.116 -3.665,-2.116 z m -29.117,-76.179 c -1.707,0 -3.374,0.514 -4.785,1.474 -1.411,0.96 -2.501,2.322 -3.128,3.91 -7.065,18.326 -7.065,38.625 0,56.952 0.628,1.587 1.718,2.948 3.129,3.907 1.411,0.96 3.078,1.472 4.784,1.472 h 16.421 c 2.245,0 4.398,-0.892 5.986,-2.479 1.587,-1.587 2.479,-3.74 2.479,-5.985 v -50.786 c 0,-2.245 -0.892,-4.397 -2.479,-5.985 -1.588,-1.587 -3.741,-2.479 -5.986,-2.479 z m 29.117,-16.928 c -1.511,0 -2.908,0.806 -3.665,2.116 -0.756,1.309 -0.756,2.923 0,4.232 0.757,1.309 2.154,2.116 3.665,2.116 h 33.858 c 1.511,0 2.908,-0.807 3.665,-2.116 0.756,-1.309 0.756,-2.923 0,-4.232 -0.757,-1.31 -2.154,-2.116 -3.665,-2.116 z m 152.273,38.935 c 0.234,-1.101 0.016,-2.25 -0.604,-3.188 -0.621,-0.939 -1.593,-1.589 -2.697,-1.806 l -42.322,-8.464 c -1.1,-0.224 -2.244,0 -3.181,0.617 -0.936,0.619 -1.588,1.584 -1.813,2.684 -0.058,0.279 -0.086,0.563 -0.084,0.847 0,0.974 0.338,1.919 0.954,2.675 0.618,0.755 1.476,1.274 2.431,1.468 l 42.322,8.464 c 1.099,0.225 2.243,0 3.179,-0.614 0.937,-0.618 1.589,-1.583 1.815,-2.682 z m -3.302,28.694 c 1.438,-0.339 2.595,-1.404 3.052,-2.808 0.458,-1.406 0.15,-2.947 -0.813,-4.068 -0.962,-1.121 -2.439,-1.659 -3.898,-1.419 l -42.321,8.464 c -0.962,0.188 -1.829,0.705 -2.452,1.461 -0.625,0.757 -0.966,1.706 -0.968,2.687 -10e-4,0.284 0.027,0.568 0.085,0.846 0.225,1.1 0.877,2.066 1.813,2.685 0.937,0.619 2.081,0.841 3.181,0.617 z m -66.021,33.011 c 2.291,-1.09 3.984,-3.136 4.626,-5.591 7.398,-29.054 7.398,-59.5 0,-88.553 -0.642,-2.455 -2.335,-4.501 -4.626,-5.591 -2.424,-1.18 -5.245,-1.228 -7.707,-0.131 l -31.919,14.144 c -1.542,0.659 -2.859,1.755 -3.789,3.152 -0.929,1.396 -1.432,3.033 -1.446,4.711 v 56.008 c 0.014,1.672 0.511,3.303 1.434,4.697 0.922,1.394 2.23,2.489 3.763,3.154 l 31.919,14.144 c 2.462,1.096 5.283,1.048 7.707,-0.131 z" /></clipPath><clipPath
       id="clipPath720"
       clipPathUnits="userSpaceOnUse"><path
         id="path718"
         d="m 1184.661,1261.94 -0.161,-56.123 32.079,-14.258 c 0.235,-0.105 0.509,-0.066 0.707,0.097 7.07,27.672 7.07,56.679 0,84.351 -0.203,0.146 -0.469,0.175 -0.698,0.076 z" /></clipPath><clipPath
       id="clipPath730"
       clipPathUnits="userSpaceOnUse"><path
         id="path728"
         d="m 2035.446,308.4944 h -16.928 c -1.123,0 -2.199,-0.4456 -2.992,-1.2399 -0.795,-0.7935 -1.24,-1.8698 -1.24,-2.9924 V 300.03 h 25.392 v 4.2321 c 0,1.1226 -0.445,2.1989 -1.239,2.9924 -0.794,0.7943 -1.87,1.2399 -2.993,1.2399 z" /></clipPath><clipPath
       id="clipPath740"
       clipPathUnits="userSpaceOnUse"><path
         id="path738"
         d="m 2065.071,177.645 c 7.839,4.5487 13.533,12.0425 15.816,20.8134 h -3.119 c -3.368,0 -6.597,-1.3374 -8.978,-3.7187 -2.381,-2.3806 -3.719,-5.6102 -3.719,-8.9777 z" /></clipPath><clipPath
       id="clipPath750"
       clipPathUnits="userSpaceOnUse"><path
         id="path748"
         d="m 1908.482,156.1372 c 1.123,0 2.199,0.4456 2.992,1.2399 0.795,0.7935 1.24,1.8698 1.24,2.9924 v 4.2321 h -25.392 v -4.2321 c 0,-1.1226 0.445,-2.1989 1.239,-2.9924 0.794,-0.7943 1.87,-1.2399 2.993,-1.2399 z" /></clipPath><clipPath
       id="clipPath760"
       clipPathUnits="userSpaceOnUse"><path
         id="path758"
         d="m 2035.446,156.1372 c 1.123,0 2.199,0.4456 2.993,1.2399 0.794,0.7935 1.24,1.8698 1.24,2.9924 v 4.2321 h -25.393 v -4.2321 c 0,-1.1226 0.445,-2.1989 1.24,-2.9924 0.793,-0.7943 1.869,-1.2399 2.992,-1.2399 z" /></clipPath><clipPath
       id="clipPath770"
       clipPathUnits="userSpaceOnUse"><path
         id="path768"
         d="m 2077.768,266.1729 h 3.119 c -2.283,8.7709 -7.977,16.2648 -15.816,20.8135 v -8.117 c 0,-3.3675 1.338,-6.5971 3.719,-8.9777 2.381,-2.3814 5.61,-3.7188 8.978,-3.7188 z" /></clipPath><clipPath
       id="clipPath780"
       clipPathUnits="userSpaceOnUse"><path
         id="path778"
         d="m 1887.321,300.0301 h 25.393 v 4.2321 c 0,1.1225 -0.445,2.1988 -1.24,2.9924 -0.793,0.7943 -1.869,1.2399 -2.992,1.2399 h -16.929 c -1.122,0 -2.198,-0.4456 -2.992,-1.2399 -0.794,-0.7936 -1.24,-1.8698 -1.24,-2.9924 z" /></clipPath><clipPath
       id="clipPath790"
       clipPathUnits="userSpaceOnUse"><path
         id="path788"
         d="m 1904.25,257.7087 h -16.421 c -6.324,-16.3524 -6.324,-34.4751 0,-50.8281 l 16.421,0.0422 z" /></clipPath><clipPath
       id="clipPath800"
       clipPathUnits="userSpaceOnUse"><path
         id="path798"
         d="m 2048.143,291.5658 h -165.054 c -10.098,-0.0116 -19.78,-4.0279 -26.92,-11.168 -7.14,-7.1409 -11.157,-16.8228 -11.168,-26.9207 v -42.3214 c 0.011,-10.0985 4.028,-19.7804 11.168,-26.9206 7.141,-7.1401 16.822,-11.1566 26.92,-11.168 h 165.054 c 2.857,0.01 5.702,0.3843 8.464,1.1134 v 11.5829 c 0.01,5.6102 2.239,10.9888 6.205,14.9556 3.967,3.9668 9.346,6.1986 14.956,6.2051 H 2082 v 50.7858 h -4.232 c -5.61,0.007 -10.989,2.2383 -14.956,6.2051 -3.966,3.9668 -6.198,9.3454 -6.205,14.9556 v 11.5829 c -2.762,0.7291 -5.607,1.1035 -8.464,1.1134 v -10e-4 z m -131.197,-16.9286 c -1.511,0 -2.908,0.8068 -3.665,2.1161 -0.756,1.3093 -0.756,2.9227 0,4.2321 0.757,1.3094 2.154,2.1161 3.665,2.1161 h 33.858 c 1.511,0 2.908,-0.8067 3.665,-2.1161 0.756,-1.3093 0.756,-2.9227 0,-4.2321 -0.757,-1.3093 -2.154,-2.1161 -3.665,-2.1161 z m -29.117,-76.1785 c -1.707,0 -3.374,0.5133 -4.785,1.4738 -1.411,0.9596 -2.501,2.3219 -3.128,3.9098 -7.065,18.3263 -7.065,38.6247 0,56.952 0.628,1.587 1.718,2.9485 3.129,3.9073 1.411,0.9597 3.078,1.4721 4.784,1.4721 h 16.421 c 2.245,0 4.398,-0.8918 5.986,-2.4789 1.587,-1.5879 2.479,-3.7404 2.479,-5.9853 v -50.7858 c 0,-2.2449 -0.892,-4.3974 -2.479,-5.9853 -1.588,-1.587 -3.741,-2.4789 -5.986,-2.4789 z m 29.117,-16.9286 c -1.511,0 -2.908,0.8067 -3.665,2.1161 -0.756,1.3093 -0.756,2.9227 0,4.2321 0.757,1.3093 2.154,2.1161 3.665,2.1161 h 33.858 c 1.511,0 2.908,-0.8068 3.665,-2.1161 0.756,-1.3093 0.756,-2.9227 0,-4.2321 -0.757,-1.3094 -2.154,-2.1161 -3.665,-2.1161 z m 152.273,38.9357 c 0.234,-1.101 0.016,-2.25 -0.604,-3.1889 -0.621,-0.9389 -1.593,-1.5887 -2.697,-1.8053 l -42.322,-8.4643 c -1.1,-0.224 -2.244,-0.002 -3.181,0.6167 -0.936,0.6191 -1.588,1.5846 -1.813,2.6848 -0.058,0.2786 -0.086,0.5621 -0.084,0.8465 0,0.9745 0.338,1.9193 0.954,2.6749 0.618,0.7547 1.476,1.2738 2.431,1.468 l 42.322,8.4643 c 1.099,0.2248 2.243,0.004 3.179,-0.6141 0.937,-0.6183 1.589,-1.583 1.815,-2.6824 z m -3.302,28.6939 c 1.438,-0.3397 2.595,-1.4043 3.052,-2.8086 0.458,-1.4052 0.15,-2.9469 -0.813,-4.0678 -0.962,-1.1208 -2.439,-1.6589 -3.898,-1.4192 l -42.321,8.4643 c -0.962,0.1884 -1.829,0.7051 -2.452,1.4614 -0.625,0.7563 -0.966,1.7061 -0.968,2.6863 -10e-4,0.2844 0.027,0.5679 0.085,0.8465 0.225,1.1001 0.877,2.0656 1.813,2.6848 0.937,0.6193 2.081,0.8407 3.181,0.6167 z m -66.021,33.0107 c 2.291,-1.0902 3.984,-3.136 4.626,-5.591 7.398,-29.0537 7.398,-59.4997 0,-88.5534 -0.642,-2.4542 -2.335,-4.5009 -4.626,-5.5902 -2.424,-1.1804 -5.245,-1.2284 -7.707,-0.1315 l -31.919,14.1439 c -1.542,0.6596 -2.859,1.7548 -3.789,3.1518 -0.929,1.3962 -1.432,3.0336 -1.446,4.7117 v 56.0082 c 0.014,1.6713 0.511,3.3029 1.434,4.6966 0.922,1.3936 2.23,2.4889 3.763,3.1542 l 31.919,14.1438 c 2.462,1.0961 5.283,1.0481 7.707,-0.1314 z" /></clipPath><clipPath
       id="clipPath810"
       clipPathUnits="userSpaceOnUse"><path
         id="path808"
         d="m 1963.661,260.4342 -0.161,-56.1225 32.079,-14.2579 c 0.235,-0.1049 0.509,-0.0669 0.707,0.0967 7.07,27.6719 7.07,56.679 0,84.3509 -0.203,0.1463 -0.469,0.1752 -0.698,0.076 z" /></clipPath><clipPath
       id="clipPath820"
       clipPathUnits="userSpaceOnUse"><path
         style="clip-rule:evenodd"
         id="path818"
         d="m 1538.15,1361.547 39.328,-28.568 -47.774,-19.301 z" /></clipPath><clipPath
       id="clipPath830"
       clipPathUnits="userSpaceOnUse"><path
         style="clip-rule:evenodd"
         id="path828"
         d="M 1588.328,1246.131 1549,1274.698 1596.773,1294 Z" /></clipPath><clipPath
       id="clipPath840"
       clipPathUnits="userSpaceOnUse"><path
         id="path838"
         d="m 1420.188,1442.991 -14.621,5.863 c -3.621,1.396 -11.976,4.746 -11.976,13.122 0,12.005 14.621,24.15 17.546,24.15 0.278,0 1.531,-0.279 1.949,-0.418 3.76,-1.117 7.38,-1.117 9.887,-1.117 4.317,0 12.532,0 12.532,4.048 0,3.071 -5.013,3.49 -11,3.49 -2.785,0 -6.545,0 -11.558,-1.675 -3.342,2.792 -4.735,7.259 -4.735,11.447 0,7.678 5.013,18.566 16.014,23.731 2.507,-2.931 5.849,-2.931 8.773,-2.931 3.481,0 11.975,0 11.975,4.048 0,3.49 -6.684,3.49 -11.14,3.49 -2.785,0 -4.873,0 -8.772,-0.698 -0.697,1.675 -0.836,1.954 -0.836,5.025 0,2.513 0.557,4.467 0.557,4.886 0,0.838 -0.696,1.396 -1.392,1.396 -2.228,0 -2.228,-5.165 -2.228,-6.282 0,-1.954 0.139,-3.908 0.974,-5.723 -16.71,-4.886 -24.09,-16.752 -24.09,-25.825 0,-8.376 5.57,-12.983 9.33,-15.077 -14.343,-7.817 -20.47,-22.056 -20.47,-29.594 0,-12.145 11.001,-16.473 16.014,-18.567 l 12.532,-5.025 c 3.482,-1.257 9.191,-3.63 10.166,-4.188 1.392,-0.977 2.506,-2.652 2.506,-4.886 0,-2.931 -2.228,-7.678 -7.102,-7.678 -2.088,0 -6.684,0.559 -11.697,4.328 -0.974,0.837 -1.114,0.977 -1.671,0.977 -0.696,0 -1.392,-0.558 -1.392,-1.396 0,-1.536 7.241,-6.701 14.76,-6.701 8.912,0 14.343,8.655 14.343,14.658 0,4.327 -2.367,7.817 -6.823,9.772 z m 7.102,83.758 c 2.367,0.698 4.873,0.698 6.684,0.698 4.595,0 5.013,-0.14 7.798,-0.838 -1.671,-0.698 -2.785,-1.116 -8.634,-1.116 -2.646,0 -4.317,0 -5.848,1.256 z m -11.001,-38.25 c 3.342,0.838 6.405,0.838 8.076,0.838 4.596,0 4.874,-0.14 7.938,-0.838 -1.532,-0.698 -2.785,-1.116 -8.773,-1.116 -3.342,0 -4.735,0 -7.241,1.116 z" /></clipPath><clipPath
       id="clipPath850"
       clipPathUnits="userSpaceOnUse"><path
         id="path848"
         d="m 1470.365,1438.262 h 10.676 c -1.95,-8.469 -3.621,-15.356 -3.621,-22.243 0,-0.651 0,-4.653 1.021,-8.003 1.207,-3.909 2.135,-4.653 3.806,-4.653 2.043,0 4.178,1.768 4.178,4.001 0,0.652 -0.093,0.838 -0.464,1.676 -1.95,4.281 -3.342,8.748 -3.342,16.379 0,2.14 0,6.049 1.392,12.843 h 11.233 c 1.485,0 2.507,0 3.435,0.744 1.114,1.024 1.392,2.234 1.392,2.792 0,2.606 -2.32,2.606 -3.899,2.606 h -33.512 c -1.95,0 -5.478,0 -10.026,-4.467 -3.342,-3.35 -5.942,-7.631 -5.942,-8.283 0,-0.837 0.65,-1.117 1.393,-1.117 0.928,0 1.114,0.28 1.671,1.024 4.549,6.701 10.026,6.701 12.161,6.701 h 5.384 c -2.692,-9.865 -7.612,-21.126 -11.047,-27.919 -0.65,-1.396 -1.578,-3.258 -1.578,-4.095 0,-1.955 1.578,-2.885 3.063,-2.885 3.528,0 4.456,3.536 6.406,11.167 z" /></clipPath><clipPath
       id="clipPath866"
       clipPathUnits="userSpaceOnUse"><path
         style="clip-rule:evenodd"
         id="path864"
         d="M 1669.22,1236.238 1628,1210.475 V 1262 Z" /></clipPath><clipPath
       id="clipPath876"
       clipPathUnits="userSpaceOnUse"><path
         id="path874"
         d="m 1432.581,1115.199 -12.104,4.842 c -2.997,1.153 -9.914,3.919 -9.914,10.836 0,9.914 12.104,19.943 14.525,19.943 0.231,0 1.268,-0.23 1.614,-0.345 3.113,-0.923 6.11,-0.923 8.185,-0.923 3.574,0 10.375,0 10.375,3.343 0,2.537 -4.15,2.882 -9.107,2.882 -2.305,0 -5.418,0 -9.568,-1.383 -2.767,2.306 -3.92,5.995 -3.92,9.453 0,6.34 4.15,15.332 13.258,19.598 2.075,-2.421 4.841,-2.421 7.262,-2.421 2.882,0 9.914,0 9.914,3.343 0,2.882 -5.533,2.882 -9.222,2.882 -2.306,0 -4.035,0 -7.263,-0.577 -0.576,1.384 -0.691,1.614 -0.691,4.151 0,2.075 0.461,3.688 0.461,4.034 0,0.692 -0.577,1.153 -1.153,1.153 -1.845,0 -1.845,-4.265 -1.845,-5.187 0,-1.614 0.116,-3.228 0.807,-4.727 -13.833,-4.035 -19.943,-13.834 -19.943,-21.327 0,-6.916 4.611,-10.721 7.724,-12.45 -11.874,-6.456 -16.946,-18.214 -16.946,-24.439 0,-10.03 9.107,-13.603 13.257,-15.332 l 10.375,-4.15 c 2.882,-1.038 7.608,-2.998 8.415,-3.459 1.153,-0.807 2.075,-2.19 2.075,-4.035 0,-2.421 -1.844,-6.34 -5.879,-6.34 -1.729,0 -5.533,0.461 -9.683,3.574 -0.807,0.691 -0.923,0.807 -1.384,0.807 -0.576,0 -1.153,-0.462 -1.153,-1.153 0,-1.268 5.995,-5.534 12.22,-5.534 7.378,0 11.874,7.148 11.874,12.105 0,3.573 -1.96,6.455 -5.649,8.069 z m 5.88,69.168 c 1.959,0.576 4.034,0.576 5.533,0.576 3.804,0 4.15,-0.115 6.456,-0.691 -1.384,-0.577 -2.306,-0.923 -7.148,-0.923 -2.19,0 -3.573,0 -4.841,1.038 z m -9.107,-31.587 c 2.766,0.692 5.302,0.692 6.686,0.692 3.804,0 4.035,-0.115 6.571,-0.692 -1.268,-0.576 -2.306,-0.922 -7.263,-0.922 -2.767,0 -3.919,0 -5.994,0.922 z" /></clipPath><clipPath
       id="clipPath886"
       clipPathUnits="userSpaceOnUse"><path
         id="path884"
         d="m 1497.39,1084.583 c 0.125,0.249 0.25,0.623 0.25,0.873 0,0.124 -0.062,0.872 -0.938,0.872 -0.687,0 -0.75,-0.187 -1.375,-1.558 -4.002,-9.104 -6.94,-12.596 -17.132,-12.596 h -11.379 c -0.563,0.125 -0.751,0.125 -0.751,0.562 0,0.498 0.125,0.997 0.251,1.371 l 4.314,17.023 h 6.69 c 4.564,0 5.502,-0.749 5.502,-2.744 0,-0.062 0,-1.06 -0.438,-2.806 -0.125,-0.312 -0.187,-0.686 -0.187,-0.873 0,-0.062 0.062,-0.873 0.938,-0.873 0.75,0 0.875,0.375 1.125,1.434 l 3.314,13.032 c 0.062,0.187 0.25,1.123 0.25,1.247 0,0.624 -0.5,0.936 -0.938,0.936 -0.813,0 -0.875,-0.437 -1.188,-1.497 -1.25,-4.863 -2.939,-5.799 -8.316,-5.799 h -6.252 l 3.751,14.903 c 0.563,2.244 0.626,2.369 3.189,2.369 h 9.754 c 7.503,0 9.879,-1.497 9.879,-6.984 0,-1.309 -0.313,-2.868 -0.313,-4.052 0,-0.749 0.438,-1.06 0.938,-1.06 0.875,0 0.938,0.561 1.063,1.621 l 1.125,10.6 c 0.063,0.311 0.063,0.748 0.063,1.06 0,0.873 -0.75,0.873 -1.876,0.873 h -32.95 c -1.188,0 -1.938,0 -1.938,-1.185 0,-0.873 0.812,-0.873 1.875,-0.873 0.188,0 1.313,0 2.376,-0.125 1.313,-0.124 1.438,-0.312 1.438,-0.873 0,-0.311 -0.125,-0.686 -0.187,-0.997 l -8.379,-33.421 c -0.562,-2.37 -0.687,-2.869 -5.314,-2.869 -1.188,0 -1.938,0 -1.938,-1.184 0,-0.873 0.812,-0.873 1.875,-0.873 h 33.826 c 1.563,0 1.626,0 2.126,1.122 z" /></clipPath><clipPath
       id="clipPath896"
       clipPathUnits="userSpaceOnUse"><path
         id="path894"
         d="m 2550.71,225.5759 -14.346,5.7381 c -3.552,1.3663 -11.749,4.6452 -11.749,12.8427 0,11.7496 14.345,23.6358 17.214,23.6358 0.273,0 1.503,-0.2732 1.913,-0.4098 3.689,-1.093 7.241,-1.093 9.7,-1.093 4.235,0 12.296,0 12.296,3.9621 0,3.0057 -4.918,3.4155 -10.793,3.4155 -2.733,0 -6.421,0 -11.34,-1.6394 -3.279,2.7324 -4.645,7.1044 -4.645,11.2031 0,7.5143 4.918,18.1709 15.712,23.226 2.459,-2.8691 5.738,-2.8691 8.607,-2.8691 3.416,0 11.75,0 11.75,3.9621 0,3.4156 -6.558,3.4156 -10.93,3.4156 -2.733,0 -4.782,0 -8.608,-0.6831 -0.683,1.6394 -0.819,1.9127 -0.819,4.9184 0,2.4592 0.546,4.372 0.546,4.7818 0,0.8198 -0.683,1.3663 -1.366,1.3663 -2.186,0 -2.186,-5.0551 -2.186,-6.1481 0,-1.9127 0.137,-3.8255 0.956,-5.6016 -16.394,-4.7818 -23.636,-16.3948 -23.636,-25.2753 0,-8.1974 5.465,-12.706 9.154,-14.7554 -14.072,-7.6509 -20.083,-21.5865 -20.083,-28.9641 0,-11.8863 10.793,-16.1216 15.711,-18.171 l 12.296,-4.9184 c 3.416,-1.2296 9.018,-3.5522 9.974,-4.0987 1.366,-0.9564 2.459,-2.5959 2.459,-4.7819 0,-2.8691 -2.186,-7.5143 -6.968,-7.5143 -2.049,0 -6.558,0.5465 -11.476,4.2354 -0.956,0.8197 -1.093,0.9563 -1.64,0.9563 -0.683,0 -1.366,-0.5465 -1.366,-1.3662 0,-1.5029 7.105,-6.5579 14.482,-6.5579 8.744,0 14.073,8.4706 14.073,14.3454 0,4.2354 -2.323,7.651 -6.695,9.5637 z m 6.967,81.9741 c 2.323,0.6831 4.782,0.6831 6.558,0.6831 4.509,0 4.919,-0.1366 7.651,-0.8197 -1.639,-0.6832 -2.732,-1.093 -8.47,-1.093 -2.596,0 -4.236,0 -5.739,1.2296 z m -10.793,-37.4349 c 3.279,0.8198 6.285,0.8198 7.924,0.8198 4.509,0 4.782,-0.1366 7.788,-0.8198 -1.503,-0.6831 -2.733,-1.093 -8.607,-1.093 -3.279,0 -4.646,0 -7.105,1.093 z" /></clipPath><clipPath
       id="clipPath906"
       clipPathUnits="userSpaceOnUse"><path
         id="path904"
         d="m 2619.39,190.5826 c 0.125,0.2494 0.25,0.6235 0.25,0.873 0,0.1247 -0.062,0.8729 -0.938,0.8729 -0.687,0 -0.75,-0.1871 -1.375,-1.5588 -4.002,-9.1035 -6.94,-12.5952 -17.132,-12.5952 h -11.379 c -0.563,0.1247 -0.751,0.1247 -0.751,0.5611 0,0.4989 0.125,0.9977 0.251,1.3718 l 4.314,17.0222 h 6.69 c 4.564,0 5.502,-0.7482 5.502,-2.7435 0,-0.0623 0,-1.06 -0.438,-2.8058 -0.125,-0.3118 -0.187,-0.6859 -0.187,-0.873 0,-0.0623 0.062,-0.8729 0.938,-0.8729 0.75,0 0.875,0.3741 1.125,1.4341 l 3.314,13.0317 c 0.062,0.187 0.25,1.1223 0.25,1.247 0,0.6236 -0.5,0.9353 -0.938,0.9353 -0.813,0 -0.875,-0.4364 -1.188,-1.4964 -1.25,-4.8635 -2.939,-5.7988 -8.316,-5.7988 h -6.252 l 3.751,14.9022 c 0.563,2.2447 0.626,2.3694 3.189,2.3694 h 9.754 c 7.503,0 9.879,-1.4964 9.879,-6.9835 0,-1.3094 -0.313,-2.8682 -0.313,-4.0529 0,-0.7482 0.438,-1.06 0.938,-1.06 0.875,0 0.938,0.5612 1.063,1.6212 l 1.125,10.5999 c 0.063,0.3118 0.063,0.7483 0.063,1.06 0,0.873 -0.75,0.873 -1.876,0.873 h -32.95 c -1.188,0 -1.938,0 -1.938,-1.1847 0,-0.873 0.812,-0.873 1.875,-0.873 0.188,0 1.313,0 2.376,-0.1247 1.313,-0.1247 1.438,-0.3117 1.438,-0.8729 0,-0.3118 -0.125,-0.6859 -0.187,-0.9977 l -8.379,-33.4209 c -0.562,-2.3694 -0.687,-2.8682 -5.314,-2.8682 -1.188,0 -1.938,0 -1.938,-1.1847 0,-0.873 0.812,-0.873 1.875,-0.873 h 33.826 c 1.563,0 1.626,0 2.126,1.1224 z" /></clipPath><clipPath
       id="clipPath922"
       clipPathUnits="userSpaceOnUse"><path
         id="path920"
         d="m 1673.929,1389.026 c -4.922,-0.959 -7.462,-4.474 -7.462,-7.99 0,-3.834 3.016,-5.113 5.239,-5.113 4.445,0 8.097,3.835 8.097,8.629 0,5.113 -4.922,9.587 -12.86,9.587 -6.35,0 -13.653,-2.876 -20.322,-12.623 -1.111,8.468 -7.461,12.623 -13.812,12.623 -6.192,0 -9.367,-4.794 -11.272,-8.309 -2.699,-5.752 -5.08,-15.339 -5.08,-16.138 0,-0.639 0.635,-1.438 1.746,-1.438 1.27,0 1.429,0.159 2.381,3.834 2.382,9.587 5.398,18.855 11.749,18.855 3.81,0 4.921,-2.716 4.921,-7.35 0,-3.515 -1.587,-9.747 -2.698,-14.7 l -4.446,-17.257 c -0.635,-3.036 -2.381,-10.226 -3.175,-13.102 -1.111,-4.155 -2.858,-11.665 -2.858,-12.463 0,-2.237 1.747,-3.995 4.128,-3.995 1.746,0 4.763,1.118 5.715,4.314 0.477,1.278 6.351,25.406 7.304,29.081 0.793,3.515 1.746,6.871 2.54,10.386 0.635,2.237 1.27,4.793 1.746,6.871 0.476,1.438 4.763,9.267 8.732,12.782 1.905,1.758 6.033,5.433 12.542,5.433 2.541,0 5.081,-0.479 7.145,-1.917 z" /></clipPath><clipPath
       id="clipPath944"
       clipPathUnits="userSpaceOnUse"><path
         style="clip-rule:evenodd"
         id="path942"
         d="m 1579.769,1445.504 5.928,-48.246 -46.697,21.775 z" /></clipPath><clipPath
       id="clipPath954"
       clipPathUnits="userSpaceOnUse"><path
         style="clip-rule:evenodd"
         id="path952"
         d="m 973,1601.996 c 0,55.231 44.778,100.004 99.997,100.004 h 622.006 c 55.227,0 99.997,-44.771 99.997,-100.004 V 1140.004 C 1795,1084.773 1750.222,1040 1695.003,1040 H 1072.997 C 1017.77,1040 973,1084.771 973,1140.004 Z" /></clipPath><clipPath
       id="clipPath966"
       clipPathUnits="userSpaceOnUse"><path
         id="path964"
         d="m 802.1879,375.991 -14.6213,5.8631 c -3.6205,1.3959 -11.9755,4.7462 -11.9755,13.122 0,12.0053 14.6213,24.1502 17.5455,24.1502 0.2785,0 1.5318,-0.2792 1.9495,-0.4188 3.7598,-1.1167 7.3803,-1.1167 9.8868,-1.1167 4.3168,0 12.5325,0 12.5325,4.0483 0,3.0711 -5.013,3.4899 -11.0007,3.4899 -2.785,0 -6.5448,0 -11.5578,-1.6752 -3.342,2.792 -4.7345,7.259 -4.7345,11.4469 0,7.6778 5.013,18.5664 16.0138,23.7314 2.5065,-2.9315 5.8485,-2.9315 8.7727,-2.9315 3.4813,0 11.9755,0 11.9755,4.0483 0,3.4899 -6.684,3.4899 -11.14,3.4899 -2.785,0 -4.8737,0 -8.7727,-0.698 -0.6963,1.6752 -0.8355,1.9544 -0.8355,5.0255 0,2.5127 0.557,4.4671 0.557,4.8859 0,0.8376 -0.6963,1.396 -1.3925,1.396 -2.228,0 -2.228,-5.1651 -2.228,-6.2819 0,-1.9543 0.1392,-3.9087 0.9747,-5.7234 -16.71,-4.8859 -24.0903,-16.7516 -24.0903,-25.8254 0,-8.3758 5.57,-12.9825 9.3298,-15.0764 -14.3428,-7.8174 -20.4698,-22.0563 -20.4698,-29.5945 0,-12.1449 11.0008,-16.4724 16.0138,-18.5663 l 12.5325,-5.0255 c 3.4813,-1.2564 9.1905,-3.6295 10.1653,-4.1879 1.3925,-0.9772 2.5065,-2.6523 2.5065,-4.8859 0,-2.9315 -2.228,-7.6778 -7.1018,-7.6778 -2.0887,0 -6.684,0.5584 -11.697,4.3275 -0.9747,0.8376 -1.114,0.9772 -1.671,0.9772 -0.6963,0 -1.3925,-0.5584 -1.3925,-1.396 0,-1.5355 7.241,-6.7006 14.7605,-6.7006 8.912,0 14.3428,8.655 14.3428,14.6576 0,4.3275 -2.3673,7.8174 -6.8233,9.7718 z m 7.1018,83.7579 c 2.3672,0.698 4.8737,0.698 6.684,0.698 4.5952,0 5.013,-0.1396 7.798,-0.8376 -1.671,-0.698 -2.785,-1.1168 -8.6335,-1.1168 -2.6458,0 -4.3168,0 -5.8485,1.2564 z m -11.0008,-38.2494 c 3.342,0.8375 6.4055,0.8375 8.0765,0.8375 4.5953,0 4.8738,-0.1395 7.9373,-0.8375 -1.5318,-0.698 -2.785,-1.1168 -8.7728,-1.1168 -3.342,0 -4.7345,0 -7.241,1.1168 z" /></clipPath><clipPath
       id="clipPath976"
       clipPathUnits="userSpaceOnUse"><path
         id="path974"
         d="m 852.3647,371.2618 h 10.6758 c -1.9495,-8.4688 -3.6205,-15.3556 -3.6205,-22.2424 0,-0.6514 0,-4.6532 1.0212,-8.0035 1.2068,-3.9087 2.1352,-4.6532 3.8062,-4.6532 2.0423,0 4.1775,1.7682 4.1775,4.0018 0,0.6514 -0.0929,0.8375 -0.4642,1.6751 -1.9495,4.281 -3.342,8.7481 -3.342,16.3793 0,2.1405 0,6.0492 1.3925,12.8429 h 11.2328 c 1.4854,0 2.5065,0 3.4349,0.7445 1.114,1.0237 1.3925,2.2336 1.3925,2.792 0,2.6058 -2.3209,2.6058 -3.899,2.6058 h -33.5129 c -1.9495,0 -5.4772,0 -10.026,-4.4671 -3.342,-3.3503 -5.9413,-7.6313 -5.9413,-8.2827 0,-0.8376 0.6498,-1.1168 1.3925,-1.1168 0.9283,0 1.114,0.2792 1.671,1.0237 4.5488,6.7006 10.026,6.7006 12.1612,6.7006 h 5.3843 c -2.6922,-9.8648 -7.6124,-21.1256 -11.0472,-27.9193 -0.6498,-1.3959 -1.5782,-3.2572 -1.5782,-4.0948 0,-1.9544 1.5782,-2.885 3.0635,-2.885 3.5277,0 4.456,3.5364 6.4055,11.1677 z" /></clipPath><clipPath
       id="clipPath992"
       clipPathUnits="userSpaceOnUse"><path
         style="clip-rule:evenodd"
         id="path990"
         d="m 2403.037,649.6563 -6.761,-48.1362 -39.47,33.1196 z" /></clipPath><clipPath
       id="clipPath1008"
       clipPathUnits="userSpaceOnUse"><path
         style="clip-rule:evenodd"
         id="path1006"
         d="m 2402.037,395.3437 -6.761,48.1362 -39.47,-33.1196 z" /></clipPath><clipPath
       id="clipPath1018"
       clipPathUnits="userSpaceOnUse"><path
         id="path1016"
         d="m 2433.963,569.9966 c -5.171,-1.004 -7.84,-4.685 -7.84,-8.3661 0,-4.0157 3.17,-5.3543 5.505,-5.3543 4.67,0 8.507,4.0157 8.507,9.0354 0,5.3542 -5.171,10.0392 -13.511,10.0392 -6.672,0 -14.345,-3.0118 -21.351,-13.2183 -1.167,8.868 -7.839,13.2183 -14.511,13.2183 -6.506,0 -9.842,-5.0196 -11.843,-8.7007 -2.836,-6.0235 -5.338,-16.0628 -5.338,-16.8994 0,-0.6693 0.667,-1.5059 1.835,-1.5059 1.334,0 1.501,0.1673 2.502,4.0157 2.502,10.0393 5.671,19.7439 12.343,19.7439 4.003,0 5.171,-2.8445 5.171,-7.6968 0,-3.681 -1.668,-10.2066 -2.836,-15.3935 l -4.67,-18.0707 c -0.667,-3.1791 -2.502,-10.7086 -3.336,-13.7203 -1.168,-4.3504 -3.003,-12.2145 -3.003,-13.0511 0,-2.3425 1.835,-4.183 4.337,-4.183 1.835,0 5.004,1.1712 6.005,4.5176 0.501,1.3386 6.672,26.6041 7.673,30.4525 0.834,3.6811 1.835,7.1948 2.669,10.8759 0.667,2.3425 1.334,5.0196 1.835,7.1948 0.5,1.5059 5.004,9.7046 9.174,13.3857 2.001,1.8405 6.338,5.6889 13.177,5.6889 2.669,0 5.338,-0.502 7.506,-2.0078 z" /></clipPath><clipPath
       id="clipPath1028"
       clipPathUnits="userSpaceOnUse"><path
         id="path1026"
         d="m 2441.969,504.1555 h 8.718 c 1.691,0 2.758,0 2.758,1.6957 0,1.2494 -1.156,1.2494 -2.669,1.2494 h -8.096 l 3.203,12.6727 c 0.356,1.3387 0.356,1.7849 0.356,1.8741 0,1.8742 -1.424,2.7666 -2.936,2.7666 -3.025,0 -3.648,-2.4096 -4.626,-6.4256 l -2.758,-10.8878 h -8.541 c -1.69,0 -2.847,0 -2.847,-1.6956 0,-1.2495 1.157,-1.2495 2.669,-1.2495 h 8.007 l -5.338,-21.4186 c -0.534,-2.2311 -1.334,-5.3547 -1.334,-6.6041 0,-5.3547 4.359,-8.389 9.074,-8.389 9.52,0 14.947,12.5835 14.947,13.6544 0,0.9817 -0.801,1.1602 -1.335,1.1602 -0.979,0 -1.067,-0.357 -1.69,-1.6957 -1.78,-4.2837 -6.228,-10.62 -11.655,-10.62 -1.868,0 -2.936,1.2494 -2.936,4.1944 0,1.6957 0.267,2.6774 0.534,3.8376 z" /></clipPath><clipPath
       id="clipPath1046"
       clipPathUnits="userSpaceOnUse"><path
         id="path1044"
         d="m 2549.188,516.2438 -14.621,5.8631 c -3.621,1.3959 -11.976,4.7463 -11.976,13.122 0,12.0053 14.621,24.1502 17.546,24.1502 0.278,0 1.531,-0.2791 1.949,-0.4187 3.76,-1.1168 7.38,-1.1168 9.887,-1.1168 4.317,0 12.532,0 12.532,4.0483 0,3.0711 -5.013,3.4899 -11,3.4899 -2.785,0 -6.545,0 -11.558,-1.6752 -3.342,2.792 -4.735,7.2591 -4.735,11.4469 0,7.6779 5.013,18.5664 16.014,23.7315 2.507,-2.9316 5.849,-2.9316 8.773,-2.9316 3.481,0 11.975,0 11.975,4.0483 0,3.4899 -6.684,3.4899 -11.14,3.4899 -2.785,0 -4.873,0 -8.772,-0.6979 -0.697,1.6751 -0.836,1.9543 -0.836,5.0254 0,2.5128 0.557,4.4671 0.557,4.8859 0,0.8376 -0.696,1.396 -1.392,1.396 -2.228,0 -2.228,-5.1651 -2.228,-6.2819 0,-1.9543 0.139,-3.9087 0.974,-5.7234 -16.71,-4.8859 -24.09,-16.7516 -24.09,-25.8254 0,-8.3758 5.57,-12.9825 9.33,-15.0764 -14.343,-7.8174 -20.47,-22.0562 -20.47,-29.5945 0,-12.1449 11.001,-16.4724 16.014,-18.5663 l 12.532,-5.0255 c 3.482,-1.2563 9.191,-3.6295 10.166,-4.1879 1.392,-0.9771 2.506,-2.6523 2.506,-4.8859 0,-2.9315 -2.228,-7.6778 -7.102,-7.6778 -2.088,0 -6.684,0.5584 -11.697,4.3275 -0.974,0.8376 -1.114,0.9772 -1.671,0.9772 -0.696,0 -1.392,-0.5584 -1.392,-1.396 0,-1.5355 7.241,-6.7006 14.76,-6.7006 8.912,0 14.343,8.655 14.343,14.6576 0,4.3275 -2.367,7.8175 -6.823,9.7718 z m 7.102,83.7579 c 2.367,0.698 4.873,0.698 6.684,0.698 4.595,0 5.013,-0.1396 7.798,-0.8376 -1.671,-0.698 -2.785,-1.1167 -8.634,-1.1167 -2.646,0 -4.317,0 -5.848,1.2563 z m -11.001,-38.2494 c 3.342,0.8376 6.405,0.8376 8.076,0.8376 4.596,0 4.874,-0.1396 7.938,-0.8376 -1.532,-0.698 -2.785,-1.1168 -8.773,-1.1168 -3.342,0 -4.735,0 -7.241,1.1168 z" /></clipPath><clipPath
       id="clipPath1056"
       clipPathUnits="userSpaceOnUse"><path
         id="path1054"
         d="m 2599.365,511.5146 h 10.676 c -1.95,-8.4688 -3.621,-15.3556 -3.621,-22.2423 0,-0.6515 0,-4.6533 1.021,-8.0036 1.207,-3.9087 2.135,-4.6532 3.806,-4.6532 2.043,0 4.178,1.7682 4.178,4.0018 0,0.6514 -0.093,0.8376 -0.464,1.6751 -1.95,4.281 -3.342,8.7481 -3.342,16.3793 0,2.1405 0,6.0492 1.392,12.8429 h 11.233 c 1.485,0 2.507,0 3.435,0.7445 1.114,1.0238 1.392,2.2336 1.392,2.792 0,2.6058 -2.32,2.6058 -3.899,2.6058 h -33.512 c -1.95,0 -5.478,0 -10.026,-4.4671 -3.342,-3.3503 -5.942,-7.6313 -5.942,-8.2827 0,-0.8376 0.65,-1.1168 1.393,-1.1168 0.928,0 1.114,0.2792 1.671,1.0237 4.549,6.7006 10.026,6.7006 12.161,6.7006 h 5.384 c -2.692,-9.8648 -7.612,-21.1256 -11.047,-27.9193 -0.65,-1.3959 -1.578,-3.2572 -1.578,-4.0948 0,-1.9544 1.578,-2.885 3.063,-2.885 3.528,0 4.456,3.5364 6.406,11.1677 z" /></clipPath><clipPath
       id="clipPath1066"
       clipPathUnits="userSpaceOnUse"><path
         id="path1064"
         d="m 1361.501,167.6459 c 44.567,0 107.496,34.0311 107.496,86.2248 0,17.0155 -8.033,27.7219 -17.406,33.6486 -16.449,10.7064 -34.047,10.7064 -52.218,10.7064 -16.449,0 -27.734,0 -43.801,-6.8827 -25.44,-11.2799 -29.074,-27.1483 -29.074,-28.6778 0,-1.1471 0.765,-1.5295 1.913,-1.5295 3.06,0 7.46,2.6766 8.99,3.6325 4.016,2.6766 4.59,3.8238 5.738,7.4563 2.678,7.6474 8.033,14.3389 32.134,15.486 -3.06,-39.9578 -12.815,-76.4743 -26.205,-109.9318 -7.077,-2.4854 -11.667,-6.8826 -11.667,-8.7945 0,-1.1471 0.191,-1.3383 4.399,-1.3383 z m 0.957,10.5152 c 21.805,53.3408 25.822,86.6071 28.499,109.5494 12.816,0 61.782,0 61.782,-42.0608 0,-37.4724 -33.664,-67.4886 -79.953,-67.4886 z" /></clipPath><clipPath
       id="clipPath1076"
       clipPathUnits="userSpaceOnUse"><path
         id="path1074"
         d="m 1502.483,132.7283 c 0.203,0.4058 0.406,1.0144 0.406,1.4202 0,0.2029 -0.102,1.4203 -1.523,1.4203 -1.117,0 -1.219,-0.3044 -2.234,-2.5362 -6.499,-14.811 -11.271,-20.492 -27.822,-20.492 h -18.481 c -0.913,0.2029 -1.218,0.2029 -1.218,0.9131 0,0.8115 0.203,1.6231 0.406,2.2318 l 7.006,27.6946 h 10.865 c 7.413,0 8.936,-1.2174 8.936,-4.4636 0,-0.1015 0,-1.7246 -0.711,-4.5651 -0.203,-0.5072 -0.305,-1.1159 -0.305,-1.4202 0,-0.1015 0.102,-1.4202 1.523,-1.4202 1.219,0 1.422,0.6086 1.828,2.3332 l 5.382,21.2021 c 0.101,0.3043 0.406,1.826 0.406,2.0289 0,1.0145 -0.812,1.5217 -1.523,1.5217 -1.32,0 -1.422,-0.7101 -1.929,-2.4347 -2.031,-7.9128 -4.773,-9.4344 -13.505,-9.4344 h -10.154 l 6.092,24.2454 c 0.914,3.6521 1.016,3.855 5.179,3.855 h 15.84 c 12.185,0 16.043,-2.4347 16.043,-11.3619 0,-2.1304 -0.507,-4.6665 -0.507,-6.594 0,-1.2173 0.711,-1.7246 1.523,-1.7246 1.421,0 1.523,0.9131 1.726,2.6376 l 1.828,17.2458 c 0.101,0.5072 0.101,1.2173 0.101,1.7245 0,1.4203 -1.218,1.4203 -3.046,1.4203 h -53.512 c -1.929,0 -3.148,0 -3.148,-1.9275 0,-1.4202 1.321,-1.4202 3.047,-1.4202 0.304,0 2.132,0 3.858,-0.2029 2.133,-0.2029 2.336,-0.5073 2.336,-1.4203 0,-0.5072 -0.203,-1.1159 -0.305,-1.6231 l -13.606,-54.3748 c -0.914,-3.8549 -1.117,-4.6665 -8.631,-4.6665 -1.93,0 -3.148,0 -3.148,-1.9274 0,-1.4203 1.32,-1.4203 3.046,-1.4203 h 54.934 c 2.538,0 2.64,0 3.452,1.8261 z" /></clipPath><clipPath
       id="clipPath1086"
       clipPathUnits="userSpaceOnUse"><path
         style="clip-rule:evenodd"
         id="path1084"
         d="M 1755.37,236.1437 1674,185.2875 V 287 Z" /></clipPath></defs><g
     transform="matrix(1.3333333,0,0,-1.3333333,0,2269.3333)"
     id="g10"><g
       id="g12" /><g
       id="g14"><g
         clip-path="url(#clipPath20)"
         id="g16"><path
           id="path22"
           style="fill:#000000;fill-opacity:1;fill-rule:nonzero;stroke:none"
           d="m 1013.873,569.4435 h 112.087 v -95.364 h -112.087 z" /></g></g><g
       id="g24"><g
         clip-path="url(#clipPath30)"
         id="g26"><path
           id="path32"
           style="fill:#000000;fill-opacity:1;fill-rule:nonzero;stroke:none"
           d="m 1109.555,499.7644 h 42.698 v -73.8403 h -42.698 z" /></g></g><g
       id="g34"><g
         clip-path="url(#clipPath40)"
         id="g36"><path
           id="path42"
           style="fill:#000000;fill-opacity:1;fill-rule:nonzero;stroke:none"
           d="m 1159.261,494.6624 h 64.094 v -64.1298 h -64.094 z" /></g></g><g
       id="g44"><g
         clip-path="url(#clipPath50)"
         id="g46"><path
           id="path52"
           style="fill:#000000;fill-opacity:1;fill-rule:nonzero;stroke:none"
           d="m 1228.34,499.8011 h 42.013 v -70.5574 h -42.013 z" /></g></g><g
       id="g54"><g
         clip-path="url(#clipPath60)"
         id="g56"><path
           id="path62"
           style="fill:#000000;fill-opacity:1;fill-rule:nonzero;stroke:none"
           d="m 1494.873,569.4435 h 112.087 v -95.364 h -112.087 z" /></g></g><g
       id="g64"><g
         clip-path="url(#clipPath70)"
         id="g66"><path
           id="path72"
           style="fill:#000000;fill-opacity:1;fill-rule:nonzero;stroke:none"
           d="m 1590.555,499.7644 h 42.698 v -73.8403 h -42.698 z" /></g></g><g
       id="g74"><g
         clip-path="url(#clipPath80)"
         id="g76"><path
           id="path82"
           style="fill:#000000;fill-opacity:1;fill-rule:nonzero;stroke:none"
           d="m 1640.261,494.6624 h 64.094 v -64.1298 h -64.094 z" /></g></g><g
       id="g84"><g
         clip-path="url(#clipPath90)"
         id="g86"><path
           id="path92"
           style="fill:#000000;fill-opacity:1;fill-rule:nonzero;stroke:none"
           d="m 1709.34,499.8011 h 42.013 v -70.5574 h -42.013 z" /></g></g><g
       id="g94"><g
         clip-path="url(#clipPath100)"
         id="g96"><path
           id="path102"
           style="fill:#000000;fill-opacity:1;fill-rule:nonzero;stroke:none"
           d="M 1485.681,1414.8 H 1510 v -38.158 h -24.319 z" /></g></g><g
       id="g104"><g
         clip-path="url(#clipPath110)"
         id="g106"><path
           id="path112"
           style="fill:#fc6667;fill-opacity:1;fill-rule:nonzero;stroke:none"
           d="m 1659.951,1350.496 h 37.521 v -64.117 h -37.521 z" /></g></g><g
       id="g114"><g
         transform="matrix(1,0,0,-1,348,549.3914)"
         id="g116"><path
           id="path118"
           style="fill:none;stroke:#000000;stroke-width:8;stroke-linecap:butt;stroke-linejoin:miter;stroke-miterlimit:10;stroke-dasharray:none;stroke-opacity:1"
           d="M 0,166.8914 C 203.5025,95.17633 244.8383,0 244.8383,0" /></g></g><g
       id="g120"><g
         clip-path="url(#clipPath126)"
         id="g122"><path
           id="path128"
           style="fill:#000000;fill-opacity:1;fill-rule:nonzero;stroke:none"
           d="m 583.0019,601.036 55.7605,-26.0015 -21.6465,-46.4211 -55.7605,26.0016 z" /></g></g><g
       id="g130"><g
         transform="matrix(0.9659258,0.258819,0.258819,-0.9659258,302.8044,544.1821)"
         id="g132"><path
           id="path134"
           style="fill:none;stroke:#000000;stroke-width:8;stroke-linecap:butt;stroke-linejoin:miter;stroke-miterlimit:10;stroke-dasharray:none;stroke-opacity:1"
           d="M 0,166.8914 C 203.5025,95.17633 244.8383,0 244.8383,0" /></g></g><g
       id="g136"><g
         clip-path="url(#clipPath142)"
         id="g138"><path
           id="path144"
           style="fill:#000000;fill-opacity:1;fill-rule:nonzero;stroke:none"
           d="m 516.4321,654.8899 60.5903,-10.6837 -8.8943,-50.4418 -60.5902,10.6837 z" /></g></g><g
       id="g146"><g
         transform="rotate(-14.999998,988.12151,-1039.8578)"
         id="g148"><path
           id="path150"
           style="fill:none;stroke:#000000;stroke-width:8;stroke-linecap:butt;stroke-linejoin:miter;stroke-miterlimit:10;stroke-dasharray:none;stroke-opacity:1"
           d="M 0,166.8914 C 203.5025,95.17633 244.8383,0 244.8383,0" /></g></g><g
       id="g152"><g
         clip-path="url(#clipPath158)"
         id="g154"><path
           id="path160"
           style="fill:#000000;fill-opacity:1;fill-rule:nonzero;stroke:none"
           d="m 516.4321,109.6045 60.5903,10.6837 -8.8943,50.4418 -60.5902,-10.6837 z" /></g></g><g
       id="g162"><g
         transform="matrix(0.9659258,-0.258819,-0.258819,-0.9659258,395.3241,543.9455)"
         id="g164"><path
           id="path166"
           style="fill:none;stroke:#000000;stroke-width:8;stroke-linecap:butt;stroke-linejoin:miter;stroke-miterlimit:10;stroke-dasharray:none;stroke-opacity:1"
           d="M 0,166.8914 C 203.5025,95.17633 244.8383,0 244.8383,0" /></g></g><g
       id="g168"><g
         clip-path="url(#clipPath174)"
         id="g170"><path
           id="path176"
           style="fill:#000000;fill-opacity:1;fill-rule:nonzero;stroke:none"
           d="m 635.6851,533.0074 47.1308,-39.5475 -32.9235,-39.2367 -47.1309,39.5474 z" /></g></g><g
       id="g178"><g
         transform="rotate(14.999998,-640.45546,1607.8692)"
         id="g180"><path
           id="path182"
           style="fill:none;stroke:#000000;stroke-width:8;stroke-linecap:butt;stroke-linejoin:miter;stroke-miterlimit:10;stroke-dasharray:none;stroke-opacity:1"
           d="M 0,166.8914 C 203.5025,95.17633 244.8383,0 244.8383,0" /></g></g><g
       id="g184"><g
         clip-path="url(#clipPath190)"
         id="g186"><path
           id="path192"
           style="fill:#000000;fill-opacity:1;fill-rule:nonzero;stroke:none"
           d="m 634.6851,231.487 47.1308,39.5474 -32.9235,39.2368 -47.1309,-39.5475 z" /></g></g><g
       id="g194"><g
         transform="rotate(-2.0000002,6321.6837,-9706.1714)"
         id="g196"><path
           id="path198"
           style="fill:none;stroke:#000000;stroke-width:8;stroke-linecap:butt;stroke-linejoin:miter;stroke-miterlimit:10;stroke-dasharray:none;stroke-opacity:1"
           d="M 0,166.8914 C 203.5025,95.17633 244.8383,0 244.8383,0" /></g></g><g
       id="g200"><g
         clip-path="url(#clipPath206)"
         id="g202"><path
           id="path208"
           style="fill:#000000;fill-opacity:1;fill-rule:nonzero;stroke:none"
           d="m 575.6481,154.8959 56.634,24.0398 -20.0133,47.1482 -56.634,-24.0397 z" /></g></g><g
       id="g210"><g
         transform="matrix(1,0,0,-1,242,877)"
         id="g212"><text
           id="text216"
           style="font-style:italic;font-variant:normal;font-weight:bold;font-size:100px;font-family:Palatino;-inkscape-font-specification:Palatino-BoldItalic;writing-mode:lr-tb;fill:#323232;fill-opacity:1;fill-rule:nonzero;stroke:none"
           transform="translate(0,104)"><tspan
             id="tspan214"
             y="0"
             x="0 83.300003 138.92 172.22 205.52 261.14001 305.51999 330.51999 402.73999">Online RL</tspan></text>
</g></g><g
       id="g218"><g
         clip-path="url(#clipPath224)"
         id="g220"><g
           transform="matrix(1,0,0,-1,0,901)"
           id="g226"><path
             id="path228"
             style="fill:none;stroke:#dcdcdc;stroke-width:24;stroke-linecap:butt;stroke-linejoin:miter;stroke-miterlimit:10;stroke-dasharray:none;stroke-opacity:1"
             d="M 0,100.0008 C 0,44.77187 44.77725,0 100.009,0 H 872.991 C 928.2245,0 973,44.77696 973,100.0008 V 800.9992 C 973,856.2281 928.2228,901 872.991,901 H 100.009 C 44.77555,901 0,856.223 0,800.9992 Z" /></g></g></g><g
       id="g230"><g
         clip-path="url(#clipPath236)"
         id="g232"><path
           id="path238"
           style="fill:#000000;fill-opacity:1;fill-rule:nonzero;stroke:none"
           d="M 281.6785,457 V 438.5356 H 246.2856 V 457 Z" /></g></g><g
       id="g240"><g
         clip-path="url(#clipPath246)"
         id="g242"><path
           id="path248"
           style="fill:#000000;fill-opacity:1;fill-rule:nonzero;stroke:none"
           d="m 322.8865,346.9641 v -30.8135 h -25.8151 v 30.8135 z" /></g></g><g
       id="g250"><g
         clip-path="url(#clipPath256)"
         id="g252"><path
           id="path258"
           style="fill:#000000;fill-opacity:1;fill-rule:nonzero;stroke:none"
           d="m 154.7144,313.1072 v -18.4643 h -35.3929 v 18.4643 z" /></g></g><g
       id="g260"><g
         clip-path="url(#clipPath266)"
         id="g262"><path
           id="path268"
           style="fill:#000000;fill-opacity:1;fill-rule:nonzero;stroke:none"
           d="m 281.6787,313.1072 v -18.4643 h -35.3929 v 18.4643 z" /></g></g><g
       id="g270"><g
         clip-path="url(#clipPath276)"
         id="g272"><path
           id="path278"
           style="fill:#000000;fill-opacity:1;fill-rule:nonzero;stroke:none"
           d="M 322.8865,435.492 V 404.6786 H 297.0714 V 435.492 Z" /></g></g><g
       id="g280"><g
         clip-path="url(#clipPath286)"
         id="g282"><path
           id="path288"
           style="fill:#000000;fill-opacity:1;fill-rule:nonzero;stroke:none"
           d="m 154.7143,457.0001 v -18.4644 h -35.393 v 18.4644 z" /></g></g><g
       id="g290"><g
         clip-path="url(#clipPath296)"
         id="g292"><path
           id="path298"
           style="fill:#000000;fill-opacity:1;fill-rule:nonzero;stroke:none"
           d="m 146.25,406.2143 v -60.8281 h -31.1644 v 60.8281 z" /></g></g><g
       id="g300"><g
         clip-path="url(#clipPath306)"
         id="g302"><path
           id="path308"
           style="fill:#000000;fill-opacity:1;fill-rule:nonzero;stroke:none"
           d="M 324,440.0726 V 311.5727 H 77.00063 v 128.4999 z" /></g></g><g
       id="g310"><g
         clip-path="url(#clipPath316)"
         id="g312"><path
           id="path318"
           style="fill:#000000;fill-opacity:1;fill-rule:nonzero;stroke:none"
           d="m 243.5884,423.1413 v -94.6405 h -48.0888 v 94.6405 z" /></g></g><g
       id="g320"><g
         transform="matrix(1,0,0,-1,2113,243)"
         id="g322"><path
           id="path324"
           style="fill:none;stroke:#008000;stroke-width:8;stroke-linecap:square;stroke-linejoin:miter;stroke-miterlimit:10;stroke-dasharray:none;stroke-opacity:1"
           d="M 0.5,1 H 202.0099" /></g></g><g
       id="g326"><g
         clip-path="url(#clipPath332)"
         id="g328"><path
           id="path334"
           style="fill:#008019;fill-opacity:1;fill-rule:nonzero;stroke:none"
           d="M 2364.22,273 V 211.475 H 2313 V 273 Z" /></g></g><g
       id="g336"><g
         transform="matrix(1,0,0,-1,1999,877)"
         id="g338"><text
           id="text342"
           style="font-style:italic;font-variant:normal;font-weight:bold;font-size:100px;font-family:Palatino;-inkscape-font-specification:Palatino-BoldItalic;writing-mode:lr-tb;fill:#323232;fill-opacity:1;fill-rule:nonzero;stroke:none"
           transform="translate(0,104)"><tspan
             id="tspan340"
             y="0"
             x="0 77.779999 133.39999 187.11 226.03 259.32999 314.95001 339.95001 412.17001">Hybrid RL</tspan></text>
</g></g><g
       id="g344"><g
         clip-path="url(#clipPath350)"
         id="g346"><g
           transform="matrix(1,0,0,-1,1760,901)"
           id="g352"><path
             id="path354"
             style="fill:none;stroke:#f9954e;stroke-width:24;stroke-linecap:butt;stroke-linejoin:miter;stroke-miterlimit:10;stroke-dasharray:none;stroke-opacity:1"
             d="M 0,100.0008 C 0,44.77187 44.77725,0 100.009,0 H 872.991 C 928.2245,0 973,44.77696 973,100.0008 V 800.9992 C 973,856.2281 928.2228,901 872.991,901 H 100.009 C 44.77555,901 0,856.223 0,800.9992 Z" /></g></g></g><g
       id="g356"><g
         clip-path="url(#clipPath362)"
         id="g358"><path
           id="path364"
           style="fill:#000000;fill-opacity:1;fill-rule:nonzero;stroke:none"
           d="m 2044.678,600 v -18.4644 h -35.392 V 600 Z" /></g></g><g
       id="g366"><g
         clip-path="url(#clipPath372)"
         id="g368"><path
           id="path374"
           style="fill:#000000;fill-opacity:1;fill-rule:nonzero;stroke:none"
           d="m 2085.887,489.9641 v -30.8135 h -25.816 v 30.8135 z" /></g></g><g
       id="g376"><g
         clip-path="url(#clipPath382)"
         id="g378"><path
           id="path384"
           style="fill:#000000;fill-opacity:1;fill-rule:nonzero;stroke:none"
           d="m 1917.714,456.1072 v -18.4643 h -35.392 v 18.4643 z" /></g></g><g
       id="g386"><g
         clip-path="url(#clipPath392)"
         id="g388"><path
           id="path394"
           style="fill:#000000;fill-opacity:1;fill-rule:nonzero;stroke:none"
           d="m 2044.679,456.1072 v -18.4643 h -35.393 v 18.4643 z" /></g></g><g
       id="g396"><g
         clip-path="url(#clipPath402)"
         id="g398"><path
           id="path404"
           style="fill:#000000;fill-opacity:1;fill-rule:nonzero;stroke:none"
           d="m 2085.887,578.492 v -30.8134 h -25.816 v 30.8134 z" /></g></g><g
       id="g406"><g
         clip-path="url(#clipPath412)"
         id="g408"><path
           id="path414"
           style="fill:#000000;fill-opacity:1;fill-rule:nonzero;stroke:none"
           d="m 1917.714,600.0001 v -18.4644 h -35.393 v 18.4644 z" /></g></g><g
       id="g416"><g
         clip-path="url(#clipPath422)"
         id="g418"><path
           id="path424"
           style="fill:#000000;fill-opacity:1;fill-rule:nonzero;stroke:none"
           d="m 1909.25,549.2143 v -60.8281 h -31.164 v 60.8281 z" /></g></g><g
       id="g426"><g
         clip-path="url(#clipPath432)"
         id="g428"><path
           id="path434"
           style="fill:#000000;fill-opacity:1;fill-rule:nonzero;stroke:none"
           d="M 2087,583.0726 V 454.5727 h -246.999 v 128.4999 z" /></g></g><g
       id="g436"><g
         clip-path="url(#clipPath442)"
         id="g438"><path
           id="path444"
           style="fill:#000000;fill-opacity:1;fill-rule:nonzero;stroke:none"
           d="M 2006.588,566.1413 V 471.5008 H 1958.5 v 94.6405 z" /></g></g><g
       id="g446"><g
         clip-path="url(#clipPath452)"
         id="g448"><path
           id="path454"
           style="fill:#ff6769;fill-opacity:1;fill-rule:nonzero;stroke:none"
           d="m 2368.581,301.098 h 76.554 v -85.4618 h -76.554 z" /></g></g><g
       id="g456"><g
         clip-path="url(#clipPath462)"
         id="g458"><path
           id="path464"
           style="fill:#fc6667;fill-opacity:1;fill-rule:nonzero;stroke:none"
           d="m 2419.531,250.1612 h 38.914 V 183.491 h -38.914 z" /></g></g><g
       id="g466"><g
         transform="matrix(1,0,0,-1,2470,346)"
         id="g468"><text
           id="text472"
           style="font-variant:normal;font-weight:normal;font-size:120px;font-family:Palatino;-inkscape-font-specification:Palatino-Roman;writing-mode:lr-tb;fill:#f96565;fill-opacity:1;fill-rule:nonzero;stroke:none"
           transform="translate(0,125)"><tspan
             id="tspan470"
             y="0"
             x="0 39.959999 159.96001">( )</tspan></text>
</g></g><g
       id="g474"><g
         clip-path="url(#clipPath480)"
         id="g476"><path
           id="path482"
           style="fill:#ff6769;fill-opacity:1;fill-rule:nonzero;stroke:none"
           d="m 621.581,440.098 h 76.5537 V 354.6362 H 621.581 Z" /></g></g><g
       id="g484"><g
         clip-path="url(#clipPath490)"
         id="g486"><path
           id="path492"
           style="fill:#fc6667;fill-opacity:1;fill-rule:nonzero;stroke:none"
           d="m 672.531,389.1612 h 38.9143 V 322.491 H 672.531 Z" /></g></g><g
       id="g494"><g
         transform="matrix(1,0,0,-1,723,497)"
         id="g496"><text
           id="text500"
           style="font-variant:normal;font-weight:normal;font-size:120px;font-family:Palatino;-inkscape-font-specification:Palatino-Roman;writing-mode:lr-tb;fill:#f96565;fill-opacity:1;fill-rule:nonzero;stroke:none"
           transform="translate(0,125)"><tspan
             id="tspan498"
             y="0"
             x="0 39.959999 159.96001">( )</tspan></text>
</g><g
         transform="matrix(1,0,0,-1,763.2847,1407.946)"
         id="g502"><path
           id="path504"
           style="fill:none;stroke:#dcdcdc;stroke-width:12;stroke-linecap:butt;stroke-linejoin:miter;stroke-miterlimit:10;stroke-dasharray:none;stroke-opacity:1"
           d="m 213.1174,0 c 0,0 -100.5113,80.00057 -162.53683,223.3228 C -11.44495,366.6449 1.0257,493.4209 1.0257,493.4209" /></g></g><g
       id="g506"><g
         clip-path="url(#clipPath512)"
         id="g508"><path
           id="path514"
           style="fill:#dcdcdc;fill-opacity:1;fill-rule:nonzero;stroke:none"
           d="M 818.7125,899.63 H 707 V 991 h 111.7125 z" /></g></g><g
       id="g516"><g
         clip-path="url(#clipPath522)"
         id="g518"><path
           id="path524"
           style="fill:#ff6769;fill-opacity:1;fill-rule:nonzero;stroke:none"
           d="m 840.4566,1189.139 h 73.3463 v -82.063 h -73.3463 z" /></g></g><g
       id="g526"><g
         clip-path="url(#clipPath532)"
         id="g528"><path
           id="path534"
           style="fill:#fc6667;fill-opacity:1;fill-rule:nonzero;stroke:none"
           d="m 888.9512,1140.496 h 37.5208 v -64.117 h -37.5208 z" /></g></g><g
       id="g536"><g
         clip-path="url(#clipPath542)"
         id="g538"><path
           id="path544"
           style="fill:#ff6769;fill-opacity:1;fill-rule:nonzero;stroke:none"
           d="m 1841.457,1160.139 h 73.346 v -82.063 h -73.346 z" /></g></g><g
       id="g546"><g
         clip-path="url(#clipPath552)"
         id="g548"><path
           id="path554"
           style="fill:#fc6667;fill-opacity:1;fill-rule:nonzero;stroke:none"
           d="m 1889.951,1111.496 h 37.521 v -64.117 h -37.521 z" /></g></g><g
       id="g556"><g
         transform="matrix(-1,0,0,1,1182.715,536.0538)"
         id="g558"><path
           id="path560"
           style="fill:none;stroke:#dcdcdc;stroke-width:12;stroke-linecap:butt;stroke-linejoin:miter;stroke-miterlimit:10;stroke-dasharray:none;stroke-opacity:1"
           d="m 213.1174,0 c 0,0 -100.5113,80.00057 -162.53683,223.3228 C -11.44495,366.6449 1.0257,493.4209 1.0257,493.4209" /></g></g><g
       id="g562"><g
         clip-path="url(#clipPath568)"
         id="g564"><path
           id="path570"
           style="fill:#dcdcdc;fill-opacity:1;fill-rule:nonzero;stroke:none"
           d="M 1127.287,1044.37 H 1239 V 953 h -111.713 z" /></g></g><g
       id="g572"><g
         transform="rotate(180,1002.5,702.5)"
         id="g574"><path
           id="path576"
           style="fill:none;stroke:#f9954e;stroke-width:12;stroke-linecap:butt;stroke-linejoin:miter;stroke-miterlimit:10;stroke-dasharray:none;stroke-opacity:1"
           d="m 213.1174,0 c 0,0 -100.5113,80.00057 -162.53683,223.3228 C -11.44495,366.6449 1.0257,493.4209 1.0257,493.4209" /></g></g><g
       id="g578"><g
         clip-path="url(#clipPath584)"
         id="g580"><path
           id="path586"
           style="fill:#fc9555;fill-opacity:1;fill-rule:nonzero;stroke:none"
           d="M 1949.287,896.63 H 2061 V 988 h -111.713 z" /></g></g><g
       id="g588"><g
         clip-path="url(#clipPath594)"
         id="g590"><path
           id="path596"
           style="fill:#fc6667;fill-opacity:1;fill-rule:nonzero;stroke:none"
           d="m 1659.951,1350.496 h 37.521 v -64.117 h -37.521 z" /></g></g><g
       id="g598"><g
         transform="translate(1550,536)"
         id="g600"><path
           id="path602"
           style="fill:none;stroke:#f9954e;stroke-width:12;stroke-linecap:butt;stroke-linejoin:miter;stroke-miterlimit:10;stroke-dasharray:none;stroke-opacity:1"
           d="m 213.1174,0 c 0,0 -100.5113,80.00057 -162.53683,223.3228 C -11.44495,366.6449 1.0257,493.4209 1.0257,493.4209" /></g></g><g
       id="g604"><g
         clip-path="url(#clipPath610)"
         id="g606"><path
           id="path612"
           style="fill:#fc9555;fill-opacity:1;fill-rule:nonzero;stroke:none"
           d="M 1605.713,1044.37 H 1494 V 953 h 111.713 z" /></g></g><g
       id="g614"><g
         transform="matrix(1,0,0,-1,135,1343)"
         id="g616"><text
           id="text620"
           style="font-style:italic;font-variant:normal;font-weight:bold;font-size:120px;font-family:Palatino;-inkscape-font-specification:Palatino-BoldItalic;writing-mode:lr-tb;fill:#323232;fill-opacity:1;fill-rule:nonzero;stroke:none"
           transform="translate(0,125)"><tspan
             id="tspan618"
             y="0"
             x="0 46.703999 113.448 180.192 233.448 280.15201 333.40799 386.664 416.664 503.328">Inverse RL</tspan></text>
</g><g
         transform="matrix(1,0,0,-1,2093,1343)"
         id="g622"><text
           id="text626"
           style="font-style:italic;font-variant:normal;font-weight:bold;font-size:120px;font-family:Palatino;-inkscape-font-specification:Palatino-BoldItalic;writing-mode:lr-tb;fill:#323232;fill-opacity:1;fill-rule:nonzero;stroke:none"
           transform="translate(99.53516,125)"><tspan
             id="tspan624"
             y="0"
             x="0 93.335999 160.08 224.532 271.23599 311.19601 377.94">Hybrid </tspan></text>
</g><g
         transform="matrix(1,0,0,-1,2093,1343)"
         id="g628"><text
           id="text632"
           style="font-style:italic;font-variant:normal;font-weight:bold;font-size:120px;font-family:Palatino;-inkscape-font-specification:Palatino-BoldItalic;writing-mode:lr-tb;fill:#323232;fill-opacity:1;fill-rule:nonzero;stroke:none"
           transform="translate(0.1894531,283)"><tspan
             id="tspan630"
             y="0"
             x="0 46.703999 113.448 180.192 233.448 280.15201 333.40799 386.664 416.664 503.328">Inverse RL</tspan></text>
</g></g><g
       id="g634"><g
         clip-path="url(#clipPath640)"
         id="g636"><path
           id="path642"
           style="fill:#000000;fill-opacity:1;fill-rule:nonzero;stroke:none"
           d="m 1265.678,1315 v -18.464 h -35.392 V 1315 Z" /></g></g><g
       id="g644"><g
         clip-path="url(#clipPath650)"
         id="g646"><path
           id="path652"
           style="fill:#000000;fill-opacity:1;fill-rule:nonzero;stroke:none"
           d="m 1306.887,1204.964 v -30.813 h -25.816 v 30.813 z" /></g></g><g
       id="g654"><g
         clip-path="url(#clipPath660)"
         id="g656"><path
           id="path662"
           style="fill:#000000;fill-opacity:1;fill-rule:nonzero;stroke:none"
           d="m 1138.714,1171.107 v -18.464 h -35.392 v 18.464 z" /></g></g><g
       id="g664"><g
         clip-path="url(#clipPath670)"
         id="g666"><path
           id="path672"
           style="fill:#000000;fill-opacity:1;fill-rule:nonzero;stroke:none"
           d="m 1265.679,1171.107 v -18.464 h -35.393 v 18.464 z" /></g></g><g
       id="g674"><g
         clip-path="url(#clipPath680)"
         id="g676"><path
           id="path682"
           style="fill:#000000;fill-opacity:1;fill-rule:nonzero;stroke:none"
           d="m 1306.887,1293.492 v -30.813 h -25.816 v 30.813 z" /></g></g><g
       id="g684"><g
         clip-path="url(#clipPath690)"
         id="g686"><path
           id="path692"
           style="fill:#000000;fill-opacity:1;fill-rule:nonzero;stroke:none"
           d="m 1138.714,1315 v -18.464 h -35.393 V 1315 Z" /></g></g><g
       id="g694"><g
         clip-path="url(#clipPath700)"
         id="g696"><path
           id="path702"
           style="fill:#000000;fill-opacity:1;fill-rule:nonzero;stroke:none"
           d="m 1130.25,1264.214 v -60.828 h -31.164 v 60.828 z" /></g></g><g
       id="g704"><g
         clip-path="url(#clipPath710)"
         id="g706"><path
           id="path712"
           style="fill:#000000;fill-opacity:1;fill-rule:nonzero;stroke:none"
           d="m 1308,1298.073 v -128.5 h -246.999 v 128.5 z" /></g></g><g
       id="g714"><g
         clip-path="url(#clipPath720)"
         id="g716"><path
           id="path722"
           style="fill:#000000;fill-opacity:1;fill-rule:nonzero;stroke:none"
           d="m 1227.588,1281.141 v -94.64 H 1179.5 v 94.64 z" /></g></g><g
       id="g724"><g
         clip-path="url(#clipPath730)"
         id="g726"><path
           id="path732"
           style="fill:#008000;fill-opacity:1;fill-rule:nonzero;stroke:none"
           d="M 2044.678,313.4944 V 295.03 h -35.392 v 18.4644 z" /></g></g><g
       id="g734"><g
         clip-path="url(#clipPath740)"
         id="g736"><path
           id="path742"
           style="fill:#008000;fill-opacity:1;fill-rule:nonzero;stroke:none"
           d="M 2085.887,203.4584 V 172.645 h -25.816 v 30.8134 z" /></g></g><g
       id="g744"><g
         clip-path="url(#clipPath750)"
         id="g746"><path
           id="path752"
           style="fill:#008000;fill-opacity:1;fill-rule:nonzero;stroke:none"
           d="m 1917.714,169.6016 v -18.4644 h -35.392 v 18.4644 z" /></g></g><g
       id="g754"><g
         clip-path="url(#clipPath760)"
         id="g756"><path
           id="path762"
           style="fill:#008000;fill-opacity:1;fill-rule:nonzero;stroke:none"
           d="m 2044.679,169.6016 v -18.4644 h -35.393 v 18.4644 z" /></g></g><g
       id="g764"><g
         clip-path="url(#clipPath770)"
         id="g766"><path
           id="path772"
           style="fill:#008000;fill-opacity:1;fill-rule:nonzero;stroke:none"
           d="m 2085.887,291.9864 v -30.8135 h -25.816 v 30.8135 z" /></g></g><g
       id="g774"><g
         clip-path="url(#clipPath780)"
         id="g776"><path
           id="path782"
           style="fill:#008000;fill-opacity:1;fill-rule:nonzero;stroke:none"
           d="m 1917.714,313.4945 v -18.4644 h -35.393 v 18.4644 z" /></g></g><g
       id="g784"><g
         clip-path="url(#clipPath790)"
         id="g786"><path
           id="path792"
           style="fill:#008000;fill-opacity:1;fill-rule:nonzero;stroke:none"
           d="m 1909.25,262.7087 v -60.8281 h -31.164 v 60.8281 z" /></g></g><g
       id="g794"><g
         clip-path="url(#clipPath800)"
         id="g796"><path
           id="path802"
           style="fill:#008000;fill-opacity:1;fill-rule:nonzero;stroke:none"
           d="M 2087,296.5669 V 168.0671 h -246.999 v 128.4998 z" /></g></g><g
       id="g804"><g
         clip-path="url(#clipPath810)"
         id="g806"><path
           id="path812"
           style="fill:#008000;fill-opacity:1;fill-rule:nonzero;stroke:none"
           d="M 2006.588,279.6357 V 184.9951 H 1958.5 v 94.6406 z" /></g></g><g
       id="g814"><g
         clip-path="url(#clipPath820)"
         id="g816"><path
           id="path822"
           style="fill:#fc6667;fill-opacity:1;fill-rule:nonzero;stroke:none"
           d="m 1507.754,1354.659 57.045,23.048 19.188,-47.491 -57.045,-23.047 z" /></g></g><g
       id="g824"><g
         clip-path="url(#clipPath830)"
         id="g826"><path
           id="path832"
           style="fill:#fc6667;fill-opacity:1;fill-rule:nonzero;stroke:none"
           d="m 1618.723,1253.019 -57.045,-23.048 -19.187,47.49 57.045,23.048 z" /></g></g><g
       id="g834"><g
         clip-path="url(#clipPath840)"
         id="g836"><path
           id="path842"
           style="fill:#000000;fill-opacity:1;fill-rule:nonzero;stroke:none"
           d="m 1381.907,1545.848 h 68.067 v -135.637 h -68.067 z" /></g></g><g
       id="g844"><g
         clip-path="url(#clipPath850)"
         id="g846"><path
           id="path852"
           style="fill:#000000;fill-opacity:1;fill-rule:nonzero;stroke:none"
           d="m 1441.692,1449.404 h 63.379 v -51.041 h -63.379 z" /></g></g><g
       id="g854"><g
         transform="matrix(1,0,0,-1,1324,1240)"
         id="g856"><path
           id="path858"
           style="fill:none;stroke:#008000;stroke-width:8;stroke-linecap:square;stroke-linejoin:miter;stroke-miterlimit:10;stroke-dasharray:none;stroke-opacity:1"
           d="m 0.5,4 h 303" /></g></g><g
       id="g860"><g
         clip-path="url(#clipPath866)"
         id="g862"><path
           id="path868"
           style="fill:#008019;fill-opacity:1;fill-rule:nonzero;stroke:none"
           d="m 1674.22,1267 v -61.525 H 1623 V 1267 Z" /></g></g><g
       id="g870"><g
         clip-path="url(#clipPath876)"
         id="g872"><path
           id="path878"
           style="fill:#008000;fill-opacity:1;fill-rule:nonzero;stroke:none"
           d="m 1400.03,1201.01 h 58.071 v -113.752 h -58.071 z" /></g></g><g
       id="g880"><g
         clip-path="url(#clipPath886)"
         id="g882"><path
           id="path888"
           style="fill:#008000;fill-opacity:1;fill-rule:nonzero;stroke:none"
           d="m 1448.686,1117.517 h 56.893 v -52.4 h -56.893 z" /></g></g><g
       id="g890"><g
         clip-path="url(#clipPath896)"
         id="g892"><path
           id="path898"
           style="fill:#008000;fill-opacity:1;fill-rule:nonzero;stroke:none"
           d="m 2513.057,326.349 h 66.972 V 193.3878 h -66.972 z" /></g></g><g
       id="g900"><g
         clip-path="url(#clipPath906)"
         id="g902"><path
           id="path908"
           style="fill:#008000;fill-opacity:1;fill-rule:nonzero;stroke:none"
           d="m 2570.686,223.5166 h 56.893 v -52.3998 h -56.893 z" /></g></g><g
       id="g910"><g
         transform="matrix(1,0,0,-1,1541,1350)"
         id="g912"><path
           id="path914"
           style="fill:none;stroke:#f96565;stroke-width:8;stroke-linecap:square;stroke-linejoin:miter;stroke-miterlimit:10;stroke-dasharray:none;stroke-opacity:1"
           d="M 0.5,0 40,85" /></g></g><g
       id="g916"><g
         clip-path="url(#clipPath922)"
         id="g918"><path
           id="path924"
           style="fill:#ff6769;fill-opacity:1;fill-rule:nonzero;stroke:none"
           d="m 1611.457,1399.139 h 73.346 v -82.063 h -73.346 z" /></g></g><g
       id="g926"><g
         transform="matrix(1,0,0,-1,1069,1693)"
         id="g928"><text
           id="text932"
           style="font-style:italic;font-variant:normal;font-weight:bold;font-size:100px;font-family:Palatino;-inkscape-font-specification:Palatino-BoldItalic;writing-mode:lr-tb;fill:#323232;fill-opacity:1;fill-rule:nonzero;stroke:none"
           transform="translate(0,104)"><tspan
             id="tspan930"
             y="0"
             x="0 68.510002 101.81 157.42999 201.81 246.19 279.48999 340.57001 384.95001 440.57001 479.48999 512.78998 568.40997">Classifcation</tspan></text>
</g><g
         transform="matrix(1,0,0,-1,1319,1411.391)"
         id="g934"><path
           id="path936"
           style="fill:none;stroke:#000000;stroke-width:8;stroke-linecap:butt;stroke-linejoin:miter;stroke-miterlimit:10;stroke-dasharray:none;stroke-opacity:1"
           d="M 0,166.8914 C 203.5025,95.17633 244.8383,0 244.8383,0" /></g></g><g
       id="g938"><g
         clip-path="url(#clipPath944)"
         id="g940"><path
           id="path946"
           style="fill:#000000;fill-opacity:1;fill-rule:nonzero;stroke:none"
           d="m 1554.002,1463.036 55.76,-26.002 -21.646,-46.421 -55.761,26.002 z" /></g></g><g
       id="g948"><g
         clip-path="url(#clipPath954)"
         id="g950"><g
           transform="matrix(1,0,0,-1,973,1702)"
           id="g956"><path
             id="path958"
             style="fill:none;stroke:#dcdcdc;stroke-width:24;stroke-linecap:butt;stroke-linejoin:miter;stroke-miterlimit:10;stroke-dasharray:none;stroke-opacity:1"
             d="M 0,100.0043 C 0,44.77347 44.77804,0 99.99718,0 H 722.0028 C 777.2297,0 822,44.7708 822,100.0043 V 561.9957 C 822,617.2265 777.222,662 722.0028,662 H 99.99718 C 44.77026,662 0,617.2292 0,561.9957 Z" /></g></g></g><g
       id="g960"><g
         clip-path="url(#clipPath966)"
         id="g962"><path
           id="path968"
           style="fill:#000000;fill-opacity:1;fill-rule:nonzero;stroke:none"
           d="m 763.9071,478.8482 h 68.0673 V 343.2113 h -68.0673 z" /></g></g><g
       id="g970"><g
         clip-path="url(#clipPath976)"
         id="g972"><path
           id="path978"
           style="fill:#000000;fill-opacity:1;fill-rule:nonzero;stroke:none"
           d="m 823.6922,382.4041 h 63.3792 v -51.0414 h -63.3792 z" /></g></g><g
       id="g980"><g
         transform="matrix(0.9659258,-0.258819,-0.258819,-0.9659258,2142.324,684.1983)"
         id="g982"><path
           id="path984"
           style="fill:none;stroke:#000000;stroke-width:8;stroke-linecap:butt;stroke-linejoin:miter;stroke-miterlimit:10;stroke-dasharray:none;stroke-opacity:1"
           d="M 0,166.8914 C 203.5025,95.17633 244.8383,0 244.8383,0" /></g></g><g
       id="g986"><g
         clip-path="url(#clipPath992)"
         id="g988"><path
           id="path994"
           style="fill:#000000;fill-opacity:1;fill-rule:nonzero;stroke:none"
           d="m 2382.685,673.2602 47.131,-39.5475 -32.924,-39.2367 -47.13,39.5475 z" /></g></g><g
       id="g996"><g
         transform="rotate(14.999998,-299.61753,8312.8875)"
         id="g998"><path
           id="path1000"
           style="fill:none;stroke:#000000;stroke-width:8;stroke-linecap:butt;stroke-linejoin:miter;stroke-miterlimit:10;stroke-dasharray:none;stroke-opacity:1"
           d="M 0,166.8914 C 203.5025,95.17633 244.8383,0 244.8383,0" /></g></g><g
       id="g1002"><g
         clip-path="url(#clipPath1008)"
         id="g1004"><path
           id="path1010"
           style="fill:#000000;fill-opacity:1;fill-rule:nonzero;stroke:none"
           d="m 2381.685,371.7398 47.131,39.5475 -32.924,39.2367 -47.13,-39.5475 z" /></g></g><g
       id="g1012"><g
         clip-path="url(#clipPath1018)"
         id="g1014"><path
           id="path1020"
           style="fill:#ff6769;fill-opacity:1;fill-rule:nonzero;stroke:none"
           d="m 2368.581,580.3508 h 76.554 V 494.889 h -76.554 z" /></g></g><g
       id="g1022"><g
         clip-path="url(#clipPath1028)"
         id="g1024"><path
           id="path1030"
           style="fill:#fc6667;fill-opacity:1;fill-rule:nonzero;stroke:none"
           d="m 2419.531,529.414 h 38.914 v -66.6702 h -38.914 z" /></g></g><g
       id="g1032"><g
         transform="matrix(1,0,0,-1,2470,637.2528)"
         id="g1034"><text
           id="text1038"
           style="font-variant:normal;font-weight:normal;font-size:120px;font-family:Palatino;-inkscape-font-specification:Palatino-Roman;writing-mode:lr-tb;fill:#f96565;fill-opacity:1;fill-rule:nonzero;stroke:none"
           transform="translate(0,125)"><tspan
             id="tspan1036"
             y="0"
             x="0 39.959999 159.96001">( )</tspan></text>
</g></g><g
       id="g1040"><g
         clip-path="url(#clipPath1046)"
         id="g1042"><path
           id="path1048"
           style="fill:#000000;fill-opacity:1;fill-rule:nonzero;stroke:none"
           d="m 2510.907,619.101 h 68.067 V 483.4641 h -68.067 z" /></g></g><g
       id="g1050"><g
         clip-path="url(#clipPath1056)"
         id="g1052"><path
           id="path1058"
           style="fill:#000000;fill-opacity:1;fill-rule:nonzero;stroke:none"
           d="m 2570.692,522.6569 h 63.379 v -51.0414 h -63.379 z" /></g></g><g
       id="g1060"><g
         clip-path="url(#clipPath1066)"
         id="g1062"><path
           id="path1068"
           style="fill:#008000;fill-opacity:1;fill-rule:nonzero;stroke:none"
           d="m 1321.498,303.2257 h 152.499 V 162.6459 h -152.499 z" /></g></g><g
       id="g1070"><g
         clip-path="url(#clipPath1076)"
         id="g1072"><path
           id="path1078"
           style="fill:#008000;fill-opacity:1;fill-rule:nonzero;stroke:none"
           d="m 1426.506,183.1759 h 86.155 v -78.983 h -86.155 z" /></g></g><g
       id="g1080"><g
         clip-path="url(#clipPath1086)"
         id="g1082"><path
           id="path1088"
           style="fill:#fc9555;fill-opacity:1;fill-rule:nonzero;stroke:none"
           d="M 1760.37,292 V 180.2875 H 1669 V 292 Z" /></g></g><g
       id="g1090"><g
         transform="matrix(1,0,0,-1,1509,237)"
         id="g1092"><path
           id="path1094"
           style="fill:none;stroke:#f9954e;stroke-width:8;stroke-linecap:square;stroke-linejoin:miter;stroke-miterlimit:10;stroke-dasharray:none;stroke-opacity:1"
           d="M 0.5,4 H 178.5253" /></g></g></g></svg>